<svg width="90" height="90" viewBox="0 0 90 90" fill="none" xmlns="http://www.w3.org/2000/svg">
<rect x="5" y="5" width="80" height="80" fill="#1F3467"/>
<rect y="5" width="5" height="5" fill="#070C19"/>
<rect x="40" y="45" width="5" height="5" fill="#276FB3"/>
<rect x="45" y="40" width="5" height="5" fill="#276FB3"/>
<rect x="50" y="35" width="5" height="5" fill="#276FB3"/>
<rect x="55" y="30" width="5" height="5" fill="#276FB3"/>
<rect x="60" y="25" width="5" height="5" fill="#276FB3"/>
<rect x="65" y="20" width="5" height="5" fill="#276FB3"/>
<rect x="70" y="15" width="5" height="5" fill="#276FB3"/>
<rect x="75" y="10" width="5" height="5" fill="#276FB3"/>
<rect x="80" y="5" width="5" height="5" fill="#276FB3"/>
<rect x="15" y="40" width="5" height="5" fill="#276FB3"/>
<rect x="10" y="35" width="5" height="5" fill="#276FB3"/>
<rect x="5" y="30" width="5" height="5" fill="#276FB3"/>
<rect x="5" y="40" width="5" height="5" fill="#276FB3"/>
<rect x="10" y="45" width="5" height="5" fill="#276FB3"/>
<rect x="10" y="65" width="5" height="5" fill="#276FB3"/>
<rect x="5" y="70" width="5" height="5" fill="#276FB3"/>
<rect x="15" y="70" width="5" height="5" fill="#276FB3"/>
<rect x="10" y="75" width="5" height="5" fill="#276FB3"/>
<rect x="5" y="80" width="5" height="5" fill="#276FB3"/>
<rect x="35" y="70" width="5" height="5" fill="#276FB3"/>
<rect x="40" y="75" width="5" height="5" fill="#276FB3"/>
<rect x="45" y="80" width="5" height="5" fill="#276FB3"/>
<rect x="25" y="60" width="5" height="5" fill="#96D4E4"/>
<rect x="25" y="50" width="5" height="5" fill="#96D4E4"/>
<rect x="30" y="55" width="5" height="5" fill="#96D4E4"/>
<rect x="20" y="55" width="5" height="5" fill="#96D4E4"/>
<rect x="35" y="50" width="5" height="5" fill="#96D4E4"/>
<rect x="30" y="45" width="5" height="5" fill="#96D4E4"/>
<rect x="15" y="60" width="5" height="5" fill="#96D4E4"/>
<rect x="20" y="65" width="5" height="5" fill="#96D4E4"/>
<rect x="30" y="65" width="5" height="5" fill="#96D4E4"/>
<rect x="35" y="60" width="5" height="5" fill="#96D4E4"/>
<rect x="20" y="45" width="5" height="5" fill="#96D4E4"/>
<rect x="15" y="50" width="5" height="5" fill="#96D4E4"/>
<rect x="35" y="40" width="5" height="5" fill="#96D4E4"/>
<rect x="40" y="35" width="5" height="5" fill="#96D4E4"/>
<rect x="45" y="30" width="5" height="5" fill="#96D4E4"/>
<rect x="50" y="25" width="5" height="5" fill="#96D4E4"/>
<rect x="55" y="20" width="5" height="5" fill="#96D4E4"/>
<rect x="60" y="15" width="5" height="5" fill="#96D4E4"/>
<rect x="65" y="10" width="5" height="5" fill="#96D4E4"/>
<rect x="70" y="5" width="5" height="5" fill="#96D4E4"/>
<rect x="40" y="65" width="5" height="5" fill="#96D4E4"/>
<rect x="45" y="70" width="5" height="5" fill="#96D4E4"/>
<rect x="50" y="75" width="5" height="5" fill="#96D4E4"/>
<rect x="55" y="80" width="5" height="5" fill="#96D4E4"/>
<rect x="25" y="55" width="5" height="5" fill="#E2F9FB"/>
<rect x="20" y="60" width="5" height="5" fill="#E2F9FB"/>
<rect x="30" y="60" width="5" height="5" fill="#E2F9FB"/>
<rect x="20" y="50" width="5" height="5" fill="#E2F9FB"/>
<rect x="10" y="40" width="5" height="5" fill="#E2F9FB"/>
<rect x="5" y="35" width="5" height="5" fill="#E2F9FB"/>
<rect x="15" y="45" width="5" height="5" fill="#E2F9FB"/>
<rect x="35" y="65" width="5" height="5" fill="#E2F9FB"/>
<rect x="40" y="70" width="5" height="5" fill="#E2F9FB"/>
<rect x="45" y="75" width="5" height="5" fill="#E2F9FB"/>
<rect x="50" y="80" width="5" height="5" fill="#E2F9FB"/>
<rect x="15" y="65" width="5" height="5" fill="#E2F9FB"/>
<rect x="10" y="70" width="5" height="5" fill="#E2F9FB"/>
<rect x="5" y="75" width="5" height="5" fill="#E2F9FB"/>
<rect x="30" y="50" width="5" height="5" fill="#E2F9FB"/>
<rect x="35" y="45" width="5" height="5" fill="#E2F9FB"/>
<rect x="40" y="40" width="5" height="5" fill="#E2F9FB"/>
<rect x="45" y="35" width="5" height="5" fill="#E2F9FB"/>
<rect x="50" y="30" width="5" height="5" fill="#E2F9FB"/>
<rect x="55" y="25" width="5" height="5" fill="#E2F9FB"/>
<rect x="60" y="20" width="5" height="5" fill="#E2F9FB"/>
<rect x="65" y="15" width="5" height="5" fill="#E2F9FB"/>
<rect x="70" y="10" width="5" height="5" fill="#E2F9FB"/>
<rect x="75" y="5" width="5" height="5" fill="#E2F9FB"/>
<rect x="35" y="55" width="5" height="5" fill="#2E3D78"/>
<rect x="40" y="50" width="5" height="5" fill="#2E3D78"/>
<rect x="45" y="45" width="5" height="5" fill="#2E3D78"/>
<rect x="30" y="40" width="5" height="5" fill="#2E3D78"/>
<rect x="25" y="45" width="5" height="5" fill="#2E3D78"/>
<rect x="25" y="65" width="5" height="5" fill="#2E3D78"/>
<rect x="30" y="70" width="5" height="5" fill="#2E3D78"/>
<rect x="35" y="75" width="5" height="5" fill="#2E3D78"/>
<rect x="40" y="80" width="5" height="5" fill="#2E3D78"/>
<rect x="10" y="80" width="5" height="5" fill="#2E3D78"/>
<rect x="15" y="75" width="5" height="5" fill="#2E3D78"/>
<rect x="20" y="70" width="5" height="5" fill="#2E3D78"/>
<rect x="5" y="45" width="5" height="5" fill="#2E3D78"/>
<rect x="10" y="50" width="5" height="5" fill="#2E3D78"/>
<rect x="15" y="55" width="5" height="5" fill="#2E3D78"/>
<rect x="40" y="60" width="5" height="5" fill="#0039FF"/>
<rect x="40" y="55" width="5" height="5" fill="#0039FF"/>
<rect x="45" y="50" width="5" height="5" fill="#0039FF"/>
<rect x="35" y="35" width="5" height="5" fill="#0039FF"/>
<rect x="5" y="25" width="5" height="5" fill="#0039FF"/>
<rect x="10" y="30" width="5" height="5" fill="#0039FF"/>
<rect x="15" y="35" width="5" height="5" fill="#0039FF"/>
<rect x="20" y="40" width="5" height="5" fill="#0039FF"/>
<rect x="40" y="30" width="5" height="5" fill="#0039FF"/>
<rect x="45" y="25" width="5" height="5" fill="#0039FF"/>
<rect x="50" y="20" width="5" height="5" fill="#0039FF"/>
<rect x="55" y="15" width="5" height="5" fill="#0039FF"/>
<rect x="60" y="10" width="5" height="5" fill="#0039FF"/>
<rect x="65" y="5" width="5" height="5" fill="#0039FF"/>
<rect x="30" y="75" width="5" height="5" fill="#0039FF"/>
<rect x="35" y="80" width="5" height="5" fill="#0039FF"/>
<rect x="50" y="40" width="5" height="5" fill="#0039FF"/>
<rect x="25" y="70" width="5" height="5" fill="#0039FF"/>
<rect x="45" y="65" width="5" height="5" fill="#0039FF"/>
<rect x="50" y="70" width="5" height="5" fill="#0039FF"/>
<rect x="55" y="75" width="5" height="5" fill="#0039FF"/>
<rect x="60" y="80" width="5" height="5" fill="#0039FF"/>
<rect x="5" y="50" width="5" height="5" fill="#0039FF"/>
<rect x="20" y="75" width="5" height="5" fill="#0039FF"/>
<rect x="15" y="80" width="5" height="5" fill="#0039FF"/>
<rect x="55" y="35" width="5" height="5" fill="#0039FF"/>
<rect x="60" y="30" width="5" height="5" fill="#0039FF"/>
<rect x="65" y="25" width="5" height="5" fill="#0039FF"/>
<rect x="70" y="20" width="5" height="5" fill="#0039FF"/>
<rect x="75" y="15" width="5" height="5" fill="#0039FF"/>
<rect x="80" y="10" width="5" height="5" fill="#0039FF"/>
<rect x="10" y="55" width="5" height="5" fill="#0039FF"/>
<rect x="10" y="60" width="5" height="5" fill="#0039FF"/>
<rect x="5" y="65" width="5" height="5" fill="#0039FF"/>
<rect width="5" height="75" transform="matrix(1 0 0 -1 0 85)" fill="#070C19"/>
<rect x="90" y="85" width="5" height="75" transform="rotate(180 90 85)" fill="#070C19"/>
<rect width="5" height="5" transform="matrix(-1 0 0 1 90 5)" fill="#070C19"/>
<rect x="5" width="75" height="5" fill="#070C19"/>
<rect width="75" height="5" transform="matrix(1 0 0 -1 5 90)" fill="#070C19"/>
<rect x="85" y="90" width="5" height="5" transform="rotate(180 85 90)" fill="#070C19"/>
<rect width="5" height="5" transform="matrix(-1 0 0 1 85 0)" fill="#070C19"/>
</svg>
