<svg width="90" height="90" viewBox="0 0 90 90" fill="none" xmlns="http://www.w3.org/2000/svg">
<rect x="5" y="5" width="80" height="80" fill="#1F3467"/>
<rect y="5" width="5" height="5" fill="#070C19"/>
<rect width="5" height="75" transform="matrix(1 0 0 -1 0 85)" fill="#070C19"/>
<rect x="90" y="85" width="5" height="75" transform="rotate(180 90 85)" fill="#070C19"/>
<rect width="5" height="5" transform="matrix(-1 0 0 1 90 5)" fill="#070C19"/>
<rect x="5" width="75" height="5" fill="#070C19"/>
<rect width="75" height="5" transform="matrix(1 0 0 -1 5 90)" fill="#070C19"/>
<rect x="85" y="90" width="5" height="5" transform="rotate(180 85 90)" fill="#070C19"/>
<rect width="5" height="5" transform="matrix(-1 0 0 1 85 0)" fill="#070C19"/>
<rect width="5" height="5" transform="matrix(-1 0 0 1 50 10)" fill="#0039FF"/>
<rect width="5" height="5" transform="matrix(-1 0 0 1 55 10)" fill="#0039FF"/>
<rect width="5" height="5" transform="matrix(-1 0 0 1 60 15)" fill="#E2F9FB"/>
<rect width="5" height="5" transform="matrix(-1 0 0 1 55 15)" fill="#E2F9FB"/>
<rect width="5" height="5" transform="matrix(-1 0 0 1 55 20)" fill="#E2F9FB"/>
<rect width="5" height="5" transform="matrix(-1 0 0 1 60 20)" fill="#96D4E4"/>
<rect width="5" height="5" transform="matrix(-1 0 0 1 65 25)" fill="#96D4E4"/>
<rect width="5" height="5" transform="matrix(-1 0 0 1 50 25)" fill="#96D4E4"/>
<rect width="5" height="5" transform="matrix(-1 0 0 1 55 25)" fill="#96D4E4"/>
<rect width="5" height="5" transform="matrix(-1 0 0 1 40 30)" fill="#96D4E4"/>
<rect width="5" height="5" transform="matrix(-1 0 0 1 45 30)" fill="#96D4E4"/>
<rect width="5" height="5" transform="matrix(-1 0 0 1 60 25)" fill="#276FB3"/>
<rect width="5" height="5" transform="matrix(-1 0 0 1 40 35)" fill="#276FB3"/>
<rect width="5" height="5" transform="matrix(-1 0 0 1 45 35)" fill="#276FB3"/>
<rect width="5" height="5" transform="matrix(-1 0 0 1 50 30)" fill="#276FB3"/>
<rect width="5" height="5" transform="matrix(-1 0 0 1 55 30)" fill="#276FB3"/>
<rect width="5" height="5" transform="matrix(-1 0 0 1 55 40)" fill="#276FB3"/>
<rect width="5" height="5" transform="matrix(-1 0 0 1 55 45)" fill="#276FB3"/>
<rect width="5" height="5" transform="matrix(-1 0 0 1 50 35)" fill="#2E3D78"/>
<rect width="5" height="5" transform="matrix(-1 0 0 1 50 40)" fill="#2E3D78"/>
<rect width="5" height="5" transform="matrix(-1 0 0 1 60 50)" fill="#2E3D78"/>
<rect width="5" height="5" transform="matrix(-1 0 0 1 55 50)" fill="#2E3D78"/>
<rect width="5" height="5" transform="matrix(-1 0 0 1 60 45)" fill="#2E3D78"/>
<rect width="5" height="5" transform="matrix(-1 0 0 1 65 40)" fill="#2E3D78"/>
<rect width="5" height="5" transform="matrix(-1 0 0 1 70 35)" fill="#2E3D78"/>
<rect width="5" height="5" transform="matrix(-1 0 0 1 75 35)" fill="#2E3D78"/>
<rect width="5" height="5" transform="matrix(-1 0 0 1 60 40)" fill="#276FB3"/>
<rect width="5" height="5" transform="matrix(-1 0 0 1 55 35)" fill="#276FB3"/>
<rect width="5" height="5" transform="matrix(-1 0 0 1 60 35)" fill="#276FB3"/>
<rect width="5" height="5" transform="matrix(-1 0 0 1 60 30)" fill="#276FB3"/>
<rect width="5" height="5" transform="matrix(-1 0 0 1 70 30)" fill="#276FB3"/>
<rect width="5" height="5" transform="matrix(-1 0 0 1 65 35)" fill="#276FB3"/>
<rect width="5" height="5" transform="matrix(-1 0 0 1 65 30)" fill="#276FB3"/>
<rect width="5" height="5" transform="matrix(-1 0 0 1 75 30)" fill="#276FB3"/>
<rect width="5" height="5" transform="matrix(-1 0 0 1 60 10)" fill="#0039FF"/>
<rect width="5" height="5" transform="matrix(-1 0 0 1 65 10)" fill="#0039FF"/>
<rect width="5" height="5" transform="matrix(-1 0 0 1 65 15)" fill="#0039FF"/>
<rect width="5" height="5" transform="matrix(-1 0 0 1 65 20)" fill="#0039FF"/>
<rect width="5" height="5" transform="matrix(-1 0 0 1 70 25)" fill="#0039FF"/>
<rect width="5" height="5" transform="matrix(-1 0 0 1 75 25)" fill="#0039FF"/>
<rect width="5" height="5" transform="matrix(-1 0 0 1 80 25)" fill="#0039FF"/>
<rect width="5" height="5" transform="matrix(-1 0 0 1 80 30)" fill="#0039FF"/>
<rect width="5" height="5" transform="matrix(-1 0 0 1 80 35)" fill="#0039FF"/>
<rect width="5" height="5" transform="matrix(-1 0 0 1 80 40)" fill="#0039FF"/>
<rect width="5" height="5" transform="matrix(-1 0 0 1 75 40)" fill="#0039FF"/>
<rect width="5" height="5" transform="matrix(-1 0 0 1 70 40)" fill="#0039FF"/>
<rect width="5" height="5" transform="matrix(-1 0 0 1 65 45)" fill="#0039FF"/>
<rect width="5" height="5" transform="matrix(-1 0 0 1 65 50)" fill="#0039FF"/>
<rect width="5" height="5" transform="matrix(-1 0 0 1 65 55)" fill="#0039FF"/>
<rect width="5" height="5" transform="matrix(-1 0 0 1 60 55)" fill="#0039FF"/>
<rect width="5" height="5" transform="matrix(-1 0 0 1 55 55)" fill="#0039FF"/>
<rect width="5" height="5" transform="matrix(-1 0 0 1 50 55)" fill="#0039FF"/>
<rect width="5" height="5" transform="matrix(-1 0 0 1 50 50)" fill="#0039FF"/>
<rect width="5" height="5" transform="matrix(-1 0 0 1 50 45)" fill="#0039FF"/>
<rect width="5" height="5" transform="matrix(-1 0 0 1 45 40)" fill="#0039FF"/>
<rect width="5" height="5" transform="matrix(-1 0 0 1 40 40)" fill="#0039FF"/>
<rect width="5" height="5" transform="matrix(-1 0 0 1 35 40)" fill="#0039FF"/>
<rect width="5" height="5" transform="matrix(-1 0 0 1 35 35)" fill="#0039FF"/>
<rect width="5" height="5" transform="matrix(-1 0 0 1 35 25)" fill="#0039FF"/>
<rect width="5" height="5" transform="matrix(-1 0 0 1 35 30)" fill="#0039FF"/>
<rect width="5" height="5" transform="matrix(-1 0 0 1 40 25)" fill="#0039FF"/>
<rect width="5" height="5" transform="matrix(-1 0 0 1 45 25)" fill="#0039FF"/>
<rect width="5" height="5" transform="matrix(-1 0 0 1 50 15)" fill="#0039FF"/>
<rect width="5" height="5" transform="matrix(-1 0 0 1 50 20)" fill="#0039FF"/>
<rect width="5" height="5" transform="matrix(-1 0 0 1 30 35)" fill="#0039FF"/>
<rect width="5" height="5" transform="matrix(-1 0 0 1 35 35)" fill="#0039FF"/>
<rect width="5" height="5" transform="matrix(-1 0 0 1 35 40)" fill="#E2F9FB"/>
<rect width="5" height="5" transform="matrix(-1 0 0 1 35 45)" fill="#96D4E4"/>
<rect width="5" height="5" transform="matrix(-1 0 0 1 40 50)" fill="#96D4E4"/>
<rect width="5" height="5" transform="matrix(-1 0 0 1 30 50)" fill="#96D4E4"/>
<rect width="5" height="5" transform="matrix(-1 0 0 1 50 55)" fill="#96D4E4"/>
<rect width="5" height="5" transform="matrix(-1 0 0 1 35 50)" fill="#276FB3"/>
<rect width="5" height="5" transform="matrix(-1 0 0 1 20 55)" fill="#276FB3"/>
<rect width="5" height="5" transform="matrix(-1 0 0 1 25 55)" fill="#276FB3"/>
<rect width="5" height="5" transform="matrix(-1 0 0 1 35 55)" fill="#276FB3"/>
<rect width="5" height="5" transform="matrix(-1 0 0 1 35 60)" fill="#276FB3"/>
<rect width="5" height="5" transform="matrix(-1 0 0 1 30 55)" fill="#2E3D78"/>
<rect width="5" height="5" transform="matrix(-1 0 0 1 30 60)" fill="#2E3D78"/>
<rect width="5" height="5" transform="matrix(-1 0 0 1 35 70)" fill="#2E3D78"/>
<rect width="5" height="5" transform="matrix(-1 0 0 1 35 65)" fill="#2E3D78"/>
<rect width="5" height="5" transform="matrix(-1 0 0 1 40 60)" fill="#2E3D78"/>
<rect width="5" height="5" transform="matrix(-1 0 0 1 40 55)" fill="#276FB3"/>
<rect width="5" height="5" transform="matrix(-1 0 0 1 45 55)" fill="#276FB3"/>
<rect width="5" height="5" transform="matrix(-1 0 0 1 40 35)" fill="#0039FF"/>
<rect width="5" height="5" transform="matrix(-1 0 0 1 40 40)" fill="#0039FF"/>
<rect width="5" height="5" transform="matrix(-1 0 0 1 40 45)" fill="#0039FF"/>
<rect width="5" height="5" transform="matrix(-1 0 0 1 45 50)" fill="#0039FF"/>
<rect width="5" height="5" transform="matrix(-1 0 0 1 50 50)" fill="#0039FF"/>
<rect width="5" height="5" transform="matrix(-1 0 0 1 55 50)" fill="#0039FF"/>
<rect width="5" height="5" transform="matrix(-1 0 0 1 55 55)" fill="#0039FF"/>
<rect width="5" height="5" transform="matrix(-1 0 0 1 55 60)" fill="#0039FF"/>
<rect width="5" height="5" transform="matrix(-1 0 0 1 50 60)" fill="#0039FF"/>
<rect width="5" height="5" transform="matrix(-1 0 0 1 45 60)" fill="#0039FF"/>
<rect width="5" height="5" transform="matrix(-1 0 0 1 40 65)" fill="#0039FF"/>
<rect width="5" height="5" transform="matrix(-1 0 0 1 40 70)" fill="#0039FF"/>
<rect width="5" height="5" transform="matrix(-1 0 0 1 40 75)" fill="#0039FF"/>
<rect width="5" height="5" transform="matrix(-1 0 0 1 35 75)" fill="#0039FF"/>
<rect width="5" height="5" transform="matrix(-1 0 0 1 30 75)" fill="#0039FF"/>
<rect width="5" height="5" transform="matrix(-1 0 0 1 30 70)" fill="#0039FF"/>
<rect width="5" height="5" transform="matrix(-1 0 0 1 30 65)" fill="#0039FF"/>
<rect width="5" height="5" transform="matrix(-1 0 0 1 25 60)" fill="#0039FF"/>
<rect width="5" height="5" transform="matrix(-1 0 0 1 20 60)" fill="#0039FF"/>
<rect width="5" height="5" transform="matrix(-1 0 0 1 15 60)" fill="#0039FF"/>
<rect width="5" height="5" transform="matrix(-1 0 0 1 15 55)" fill="#0039FF"/>
<rect width="5" height="5" transform="matrix(-1 0 0 1 15 50)" fill="#0039FF"/>
<rect width="5" height="5" transform="matrix(-1 0 0 1 20 50)" fill="#0039FF"/>
<rect width="5" height="5" transform="matrix(-1 0 0 1 25 50)" fill="#0039FF"/>
<rect width="5" height="5" transform="matrix(-1 0 0 1 30 40)" fill="#0039FF"/>
<rect width="5" height="5" transform="matrix(-1 0 0 1 30 45)" fill="#0039FF"/>
</svg>
