<svg width="90" height="90" viewBox="0 0 90 90" fill="none" xmlns="http://www.w3.org/2000/svg">
<rect x="5" y="5" width="80" height="80" fill="#1F3467"/>
<rect y="5" width="5" height="5" fill="#070C19"/>
<rect width="5" height="75" transform="matrix(1 0 0 -1 0 85)" fill="#070C19"/>
<rect x="90" y="85" width="5" height="75" transform="rotate(180 90 85)" fill="#070C19"/>
<rect width="5" height="5" transform="matrix(-1 0 0 1 90 5)" fill="#070C19"/>
<rect x="5" width="75" height="5" fill="#070C19"/>
<rect width="75" height="5" transform="matrix(1 0 0 -1 5 90)" fill="#070C19"/>
<rect x="85" y="90" width="5" height="5" transform="rotate(180 85 90)" fill="#070C19"/>
<rect width="5" height="5" transform="matrix(-1 0 0 1 85 0)" fill="#070C19"/>
<rect x="38" y="20" width="5" height="5" fill="#E2F9FB"/>
<rect x="43" y="20" width="5" height="5" fill="#E2F9FB"/>
<rect x="48" y="20" width="5" height="5" fill="#E2F9FB"/>
<rect x="53" y="25" width="5" height="5" fill="#E2F9FB"/>
<rect x="58" y="30" width="5" height="5" fill="#E2F9FB"/>
<rect x="63" y="35" width="5" height="5" fill="#E2F9FB"/>
<rect x="63" y="40" width="5" height="5" fill="#E2F9FB"/>
<rect x="63" y="45" width="5" height="5" fill="#E2F9FB"/>
<rect x="58" y="50" width="5" height="5" fill="#E2F9FB"/>
<rect x="53" y="55" width="5" height="5" fill="#E2F9FB"/>
<rect x="48" y="60" width="5" height="5" fill="#E2F9FB"/>
<rect x="48" y="65" width="5" height="5" fill="#E2F9FB"/>
<rect x="43" y="70" width="5" height="5" fill="#E2F9FB"/>
<rect x="43" y="75" width="5" height="5" fill="#E2F9FB"/>
<rect x="63" y="60" width="5" height="5" fill="#E2F9FB"/>
<rect x="23" y="60" width="5" height="5" fill="#E2F9FB"/>
<rect x="43" y="60" width="5" height="5" fill="#E2F9FB"/>
<rect x="38" y="60" width="5" height="5" fill="#E2F9FB"/>
<rect x="33" y="55" width="5" height="5" fill="#E2F9FB"/>
<rect x="28" y="50" width="5" height="5" fill="#E2F9FB"/>
<rect x="33" y="25" width="5" height="5" fill="#E2F9FB"/>
<rect x="28" y="25" width="5" height="5" fill="#96D4E4"/>
<rect x="33" y="20" width="5" height="5" fill="#96D4E4"/>
<rect x="38" y="15" width="5" height="5" fill="#96D4E4"/>
<rect x="43" y="15" width="5" height="5" fill="#96D4E4"/>
<rect x="48" y="15" width="5" height="5" fill="#96D4E4"/>
<rect x="53" y="20" width="5" height="5" fill="#96D4E4"/>
<rect x="58" y="25" width="5" height="5" fill="#96D4E4"/>
<rect x="63" y="30" width="5" height="5" fill="#96D4E4"/>
<rect x="68" y="35" width="5" height="5" fill="#96D4E4"/>
<rect x="68" y="40" width="5" height="5" fill="#96D4E4"/>
<rect x="68" y="45" width="5" height="5" fill="#96D4E4"/>
<rect x="63" y="50" width="5" height="5" fill="#96D4E4"/>
<rect x="58" y="55" width="5" height="5" fill="#96D4E4"/>
<rect x="53" y="60" width="5" height="5" fill="#96D4E4"/>
<rect x="43" y="65" width="5" height="5" fill="#96D4E4"/>
<rect x="38" y="65" width="5" height="5" fill="#96D4E4"/>
<rect x="48" y="70" width="5" height="5" fill="#96D4E4"/>
<rect x="28" y="55" width="5" height="5" fill="#96D4E4"/>
<rect x="23" y="50" width="5" height="5" fill="#96D4E4"/>
<rect x="33" y="60" width="5" height="5" fill="#96D4E4"/>
<rect x="18" y="45" width="5" height="5" fill="#96D4E4"/>
<rect x="18" y="40" width="5" height="5" fill="#96D4E4"/>
<rect x="18" y="35" width="5" height="5" fill="#96D4E4"/>
<rect x="23" y="30" width="5" height="5" fill="#96D4E4"/>
<rect x="18" y="30" width="5" height="5" fill="#276FB3"/>
<rect x="23" y="25" width="5" height="5" fill="#276FB3"/>
<rect x="28" y="20" width="5" height="5" fill="#276FB3"/>
<rect x="33" y="15" width="5" height="5" fill="#276FB3"/>
<rect x="38" y="10" width="5" height="5" fill="#276FB3"/>
<rect x="43" y="10" width="5" height="5" fill="#276FB3"/>
<rect x="48" y="10" width="5" height="5" fill="#276FB3"/>
<rect x="53" y="15" width="5" height="5" fill="#276FB3"/>
<rect x="58" y="20" width="5" height="5" fill="#276FB3"/>
<rect x="63" y="25" width="5" height="5" fill="#276FB3"/>
<rect x="68" y="30" width="5" height="5" fill="#276FB3"/>
<rect x="73" y="35" width="5" height="5" fill="#276FB3"/>
<rect x="73" y="40" width="5" height="5" fill="#276FB3"/>
<rect x="73" y="45" width="5" height="5" fill="#276FB3"/>
<rect x="68" y="50" width="5" height="5" fill="#276FB3"/>
<rect x="63" y="55" width="5" height="5" fill="#276FB3"/>
<rect x="58" y="60" width="5" height="5" fill="#276FB3"/>
<rect x="53" y="65" width="5" height="5" fill="#276FB3"/>
<rect x="53" y="70" width="5" height="5" fill="#276FB3"/>
<rect x="48" y="75" width="5" height="5" fill="#276FB3"/>
<rect x="38" y="70" width="5" height="5" fill="#276FB3"/>
<rect x="33" y="65" width="5" height="5" fill="#276FB3"/>
<rect x="43" y="80" width="5" height="5" fill="#276FB3"/>
<rect x="28" y="60" width="5" height="5" fill="#276FB3"/>
<rect x="23" y="55" width="5" height="5" fill="#276FB3"/>
<rect x="18" y="50" width="5" height="5" fill="#276FB3"/>
<rect x="13" y="45" width="5" height="5" fill="#276FB3"/>
<rect x="13" y="40" width="5" height="5" fill="#276FB3"/>
<rect x="13" y="35" width="5" height="5" fill="#276FB3"/>
<rect x="28" y="30" width="5" height="5" fill="#E2F9FB"/>
<rect x="23" y="35" width="5" height="5" fill="#E2F9FB"/>
<rect x="23" y="40" width="5" height="5" fill="#E2F9FB"/>
<rect x="23" y="45" width="5" height="5" fill="#E2F9FB"/>
</svg>
