<svg width="80" height="80" viewBox="0 0 80 80" fill="none" xmlns="http://www.w3.org/2000/svg">
<path d="M80 0H0V5H80V0Z" fill="#003400"/>
<path d="M37.5 5H0V7.5H37.5V5Z" fill="#003400"/>
<path d="M42.5 5H37.5V12.5H42.5V5Z" fill="#CEED54"/>
<path d="M80 5H42.5V7.5H80V5Z" fill="#003400"/>
<path d="M35 7.5H0V10H35V7.5Z" fill="#003400"/>
<path d="M37.5 7.5H35V10H37.5V7.5Z" fill="#CEED54"/>
<path d="M45 7.5H42.5V10H45V7.5Z" fill="#CEED54"/>
<path d="M80 7.5H45V10H80V7.5Z" fill="#003400"/>
<path d="M32.5 10H0V12.5H32.5V10Z" fill="#003400"/>
<path d="M37.5 10H32.5V12.5H37.5V10Z" fill="#88E500"/>
<path d="M45 10H42.5V12.5H45V10Z" fill="#88E500"/>
<path d="M47.5 10H45V12.5H47.5V10Z" fill="#CEED54"/>
<path d="M80 10H47.5V12.5H80V10Z" fill="#003400"/>
<path d="M30 12.5H0V15H30V12.5Z" fill="#003400"/>
<path d="M32.5 12.5H30V15H32.5V12.5Z" fill="#009000"/>
<path d="M35 12.5H32.5V25H35V12.5Z" fill="#003400"/>
<path d="M37.5 12.5H35V15H37.5V12.5Z" fill="#009000"/>
<path d="M42.5 12.5H37.5V20H42.5V12.5Z" fill="#88E500"/>
<path d="M45 12.5H42.5V15H45V12.5Z" fill="#009000"/>
<path d="M47.5 12.5H45V25H47.5V12.5Z" fill="#003400"/>
<path d="M50 12.5H47.5V15H50V12.5Z" fill="#CEED54"/>
<path d="M80 12.5H50V15H80V12.5Z" fill="#003400"/>
<path d="M27.5 15H0V17.5H27.5V15Z" fill="#003400"/>
<path d="M30 15H27.5V17.5H30V15Z" fill="#009000"/>
<path d="M32.5 15H30V27.5H32.5V15Z" fill="#003400"/>
<path d="M37.5 15H35V22.5H37.5V15Z" fill="#003400"/>
<path d="M45 15H42.5V22.5H45V15Z" fill="#003400"/>
<path d="M50 15H47.5V27.5H50V15Z" fill="#003400"/>
<path d="M52.5 15H50V17.5H52.5V15Z" fill="#CEED54"/>
<path d="M80 15H52.5V17.5H80V15Z" fill="#003400"/>
<path d="M25 17.5H0V20H25V17.5Z" fill="#003400"/>
<path d="M27.5 17.5H25V20H27.5V17.5Z" fill="#009000"/>
<path d="M30 17.5H27.5V30H30V17.5Z" fill="#003400"/>
<path d="M52.5 17.5H50V30H52.5V17.5Z" fill="#003400"/>
<path d="M55 17.5H52.5V20H55V17.5Z" fill="#CEED54"/>
<path d="M80 17.5H55V20H80V17.5Z" fill="#003400"/>
<path d="M22.5 20H0V22.5H22.5V20Z" fill="#003400"/>
<path d="M25 20H22.5V22.5H25V20Z" fill="#009000"/>
<path d="M27.5 20H25V32.5H27.5V20Z" fill="#003400"/>
<path d="M40 20H37.5V37.5H40V20Z" fill="#009000"/>
<path d="M42.5 20H40V32.5H42.5V20Z" fill="#88E500"/>
<path d="M55 20H52.5V32.5H55V20Z" fill="#003400"/>
<path d="M57.5 20H55V22.5H57.5V20Z" fill="#CEED54"/>
<path d="M80 20H57.5V22.5H80V20Z" fill="#003400"/>
<path d="M20 22.5H0V25H20V22.5Z" fill="#003400"/>
<path d="M22.5 22.5H20V25H22.5V22.5Z" fill="#009000"/>
<path d="M25 22.5H22.5V30H25V22.5Z" fill="#003400"/>
<path d="M37.5 22.5H35V30H37.5V22.5Z" fill="#005400"/>
<path d="M45 22.5H42.5V30H45V22.5Z" fill="#005400"/>
<path d="M57.5 22.5H55V30H57.5V22.5Z" fill="#003400"/>
<path d="M60 22.5H57.5V25H60V22.5Z" fill="#CEED54"/>
<path d="M80 22.5H60V25H80V22.5Z" fill="#003400"/>
<path d="M17.5 25H0V27.5H17.5V25Z" fill="#003400"/>
<path d="M20 25H17.5V27.5H20V25Z" fill="#009000"/>
<path d="M22.5 25H20V27.5H22.5V25Z" fill="#003400"/>
<path d="M35 25H32.5V32.5H35V25Z" fill="#005400"/>
<path d="M47.5 25H45V32.5H47.5V25Z" fill="#005400"/>
<path d="M60 25H57.5V27.5H60V25Z" fill="#003400"/>
<path d="M62.5 25H60V27.5H62.5V25Z" fill="#CEED54"/>
<path d="M80 25H62.5V27.5H80V25Z" fill="#003400"/>
<path d="M15 27.5H0V30H15V27.5Z" fill="#003400"/>
<path d="M17.5 27.5H15V30H17.5V27.5Z" fill="#009000"/>
<path d="M22.5 27.5H17.5V30H22.5V27.5Z" fill="#005400"/>
<path d="M32.5 27.5H30V35H32.5V27.5Z" fill="#005400"/>
<path d="M50 27.5H47.5V35H50V27.5Z" fill="#005400"/>
<path d="M62.5 27.5H57.5V30H62.5V27.5Z" fill="#005400"/>
<path d="M65 27.5H62.5V30H65V27.5Z" fill="#CEED54"/>
<path d="M80 27.5H65V30H80V27.5Z" fill="#003400"/>
<path d="M12.5 30H0V32.5H12.5V30Z" fill="#003400"/>
<path d="M15 30H12.5V32.5H15V30Z" fill="#009000"/>
<path d="M20 30H15V37.5H20V30Z" fill="#003400"/>
<path d="M25 30H20V35H25V30Z" fill="#005400"/>
<path d="M30 30H27.5V37.5H30V30Z" fill="#005400"/>
<path d="M37.5 30H35V32.5H37.5V30Z" fill="#009000"/>
<path d="M45 30H42.5V32.5H45V30Z" fill="#CEED54"/>
<path d="M52.5 30H50V37.5H52.5V30Z" fill="#005400"/>
<path d="M60 30H55V35H60V30Z" fill="#005400"/>
<path d="M65 30H60V37.5H65V30Z" fill="#003400"/>
<path d="M67.5 30H65V32.5H67.5V30Z" fill="#CEED54"/>
<path d="M80 30H67.5V32.5H80V30Z" fill="#003400"/>
<path d="M10 32.5H0V35H10V32.5Z" fill="#003400"/>
<path d="M12.5 32.5H10V40H12.5V32.5Z" fill="#009000"/>
<path d="M15 32.5H12.5V35H15V32.5Z" fill="#003400"/>
<path d="M27.5 32.5H25V37.5H27.5V32.5Z" fill="#005400"/>
<path d="M35 32.5H32.5V35H35V32.5Z" fill="#009000"/>
<path d="M37.5 32.5H35V37.5H37.5V32.5Z" fill="#005400"/>
<path d="M42.5 32.5H40V35H42.5V32.5Z" fill="#009000"/>
<path d="M45 32.5H42.5V37.5H45V32.5Z" fill="#005400"/>
<path d="M47.5 32.5H45V35H47.5V32.5Z" fill="#CEED54"/>
<path d="M55 32.5H52.5V37.5H55V32.5Z" fill="#005400"/>
<path d="M67.5 32.5H65V35H67.5V32.5Z" fill="#003400"/>
<path d="M70 32.5H67.5V35H70V32.5Z" fill="#CEED54"/>
<path d="M80 32.5H70V35H80V32.5Z" fill="#003400"/>
<path d="M7.5 35H0V37.5H7.5V35Z" fill="#003400"/>
<path d="M10 35H7.5V40H10V35Z" fill="#009000"/>
<path d="M15 35H12.5V37.5H15V35Z" fill="#006D00"/>
<path d="M22.5 35H20V37.5H22.5V35Z" fill="#003400"/>
<path d="M25 35H22.5V37.5H25V35Z" fill="#005400"/>
<path d="M32.5 35H30V37.5H32.5V35Z" fill="#009000"/>
<path d="M35 35H32.5V37.5H35V35Z" fill="#005400"/>
<path d="M42.5 35H40V42.5H42.5V35Z" fill="#CEED54"/>
<path d="M47.5 35H45V37.5H47.5V35Z" fill="#005400"/>
<path d="M50 35H47.5V37.5H50V35Z" fill="#CEED54"/>
<path d="M57.5 35H55V37.5H57.5V35Z" fill="#005400"/>
<path d="M60 35H57.5V37.5H60V35Z" fill="#003400"/>
<path d="M70 35H65V40H70V35Z" fill="#88E500"/>
<path d="M72.5 35H70V37.5H72.5V35Z" fill="#CEED54"/>
<path d="M80 35H72.5V37.5H80V35Z" fill="#003400"/>
<path d="M5 37.5H0V80H5V37.5Z" fill="#003400"/>
<path d="M7.5 37.5H5V42.5H7.5V37.5Z" fill="#006D00"/>
<path d="M30 37.5H12.5V40H30V37.5Z" fill="#009000"/>
<path d="M37.5 37.5H30V40H37.5V37.5Z" fill="#88E500"/>
<path d="M40 37.5H37.5V40H40V37.5Z" fill="#CEED54"/>
<path d="M45 37.5H42.5V40H45V37.5Z" fill="#CEED54"/>
<path d="M65 37.5H45V40H65V37.5Z" fill="#88E500"/>
<path d="M72.5 37.5H70V45H72.5V37.5Z" fill="#88E500"/>
<path d="M75 37.5H72.5V40H75V37.5Z" fill="#CEED54"/>
<path d="M80 37.5H75V80H80V37.5Z" fill="#003400"/>
<path d="M17.5 40H7.5V42.5H17.5V40Z" fill="#006D00"/>
<path d="M37.5 40H17.5V42.5H37.5V40Z" fill="#007700"/>
<path d="M40 40H37.5V42.5H40V40Z" fill="#009000"/>
<path d="M67.5 40H42.5V42.5H67.5V40Z" fill="#009000"/>
<path d="M70 40H67.5V42.5H70V40Z" fill="#88E500"/>
<path d="M75 40H72.5V42.5H75V40Z" fill="#88E500"/>
<path d="M7.5 42.5H5V80H7.5V42.5Z" fill="#003400"/>
<path d="M15 42.5H7.5V45H15V42.5Z" fill="#006D00"/>
<path d="M27.5 42.5H15V50H27.5V42.5Z" fill="#003400"/>
<path d="M30 42.5H27.5V47.5H30V42.5Z" fill="#005400"/>
<path d="M32.5 42.5H30V45H32.5V42.5Z" fill="#006D00"/>
<path d="M37.5 42.5H32.5V45H37.5V42.5Z" fill="#005400"/>
<path d="M40 42.5H37.5V57.5H40V42.5Z" fill="#007700"/>
<path d="M42.5 42.5H40V52.5H42.5V42.5Z" fill="#009000"/>
<path d="M47.5 42.5H42.5V45H47.5V42.5Z" fill="#005400"/>
<path d="M50 42.5H47.5V45H50V42.5Z" fill="#009000"/>
<path d="M52.5 42.5H50V47.5H52.5V42.5Z" fill="#005400"/>
<path d="M65 42.5H52.5V50H65V42.5Z" fill="#003400"/>
<path d="M70 42.5H65V45H70V42.5Z" fill="#009000"/>
<path d="M75 42.5H72.5V80H75V42.5Z" fill="#003400"/>
<path d="M10 45H7.5V80H10V45Z" fill="#003400"/>
<path d="M12.5 45H10V47.5H12.5V45Z" fill="#006D00"/>
<path d="M15 45H12.5V47.5H15V45Z" fill="#003400"/>
<path d="M32.5 45H30V50H32.5V45Z" fill="#005400"/>
<path d="M35 45H32.5V47.5H35V45Z" fill="#006D00"/>
<path d="M37.5 45H35V47.5H37.5V45Z" fill="#005400"/>
<path d="M45 45H42.5V47.5H45V45Z" fill="#005400"/>
<path d="M47.5 45H45V47.5H47.5V45Z" fill="#006D00"/>
<path d="M50 45H47.5V50H50V45Z" fill="#005400"/>
<path d="M67.5 45H65V47.5H67.5V45Z" fill="#003400"/>
<path d="M70 45H67.5V47.5H70V45Z" fill="#009000"/>
<path d="M72.5 45H70V80H72.5V45Z" fill="#003400"/>
<path d="M12.5 47.5H10V80H12.5V47.5Z" fill="#003400"/>
<path d="M15 47.5H12.5V50H15V47.5Z" fill="#006D00"/>
<path d="M30 47.5H27.5V57.5H30V47.5Z" fill="#003400"/>
<path d="M35 47.5H32.5V52.5H35V47.5Z" fill="#005400"/>
<path d="M37.5 47.5H35V50H37.5V47.5Z" fill="#006D00"/>
<path d="M45 47.5H42.5V50H45V47.5Z" fill="#006D00"/>
<path d="M47.5 47.5H45V52.5H47.5V47.5Z" fill="#005400"/>
<path d="M52.5 47.5H50V57.5H52.5V47.5Z" fill="#003400"/>
<path d="M67.5 47.5H65V50H67.5V47.5Z" fill="#009000"/>
<path d="M70 47.5H67.5V80H70V47.5Z" fill="#003400"/>
<path d="M15 50H12.5V80H15V50Z" fill="#003400"/>
<path d="M17.5 50H15V52.5H17.5V50Z" fill="#006D00"/>
<path d="M27.5 50H17.5V52.5H27.5V50Z" fill="#003400"/>
<path d="M32.5 50H30V57.5H32.5V50Z" fill="#003400"/>
<path d="M37.5 50H35V65H37.5V50Z" fill="#005400"/>
<path d="M45 50H42.5V65H45V50Z" fill="#005400"/>
<path d="M50 50H47.5V57.5H50V50Z" fill="#003400"/>
<path d="M62.5 50H52.5V52.5H62.5V50Z" fill="#003400"/>
<path d="M65 50H62.5V52.5H65V50Z" fill="#009000"/>
<path d="M67.5 50H65V80H67.5V50Z" fill="#003400"/>
<path d="M17.5 52.5H15V80H17.5V52.5Z" fill="#003400"/>
<path d="M20 52.5H17.5V55H20V52.5Z" fill="#006D00"/>
<path d="M27.5 52.5H20V55H27.5V52.5Z" fill="#003400"/>
<path d="M35 52.5H32.5V55H35V52.5Z" fill="#003400"/>
<path d="M42.5 52.5H40V67.5H42.5V52.5Z" fill="#006D00"/>
<path d="M47.5 52.5H45V55H47.5V52.5Z" fill="#003400"/>
<path d="M60 52.5H52.5V55H60V52.5Z" fill="#003400"/>
<path d="M62.5 52.5H60V55H62.5V52.5Z" fill="#009000"/>
<path d="M65 52.5H62.5V80H65V52.5Z" fill="#003400"/>
<path d="M20 55H17.5V80H20V55Z" fill="#003400"/>
<path d="M22.5 55H20V57.5H22.5V55Z" fill="#007700"/>
<path d="M27.5 55H22.5V57.5H27.5V55Z" fill="#003400"/>
<path d="M35 55H32.5V67.5H35V55Z" fill="#005400"/>
<path d="M47.5 55H45V67.5H47.5V55Z" fill="#005400"/>
<path d="M57.5 55H52.5V57.5H57.5V55Z" fill="#003400"/>
<path d="M60 55H57.5V57.5H60V55Z" fill="#009000"/>
<path d="M62.5 55H60V80H62.5V55Z" fill="#003400"/>
<path d="M22.5 57.5H20V80H22.5V57.5Z" fill="#003400"/>
<path d="M25 57.5H22.5V60H25V57.5Z" fill="#007700"/>
<path d="M27.5 57.5H25V60H27.5V57.5Z" fill="#003400"/>
<path d="M32.5 57.5H27.5V62.5H32.5V57.5Z" fill="#005400"/>
<path d="M40 57.5H37.5V62.5H40V57.5Z" fill="#006D00"/>
<path d="M52.5 57.5H47.5V62.5H52.5V57.5Z" fill="#005400"/>
<path d="M55 57.5H52.5V60H55V57.5Z" fill="#003400"/>
<path d="M57.5 57.5H55V60H57.5V57.5Z" fill="#009000"/>
<path d="M60 57.5H57.5V80H60V57.5Z" fill="#003400"/>
<path d="M25 60H22.5V62.5H25V60Z" fill="#003400"/>
<path d="M27.5 60H25V62.5H27.5V60Z" fill="#007700"/>
<path d="M55 60H52.5V62.5H55V60Z" fill="#009000"/>
<path d="M57.5 60H55V62.5H57.5V60Z" fill="#003400"/>
<path d="M27.5 62.5H22.5V80H27.5V62.5Z" fill="#005400"/>
<path d="M30 62.5H27.5V65H30V62.5Z" fill="#007700"/>
<path d="M32.5 62.5H30V65H32.5V62.5Z" fill="#005400"/>
<path d="M40 62.5H37.5V70H40V62.5Z" fill="#007700"/>
<path d="M50 62.5H47.5V65H50V62.5Z" fill="#005400"/>
<path d="M52.5 62.5H50V65H52.5V62.5Z" fill="#009000"/>
<path d="M57.5 62.5H52.5V80H57.5V62.5Z" fill="#005400"/>
<path d="M30 65H27.5V80H30V65Z" fill="#005400"/>
<path d="M32.5 65H30V67.5H32.5V65Z" fill="#007700"/>
<path d="M37.5 65H35V72.5H37.5V65Z" fill="#007700"/>
<path d="M45 65H42.5V70H45V65Z" fill="#006D00"/>
<path d="M50 65H47.5V67.5H50V65Z" fill="#009000"/>
<path d="M52.5 65H50V80H52.5V65Z" fill="#005400"/>
<path d="M32.5 67.5H30V80H32.5V67.5Z" fill="#005400"/>
<path d="M35 67.5H32.5V70H35V67.5Z" fill="#007700"/>
<path d="M42.5 67.5H40V75H42.5V67.5Z" fill="#009000"/>
<path d="M47.5 67.5H45V70H47.5V67.5Z" fill="#009000"/>
<path d="M50 67.5H47.5V80H50V67.5Z" fill="#005400"/>
<path d="M35 70H32.5V80H35V70Z" fill="#005400"/>
<path d="M40 70H37.5V75H40V70Z" fill="#009000"/>
<path d="M45 70H42.5V72.5H45V70Z" fill="#009000"/>
<path d="M47.5 70H45V80H47.5V70Z" fill="#005400"/>
<path d="M37.5 72.5H35V80H37.5V72.5Z" fill="#005400"/>
<path d="M45 72.5H42.5V80H45V72.5Z" fill="#005400"/>
<path d="M42.5 75H37.5V80H42.5V75Z" fill="#005400"/>
</svg>
