<svg width="80" height="80" viewBox="0 0 80 80" fill="none" xmlns="http://www.w3.org/2000/svg">
<path d="M80 0H0V2.5H80V0Z" fill="#003400"/>
<path d="M47.5 2.5H0V5H47.5V2.5Z" fill="#003400"/>
<path d="M50 2.5H47.5V5H50V2.5Z" fill="#003C00"/>
<path d="M72.5 2.5H50V5H72.5V2.5Z" fill="#003400"/>
<path d="M75 2.5H72.5V5H75V2.5Z" fill="#003C00"/>
<path d="M80 2.5H75V5H80V2.5Z" fill="#003400"/>
<path d="M45 5H0V7.5H45V5Z" fill="#003400"/>
<path d="M47.5 5H45V7.5H47.5V5Z" fill="#003C00"/>
<path d="M50 5H47.5V7.5H50V5Z" fill="#005400"/>
<path d="M70 5H50V7.5H70V5Z" fill="#003400"/>
<path d="M72.5 5H70V7.5H72.5V5Z" fill="#003C00"/>
<path d="M75 5H72.5V7.5H75V5Z" fill="#005400"/>
<path d="M77.5 5H75V7.5H77.5V5Z" fill="#003400"/>
<path d="M80 5H77.5V10H80V5Z" fill="#003C00"/>
<path d="M12.5 7.5H0V10H12.5V7.5Z" fill="#003400"/>
<path d="M15 7.5H12.5V10H15V7.5Z" fill="#003C00"/>
<path d="M25 7.5H15V10H25V7.5Z" fill="#003400"/>
<path d="M27.5 7.5H25V10H27.5V7.5Z" fill="#003C00"/>
<path d="M42.5 7.5H27.5V10H42.5V7.5Z" fill="#003400"/>
<path d="M45 7.5H42.5V10H45V7.5Z" fill="#003C00"/>
<path d="M47.5 7.5H45V10H47.5V7.5Z" fill="#005400"/>
<path d="M50 7.5H47.5V10H50V7.5Z" fill="#4CD800"/>
<path d="M52.5 7.5H50V10H52.5V7.5Z" fill="#005400"/>
<path d="M55 7.5H52.5V10H55V7.5Z" fill="#003C00"/>
<path d="M67.5 7.5H55V10H67.5V7.5Z" fill="#003400"/>
<path d="M70 7.5H67.5V10H70V7.5Z" fill="#003C00"/>
<path d="M72.5 7.5H70V10H72.5V7.5Z" fill="#005400"/>
<path d="M75 7.5H72.5V10H75V7.5Z" fill="#4CD800"/>
<path d="M77.5 7.5H75V10H77.5V7.5Z" fill="#005400"/>
<path d="M10 10H0V12.5H10V10Z" fill="#003400"/>
<path d="M12.5 10H10V12.5H12.5V10Z" fill="#003C00"/>
<path d="M15 10H12.5V12.5H15V10Z" fill="#005400"/>
<path d="M17.5 10H15V12.5H17.5V10Z" fill="#003400"/>
<path d="M20 10H17.5V17.5H20V10Z" fill="#003C00"/>
<path d="M22.5 10H20V12.5H22.5V10Z" fill="#003400"/>
<path d="M25 10H22.5V12.5H25V10Z" fill="#003C00"/>
<path d="M27.5 10H25V12.5H27.5V10Z" fill="#005400"/>
<path d="M40 10H27.5V12.5H40V10Z" fill="#003400"/>
<path d="M42.5 10H40V12.5H42.5V10Z" fill="#003C00"/>
<path d="M45 10H42.5V12.5H45V10Z" fill="#005400"/>
<path d="M47.5 10H45V12.5H47.5V10Z" fill="#4CD800"/>
<path d="M50 10H47.5V12.5H50V10Z" fill="#005400"/>
<path d="M52.5 10H50V12.5H52.5V10Z" fill="#003C00"/>
<path d="M65 10H52.5V12.5H65V10Z" fill="#003400"/>
<path d="M67.5 10H65V12.5H67.5V10Z" fill="#003C00"/>
<path d="M70 10H67.5V12.5H70V10Z" fill="#005400"/>
<path d="M72.5 10H70V12.5H72.5V10Z" fill="#4CD800"/>
<path d="M75 10H72.5V12.5H75V10Z" fill="#005400"/>
<path d="M77.5 10H75V12.5H77.5V10Z" fill="#003C00"/>
<path d="M80 10H77.5V80H80V10Z" fill="#003400"/>
<path d="M7.5 12.5H0V15H7.5V12.5Z" fill="#003400"/>
<path d="M10 12.5H7.5V15H10V12.5Z" fill="#003C00"/>
<path d="M12.5 12.5H10V15H12.5V12.5Z" fill="#005400"/>
<path d="M15 12.5H12.5V15H15V12.5Z" fill="#4CD800"/>
<path d="M17.5 12.5H15V15H17.5V12.5Z" fill="#005400"/>
<path d="M22.5 12.5H20V15H22.5V12.5Z" fill="#003C00"/>
<path d="M25 12.5H22.5V15H25V12.5Z" fill="#005400"/>
<path d="M27.5 12.5H25V15H27.5V12.5Z" fill="#006D00"/>
<path d="M30 12.5H27.5V15H30V12.5Z" fill="#005400"/>
<path d="M32.5 12.5H30V15H32.5V12.5Z" fill="#003C00"/>
<path d="M37.5 12.5H32.5V15H37.5V12.5Z" fill="#003400"/>
<path d="M40 12.5H37.5V15H40V12.5Z" fill="#003C00"/>
<path d="M42.5 12.5H40V15H42.5V12.5Z" fill="#005400"/>
<path d="M45 12.5H42.5V15H45V12.5Z" fill="#4CD800"/>
<path d="M47.5 12.5H45V15H47.5V12.5Z" fill="#005400"/>
<path d="M50 12.5H47.5V15H50V12.5Z" fill="#003C00"/>
<path d="M62.5 12.5H50V15H62.5V12.5Z" fill="#003400"/>
<path d="M65 12.5H62.5V15H65V12.5Z" fill="#003C00"/>
<path d="M67.5 12.5H65V15H67.5V12.5Z" fill="#005400"/>
<path d="M70 12.5H67.5V15H70V12.5Z" fill="#006D00"/>
<path d="M72.5 12.5H70V15H72.5V12.5Z" fill="#005400"/>
<path d="M75 12.5H72.5V15H75V12.5Z" fill="#003C00"/>
<path d="M77.5 12.5H75V37.5H77.5V12.5Z" fill="#003400"/>
<path d="M5 15H0V17.5H5V15Z" fill="#003400"/>
<path d="M7.5 15H5V17.5H7.5V15Z" fill="#003C00"/>
<path d="M10 15H7.5V17.5H10V15Z" fill="#005400"/>
<path d="M12.5 15H10V17.5H12.5V15Z" fill="#4CD800"/>
<path d="M15 15H12.5V17.5H15V15Z" fill="#005400"/>
<path d="M17.5 15H15V20H17.5V15Z" fill="#003C00"/>
<path d="M22.5 15H20V17.5H22.5V15Z" fill="#005400"/>
<path d="M25 15H22.5V17.5H25V15Z" fill="#4CD800"/>
<path d="M27.5 15H25V17.5H27.5V15Z" fill="#005400"/>
<path d="M30 15H27.5V17.5H30V15Z" fill="#003C00"/>
<path d="M35 15H30V17.5H35V15Z" fill="#003400"/>
<path d="M37.5 15H35V17.5H37.5V15Z" fill="#003C00"/>
<path d="M40 15H37.5V17.5H40V15Z" fill="#005400"/>
<path d="M42.5 15H40V17.5H42.5V15Z" fill="#006D00"/>
<path d="M45 15H42.5V17.5H45V15Z" fill="#005400"/>
<path d="M47.5 15H45V17.5H47.5V15Z" fill="#003C00"/>
<path d="M60 15H47.5V17.5H60V15Z" fill="#003400"/>
<path d="M62.5 15H60V17.5H62.5V15Z" fill="#003C00"/>
<path d="M65 15H62.5V17.5H65V15Z" fill="#005400"/>
<path d="M67.5 15H65V17.5H67.5V15Z" fill="#4CD800"/>
<path d="M70 15H67.5V17.5H70V15Z" fill="#005400"/>
<path d="M72.5 15H70V17.5H72.5V15Z" fill="#003C00"/>
<path d="M75 15H72.5V37.5H75V15Z" fill="#003400"/>
<path d="M2.5 17.5H0V20H2.5V17.5Z" fill="#003400"/>
<path d="M5 17.5H2.5V20H5V17.5Z" fill="#003C00"/>
<path d="M7.5 17.5H5V20H7.5V17.5Z" fill="#005400"/>
<path d="M10 17.5H7.5V20H10V17.5Z" fill="#006D00"/>
<path d="M12.5 17.5H10V20H12.5V17.5Z" fill="#005400"/>
<path d="M15 17.5H12.5V22.5H15V17.5Z" fill="#003C00"/>
<path d="M20 17.5H17.5V20H20V17.5Z" fill="#005400"/>
<path d="M22.5 17.5H20V20H22.5V17.5Z" fill="#4CD800"/>
<path d="M25 17.5H22.5V20H25V17.5Z" fill="#005400"/>
<path d="M27.5 17.5H25V20H27.5V17.5Z" fill="#003C00"/>
<path d="M32.5 17.5H27.5V20H32.5V17.5Z" fill="#003400"/>
<path d="M35 17.5H32.5V20H35V17.5Z" fill="#003C00"/>
<path d="M37.5 17.5H35V20H37.5V17.5Z" fill="#005400"/>
<path d="M40 17.5H37.5V20H40V17.5Z" fill="#4CD800"/>
<path d="M42.5 17.5H40V20H42.5V17.5Z" fill="#005400"/>
<path d="M45 17.5H42.5V20H45V17.5Z" fill="#003C00"/>
<path d="M57.5 17.5H45V20H57.5V17.5Z" fill="#003400"/>
<path d="M60 17.5H57.5V20H60V17.5Z" fill="#003C00"/>
<path d="M62.5 17.5H60V20H62.5V17.5Z" fill="#005400"/>
<path d="M65 17.5H62.5V20H65V17.5Z" fill="#4CD800"/>
<path d="M67.5 17.5H65V20H67.5V17.5Z" fill="#005400"/>
<path d="M70 17.5H67.5V20H70V17.5Z" fill="#003C00"/>
<path d="M72.5 17.5H70V32.5H72.5V17.5Z" fill="#003400"/>
<path d="M2.5 20H0V22.5H2.5V20Z" fill="#003C00"/>
<path d="M5 20H2.5V22.5H5V20Z" fill="#005400"/>
<path d="M7.5 20H5V22.5H7.5V20Z" fill="#4CD800"/>
<path d="M10 20H7.5V22.5H10V20Z" fill="#005400"/>
<path d="M12.5 20H10V25H12.5V20Z" fill="#003C00"/>
<path d="M17.5 20H15V22.5H17.5V20Z" fill="#005400"/>
<path d="M20 20H17.5V22.5H20V20Z" fill="#006D00"/>
<path d="M22.5 20H20V22.5H22.5V20Z" fill="#005400"/>
<path d="M25 20H22.5V22.5H25V20Z" fill="#003C00"/>
<path d="M30 20H25V27.5H30V20Z" fill="#003400"/>
<path d="M32.5 20H30V22.5H32.5V20Z" fill="#003C00"/>
<path d="M35 20H32.5V22.5H35V20Z" fill="#005400"/>
<path d="M37.5 20H35V22.5H37.5V20Z" fill="#4CD800"/>
<path d="M40 20H37.5V22.5H40V20Z" fill="#005400"/>
<path d="M42.5 20H40V25H42.5V20Z" fill="#003C00"/>
<path d="M55 20H42.5V22.5H55V20Z" fill="#003400"/>
<path d="M57.5 20H55V40H57.5V20Z" fill="#003C00"/>
<path d="M60 20H57.5V22.5H60V20Z" fill="#005400"/>
<path d="M62.5 20H60V22.5H62.5V20Z" fill="#4CD800"/>
<path d="M65 20H62.5V22.5H65V20Z" fill="#005400"/>
<path d="M67.5 20H65V22.5H67.5V20Z" fill="#003C00"/>
<path d="M70 20H67.5V35H70V20Z" fill="#003400"/>
<path d="M2.5 22.5H0V25H2.5V22.5Z" fill="#005400"/>
<path d="M5 22.5H2.5V25H5V22.5Z" fill="#006D00"/>
<path d="M7.5 22.5H5V25H7.5V22.5Z" fill="#005400"/>
<path d="M10 22.5H7.5V27.5H10V22.5Z" fill="#003C00"/>
<path d="M15 22.5H12.5V25H15V22.5Z" fill="#005400"/>
<path d="M17.5 22.5H15V25H17.5V22.5Z" fill="#4CD800"/>
<path d="M20 22.5H17.5V25H20V22.5Z" fill="#005400"/>
<path d="M22.5 22.5H20V25H22.5V22.5Z" fill="#003C00"/>
<path d="M25 22.5H22.5V32.5H25V22.5Z" fill="#003400"/>
<path d="M35 22.5H30V25H35V22.5Z" fill="#003400"/>
<path d="M37.5 22.5H35V25H37.5V22.5Z" fill="#005400"/>
<path d="M40 22.5H37.5V27.5H40V22.5Z" fill="#003C00"/>
<path d="M55 22.5H42.5V25H55V22.5Z" fill="#003C00"/>
<path d="M60 22.5H57.5V45H60V22.5Z" fill="#003400"/>
<path d="M62.5 22.5H60V25H62.5V22.5Z" fill="#005400"/>
<path d="M65 22.5H62.5V25H65V22.5Z" fill="#003C00"/>
<path d="M67.5 22.5H65V37.5H67.5V22.5Z" fill="#003400"/>
<path d="M2.5 25H0V27.5H2.5V25Z" fill="#4CD800"/>
<path d="M5 25H2.5V27.5H5V25Z" fill="#005400"/>
<path d="M7.5 25H5V27.5H7.5V25Z" fill="#003C00"/>
<path d="M12.5 25H10V27.5H12.5V25Z" fill="#005400"/>
<path d="M15 25H12.5V27.5H15V25Z" fill="#006D00"/>
<path d="M17.5 25H15V27.5H17.5V25Z" fill="#005400"/>
<path d="M20 25H17.5V27.5H20V25Z" fill="#003C00"/>
<path d="M22.5 25H20V27.5H22.5V25Z" fill="#003400"/>
<path d="M32.5 25H30V27.5H32.5V25Z" fill="#003400"/>
<path d="M37.5 25H32.5V27.5H37.5V25Z" fill="#003C00"/>
<path d="M55 25H40V27.5H55V25Z" fill="#005400"/>
<path d="M62.5 25H60V27.5H62.5V25Z" fill="#003C00"/>
<path d="M65 25H62.5V40H65V25Z" fill="#003400"/>
<path d="M2.5 27.5H0V30H2.5V27.5Z" fill="#005400"/>
<path d="M5 27.5H2.5V30H5V27.5Z" fill="#003C00"/>
<path d="M12.5 27.5H5V37.5H12.5V27.5Z" fill="#003400"/>
<path d="M15 27.5H12.5V30H15V27.5Z" fill="#005400"/>
<path d="M17.5 27.5H15V30H17.5V27.5Z" fill="#003C00"/>
<path d="M20 27.5H17.5V30H20V27.5Z" fill="#003400"/>
<path d="M22.5 27.5H20V30H22.5V27.5Z" fill="#003C00"/>
<path d="M27.5 27.5H25V32.5H27.5V27.5Z" fill="#003400"/>
<path d="M32.5 27.5H27.5V30H32.5V27.5Z" fill="#003C00"/>
<path d="M40 27.5H32.5V30H40V27.5Z" fill="#005400"/>
<path d="M52.5 27.5H40V30H52.5V27.5Z" fill="#006D00"/>
<path d="M55 27.5H52.5V40H55V27.5Z" fill="#005400"/>
<path d="M62.5 27.5H60V42.5H62.5V27.5Z" fill="#003400"/>
<path d="M2.5 30H0V32.5H2.5V30Z" fill="#003C00"/>
<path d="M5 30H2.5V45H5V30Z" fill="#003400"/>
<path d="M15 30H12.5V32.5H15V30Z" fill="#003C00"/>
<path d="M17.5 30H15V32.5H17.5V30Z" fill="#003400"/>
<path d="M20 30H17.5V32.5H20V30Z" fill="#003C00"/>
<path d="M22.5 30H20V32.5H22.5V30Z" fill="#005400"/>
<path d="M30 30H27.5V37.5H30V30Z" fill="#003C00"/>
<path d="M32.5 30H30V37.5H32.5V30Z" fill="#005400"/>
<path d="M42.5 30H32.5V32.5H42.5V30Z" fill="#006D00"/>
<path d="M47.5 30H42.5V32.5H47.5V30Z" fill="#4CD800"/>
<path d="M50 30H47.5V32.5H50V30Z" fill="#CEED54"/>
<path d="M52.5 30H50V40H52.5V30Z" fill="#006D00"/>
<path d="M2.5 32.5H0V47.5H2.5V32.5Z" fill="#003400"/>
<path d="M15 32.5H12.5V35H15V32.5Z" fill="#003400"/>
<path d="M17.5 32.5H15V35H17.5V32.5Z" fill="#003C00"/>
<path d="M20 32.5H17.5V35H20V32.5Z" fill="#005400"/>
<path d="M22.5 32.5H20V35H22.5V32.5Z" fill="#4CD800"/>
<path d="M25 32.5H22.5V35H25V32.5Z" fill="#005400"/>
<path d="M27.5 32.5H25V35H27.5V32.5Z" fill="#003C00"/>
<path d="M35 32.5H32.5V40H35V32.5Z" fill="#006D00"/>
<path d="M37.5 32.5H35V35H37.5V32.5Z" fill="#CEED54"/>
<path d="M42.5 32.5H37.5V35H42.5V32.5Z" fill="#4CD800"/>
<path d="M47.5 32.5H42.5V35H47.5V32.5Z" fill="#CEED54"/>
<path d="M50 32.5H47.5V37.5H50V32.5Z" fill="#4CD800"/>
<path d="M72.5 32.5H70V35H72.5V32.5Z" fill="#003C00"/>
<path d="M15 35H12.5V37.5H15V35Z" fill="#003C00"/>
<path d="M17.5 35H15V37.5H17.5V35Z" fill="#005400"/>
<path d="M20 35H17.5V37.5H20V35Z" fill="#4CD800"/>
<path d="M22.5 35H20V37.5H22.5V35Z" fill="#005400"/>
<path d="M25 35H22.5V37.5H25V35Z" fill="#003C00"/>
<path d="M27.5 35H25V37.5H27.5V35Z" fill="#003400"/>
<path d="M37.5 35H35V42.5H37.5V35Z" fill="#4CD800"/>
<path d="M42.5 35H37.5V37.5H42.5V35Z" fill="#CEED54"/>
<path d="M45 35H42.5V37.5H45V35Z" fill="#88E500"/>
<path d="M47.5 35H45V37.5H47.5V35Z" fill="#CEED54"/>
<path d="M70 35H67.5V37.5H70V35Z" fill="#003C00"/>
<path d="M72.5 35H70V37.5H72.5V35Z" fill="#005400"/>
<path d="M10 37.5H5V40H10V37.5Z" fill="#003400"/>
<path d="M12.5 37.5H10V40H12.5V37.5Z" fill="#003C00"/>
<path d="M15 37.5H12.5V40H15V37.5Z" fill="#005400"/>
<path d="M17.5 37.5H15V40H17.5V37.5Z" fill="#4CD800"/>
<path d="M20 37.5H17.5V40H20V37.5Z" fill="#005400"/>
<path d="M22.5 37.5H20V40H22.5V37.5Z" fill="#003C00"/>
<path d="M25 37.5H22.5V42.5H25V37.5Z" fill="#003400"/>
<path d="M27.5 37.5H25V45H27.5V37.5Z" fill="#003C00"/>
<path d="M30 37.5H27.5V45H30V37.5Z" fill="#005400"/>
<path d="M32.5 37.5H30V45H32.5V37.5Z" fill="#006D00"/>
<path d="M40 37.5H37.5V40H40V37.5Z" fill="#CEED54"/>
<path d="M42.5 37.5H40V40H42.5V37.5Z" fill="#88E500"/>
<path d="M45 37.5H42.5V42.5H45V37.5Z" fill="#CEED54"/>
<path d="M47.5 37.5H45V42.5H47.5V37.5Z" fill="#4CD800"/>
<path d="M50 37.5H47.5V47.5H50V37.5Z" fill="#006D00"/>
<path d="M67.5 37.5H65V40H67.5V37.5Z" fill="#003C00"/>
<path d="M70 37.5H67.5V40H70V37.5Z" fill="#005400"/>
<path d="M72.5 37.5H70V40H72.5V37.5Z" fill="#006D00"/>
<path d="M75 37.5H72.5V40H75V37.5Z" fill="#005400"/>
<path d="M77.5 37.5H75V40H77.5V37.5Z" fill="#003C00"/>
<path d="M7.5 40H5V42.5H7.5V40Z" fill="#003400"/>
<path d="M10 40H7.5V42.5H10V40Z" fill="#003C00"/>
<path d="M12.5 40H10V42.5H12.5V40Z" fill="#005400"/>
<path d="M15 40H12.5V42.5H15V40Z" fill="#4CD800"/>
<path d="M17.5 40H15V42.5H17.5V40Z" fill="#005400"/>
<path d="M20 40H17.5V42.5H20V40Z" fill="#003C00"/>
<path d="M22.5 40H20V47.5H22.5V40Z" fill="#003400"/>
<path d="M35 40H32.5V42.5H35V40Z" fill="#88E500"/>
<path d="M40 40H37.5V42.5H40V40Z" fill="#88E500"/>
<path d="M42.5 40H40V42.5H42.5V40Z" fill="#CEED54"/>
<path d="M52.5 40H50V47.5H52.5V40Z" fill="#005400"/>
<path d="M55 40H52.5V50H55V40Z" fill="#003C00"/>
<path d="M57.5 40H55V47.5H57.5V40Z" fill="#003400"/>
<path d="M65 40H62.5V42.5H65V40Z" fill="#003C00"/>
<path d="M67.5 40H65V42.5H67.5V40Z" fill="#005400"/>
<path d="M70 40H67.5V42.5H70V40Z" fill="#006D00"/>
<path d="M72.5 40H70V42.5H72.5V40Z" fill="#005400"/>
<path d="M75 40H72.5V42.5H75V40Z" fill="#003C00"/>
<path d="M77.5 40H75V80H77.5V40Z" fill="#003400"/>
<path d="M7.5 42.5H5V45H7.5V42.5Z" fill="#003C00"/>
<path d="M10 42.5H7.5V45H10V42.5Z" fill="#005400"/>
<path d="M12.5 42.5H10V45H12.5V42.5Z" fill="#006D00"/>
<path d="M15 42.5H12.5V45H15V42.5Z" fill="#005400"/>
<path d="M17.5 42.5H15V45H17.5V42.5Z" fill="#003C00"/>
<path d="M20 42.5H17.5V52.5H20V42.5Z" fill="#003400"/>
<path d="M25 42.5H22.5V47.5H25V42.5Z" fill="#003C00"/>
<path d="M35 42.5H32.5V45H35V42.5Z" fill="#4CD800"/>
<path d="M37.5 42.5H35V45H37.5V42.5Z" fill="#CEED54"/>
<path d="M45 42.5H37.5V45H45V42.5Z" fill="#4CD800"/>
<path d="M47.5 42.5H45V45H47.5V42.5Z" fill="#CEED54"/>
<path d="M62.5 42.5H60V45H62.5V42.5Z" fill="#003C00"/>
<path d="M65 42.5H62.5V45H65V42.5Z" fill="#005400"/>
<path d="M67.5 42.5H65V45H67.5V42.5Z" fill="#4CD800"/>
<path d="M70 42.5H67.5V45H70V42.5Z" fill="#005400"/>
<path d="M72.5 42.5H70V45H72.5V42.5Z" fill="#003C00"/>
<path d="M75 42.5H72.5V80H75V42.5Z" fill="#003400"/>
<path d="M5 45H2.5V47.5H5V45Z" fill="#003C00"/>
<path d="M7.5 45H5V47.5H7.5V45Z" fill="#005400"/>
<path d="M10 45H7.5V47.5H10V45Z" fill="#4CD800"/>
<path d="M12.5 45H10V47.5H12.5V45Z" fill="#005400"/>
<path d="M15 45H12.5V47.5H15V45Z" fill="#003C00"/>
<path d="M17.5 45H15V55H17.5V45Z" fill="#003400"/>
<path d="M27.5 45H25V47.5H27.5V45Z" fill="#005400"/>
<path d="M30 45H27.5V47.5H30V45Z" fill="#006D00"/>
<path d="M32.5 45H30V47.5H32.5V45Z" fill="#4CD800"/>
<path d="M35 45H32.5V47.5H35V45Z" fill="#CEED54"/>
<path d="M37.5 45H35V47.5H37.5V45Z" fill="#4CD800"/>
<path d="M40 45H37.5V47.5H40V45Z" fill="#88E500"/>
<path d="M47.5 45H40V47.5H47.5V45Z" fill="#006D00"/>
<path d="M60 45H57.5V47.5H60V45Z" fill="#003C00"/>
<path d="M62.5 45H60V47.5H62.5V45Z" fill="#005400"/>
<path d="M65 45H62.5V47.5H65V45Z" fill="#4CD800"/>
<path d="M67.5 45H65V47.5H67.5V45Z" fill="#005400"/>
<path d="M70 45H67.5V47.5H70V45Z" fill="#003C00"/>
<path d="M72.5 45H70V60H72.5V45Z" fill="#003400"/>
<path d="M2.5 47.5H0V50H2.5V47.5Z" fill="#003C00"/>
<path d="M5 47.5H2.5V50H5V47.5Z" fill="#005400"/>
<path d="M7.5 47.5H5V50H7.5V47.5Z" fill="#4CD800"/>
<path d="M10 47.5H7.5V50H10V47.5Z" fill="#005400"/>
<path d="M12.5 47.5H10V50H12.5V47.5Z" fill="#003C00"/>
<path d="M15 47.5H12.5V60H15V47.5Z" fill="#003400"/>
<path d="M22.5 47.5H20V52.5H22.5V47.5Z" fill="#003C00"/>
<path d="M25 47.5H22.5V52.5H25V47.5Z" fill="#005400"/>
<path d="M27.5 47.5H25V50H27.5V47.5Z" fill="#006D00"/>
<path d="M30 47.5H27.5V50H30V47.5Z" fill="#4CD800"/>
<path d="M32.5 47.5H30V50H32.5V47.5Z" fill="#CEED54"/>
<path d="M35 47.5H32.5V50H35V47.5Z" fill="#4CD800"/>
<path d="M42.5 47.5H35V50H42.5V47.5Z" fill="#006D00"/>
<path d="M50 47.5H42.5V50H50V47.5Z" fill="#005400"/>
<path d="M52.5 47.5H50V52.5H52.5V47.5Z" fill="#003C00"/>
<path d="M57.5 47.5H55V50H57.5V47.5Z" fill="#003C00"/>
<path d="M60 47.5H57.5V50H60V47.5Z" fill="#005400"/>
<path d="M62.5 47.5H60V50H62.5V47.5Z" fill="#4CD800"/>
<path d="M65 47.5H62.5V50H65V47.5Z" fill="#005400"/>
<path d="M67.5 47.5H65V50H67.5V47.5Z" fill="#003C00"/>
<path d="M70 47.5H67.5V60H70V47.5Z" fill="#003400"/>
<path d="M2.5 50H0V52.5H2.5V50Z" fill="#005400"/>
<path d="M5 50H2.5V52.5H5V50Z" fill="#006D00"/>
<path d="M7.5 50H5V52.5H7.5V50Z" fill="#005400"/>
<path d="M10 50H7.5V52.5H10V50Z" fill="#003C00"/>
<path d="M12.5 50H10V62.5H12.5V50Z" fill="#003400"/>
<path d="M27.5 50H25V52.5H27.5V50Z" fill="#4CD800"/>
<path d="M30 50H27.5V52.5H30V50Z" fill="#CEED54"/>
<path d="M32.5 50H30V52.5H32.5V50Z" fill="#4CD800"/>
<path d="M35 50H32.5V52.5H35V50Z" fill="#006D00"/>
<path d="M42.5 50H35V52.5H42.5V50Z" fill="#005400"/>
<path d="M50 50H42.5V52.5H50V50Z" fill="#003C00"/>
<path d="M57.5 50H52.5V52.5H57.5V50Z" fill="#005400"/>
<path d="M60 50H57.5V52.5H60V50Z" fill="#006D00"/>
<path d="M62.5 50H60V52.5H62.5V50Z" fill="#005400"/>
<path d="M65 50H62.5V52.5H65V50Z" fill="#003C00"/>
<path d="M67.5 50H65V55H67.5V50Z" fill="#003400"/>
<path d="M2.5 52.5H0V55H2.5V52.5Z" fill="#006D00"/>
<path d="M5 52.5H2.5V55H5V52.5Z" fill="#005400"/>
<path d="M7.5 52.5H5V55H7.5V52.5Z" fill="#003C00"/>
<path d="M10 52.5H7.5V65H10V52.5Z" fill="#003400"/>
<path d="M20 52.5H17.5V55H20V52.5Z" fill="#003C00"/>
<path d="M22.5 52.5H20V55H22.5V52.5Z" fill="#005400"/>
<path d="M25 52.5H22.5V55H25V52.5Z" fill="#4CD800"/>
<path d="M27.5 52.5H25V55H27.5V52.5Z" fill="#CEED54"/>
<path d="M30 52.5H27.5V55H30V52.5Z" fill="#4CD800"/>
<path d="M32.5 52.5H30V55H32.5V52.5Z" fill="#006D00"/>
<path d="M35 52.5H32.5V55H35V52.5Z" fill="#005400"/>
<path d="M42.5 52.5H35V55H42.5V52.5Z" fill="#003C00"/>
<path d="M47.5 52.5H42.5V55H47.5V52.5Z" fill="#003400"/>
<path d="M50 52.5H47.5V55H50V52.5Z" fill="#003C00"/>
<path d="M52.5 52.5H50V55H52.5V52.5Z" fill="#005400"/>
<path d="M55 52.5H52.5V55H55V52.5Z" fill="#006D00"/>
<path d="M60 52.5H55V55H60V52.5Z" fill="#005400"/>
<path d="M62.5 52.5H60V55H62.5V52.5Z" fill="#003C00"/>
<path d="M65 52.5H62.5V57.5H65V52.5Z" fill="#003400"/>
<path d="M2.5 55H0V57.5H2.5V55Z" fill="#005400"/>
<path d="M5 55H2.5V57.5H5V55Z" fill="#003C00"/>
<path d="M7.5 55H5V67.5H7.5V55Z" fill="#003400"/>
<path d="M17.5 55H15V57.5H17.5V55Z" fill="#003C00"/>
<path d="M20 55H17.5V57.5H20V55Z" fill="#005400"/>
<path d="M22.5 55H20V57.5H22.5V55Z" fill="#4CD800"/>
<path d="M25 55H22.5V57.5H25V55Z" fill="#CEED54"/>
<path d="M27.5 55H25V57.5H27.5V55Z" fill="#4CD800"/>
<path d="M32.5 55H27.5V57.5H32.5V55Z" fill="#005400"/>
<path d="M37.5 55H32.5V57.5H37.5V55Z" fill="#003400"/>
<path d="M40 55H37.5V57.5H40V55Z" fill="#003C00"/>
<path d="M45 55H40V57.5H45V55Z" fill="#003400"/>
<path d="M47.5 55H45V57.5H47.5V55Z" fill="#003C00"/>
<path d="M50 55H47.5V57.5H50V55Z" fill="#005400"/>
<path d="M52.5 55H50V57.5H52.5V55Z" fill="#006D00"/>
<path d="M55 55H52.5V57.5H55V55Z" fill="#005400"/>
<path d="M60 55H55V57.5H60V55Z" fill="#003C00"/>
<path d="M62.5 55H60V60H62.5V55Z" fill="#003400"/>
<path d="M67.5 55H65V57.5H67.5V55Z" fill="#003C00"/>
<path d="M2.5 57.5H0V60H2.5V57.5Z" fill="#003C00"/>
<path d="M5 57.5H2.5V70H5V57.5Z" fill="#003400"/>
<path d="M17.5 57.5H15V60H17.5V57.5Z" fill="#005400"/>
<path d="M20 57.5H17.5V60H20V57.5Z" fill="#4CD800"/>
<path d="M22.5 57.5H20V60H22.5V57.5Z" fill="#88E500"/>
<path d="M25 57.5H22.5V60H25V57.5Z" fill="#4CD800"/>
<path d="M27.5 57.5H25V60H27.5V57.5Z" fill="#005400"/>
<path d="M35 57.5H27.5V60H35V57.5Z" fill="#003400"/>
<path d="M37.5 57.5H35V60H37.5V57.5Z" fill="#003C00"/>
<path d="M40 57.5H37.5V60H40V57.5Z" fill="#005400"/>
<path d="M42.5 57.5H40V60H42.5V57.5Z" fill="#003400"/>
<path d="M45 57.5H42.5V60H45V57.5Z" fill="#003C00"/>
<path d="M47.5 57.5H45V60H47.5V57.5Z" fill="#005400"/>
<path d="M50 57.5H47.5V60H50V57.5Z" fill="#006D00"/>
<path d="M52.5 57.5H50V60H52.5V57.5Z" fill="#005400"/>
<path d="M55 57.5H52.5V60H55V57.5Z" fill="#003C00"/>
<path d="M60 57.5H55V62.5H60V57.5Z" fill="#003400"/>
<path d="M65 57.5H62.5V60H65V57.5Z" fill="#003C00"/>
<path d="M67.5 57.5H65V60H67.5V57.5Z" fill="#005400"/>
<path d="M2.5 60H0V72.5H2.5V60Z" fill="#003400"/>
<path d="M15 60H12.5V62.5H15V60Z" fill="#003C00"/>
<path d="M17.5 60H15V62.5H17.5V60Z" fill="#4CD800"/>
<path d="M20 60H17.5V62.5H20V60Z" fill="#88E500"/>
<path d="M22.5 60H20V62.5H22.5V60Z" fill="#4CD800"/>
<path d="M25 60H22.5V62.5H25V60Z" fill="#005400"/>
<path d="M32.5 60H25V62.5H32.5V60Z" fill="#003400"/>
<path d="M35 60H32.5V62.5H35V60Z" fill="#003C00"/>
<path d="M37.5 60H35V62.5H37.5V60Z" fill="#005400"/>
<path d="M40 60H37.5V62.5H40V60Z" fill="#4CD800"/>
<path d="M45 60H40V62.5H45V60Z" fill="#005400"/>
<path d="M47.5 60H45V62.5H47.5V60Z" fill="#006D00"/>
<path d="M50 60H47.5V62.5H50V60Z" fill="#005400"/>
<path d="M52.5 60H50V62.5H52.5V60Z" fill="#003C00"/>
<path d="M55 60H52.5V67.5H55V60Z" fill="#003400"/>
<path d="M62.5 60H60V62.5H62.5V60Z" fill="#003C00"/>
<path d="M65 60H62.5V62.5H65V60Z" fill="#005400"/>
<path d="M67.5 60H65V62.5H67.5V60Z" fill="#006D00"/>
<path d="M70 60H67.5V62.5H70V60Z" fill="#005400"/>
<path d="M72.5 60H70V62.5H72.5V60Z" fill="#003C00"/>
<path d="M12.5 62.5H10V65H12.5V62.5Z" fill="#003C00"/>
<path d="M15 62.5H12.5V65H15V62.5Z" fill="#4CD800"/>
<path d="M17.5 62.5H15V65H17.5V62.5Z" fill="#88E500"/>
<path d="M20 62.5H17.5V65H20V62.5Z" fill="#4CD800"/>
<path d="M22.5 62.5H20V65H22.5V62.5Z" fill="#005400"/>
<path d="M30 62.5H22.5V65H30V62.5Z" fill="#003400"/>
<path d="M32.5 62.5H30V65H32.5V62.5Z" fill="#003C00"/>
<path d="M35 62.5H32.5V65H35V62.5Z" fill="#005400"/>
<path d="M37.5 62.5H35V65H37.5V62.5Z" fill="#4CD800"/>
<path d="M42.5 62.5H37.5V65H42.5V62.5Z" fill="#005400"/>
<path d="M45 62.5H42.5V65H45V62.5Z" fill="#4CD800"/>
<path d="M47.5 62.5H45V65H47.5V62.5Z" fill="#005400"/>
<path d="M50 62.5H47.5V65H50V62.5Z" fill="#003C00"/>
<path d="M52.5 62.5H50V70H52.5V62.5Z" fill="#003400"/>
<path d="M57.5 62.5H55V65H57.5V62.5Z" fill="#003400"/>
<path d="M60 62.5H57.5V65H60V62.5Z" fill="#003C00"/>
<path d="M62.5 62.5H60V65H62.5V62.5Z" fill="#005400"/>
<path d="M65 62.5H62.5V65H65V62.5Z" fill="#4CD800"/>
<path d="M67.5 62.5H65V65H67.5V62.5Z" fill="#005400"/>
<path d="M70 62.5H67.5V65H70V62.5Z" fill="#003C00"/>
<path d="M72.5 62.5H70V80H72.5V62.5Z" fill="#003400"/>
<path d="M10 65H7.5V67.5H10V65Z" fill="#003C00"/>
<path d="M12.5 65H10V67.5H12.5V65Z" fill="#4CD800"/>
<path d="M15 65H12.5V67.5H15V65Z" fill="#88E500"/>
<path d="M17.5 65H15V67.5H17.5V65Z" fill="#4CD800"/>
<path d="M20 65H17.5V67.5H20V65Z" fill="#005400"/>
<path d="M27.5 65H20V67.5H27.5V65Z" fill="#003400"/>
<path d="M30 65H27.5V67.5H30V65Z" fill="#003C00"/>
<path d="M32.5 65H30V67.5H32.5V65Z" fill="#005400"/>
<path d="M35 65H32.5V67.5H35V65Z" fill="#4CD800"/>
<path d="M37.5 65H35V67.5H37.5V65Z" fill="#005400"/>
<path d="M40 65H37.5V67.5H40V65Z" fill="#003C00"/>
<path d="M42.5 65H40V67.5H42.5V65Z" fill="#4CD800"/>
<path d="M45 65H42.5V67.5H45V65Z" fill="#005400"/>
<path d="M47.5 65H45V67.5H47.5V65Z" fill="#003C00"/>
<path d="M50 65H47.5V72.5H50V65Z" fill="#003400"/>
<path d="M57.5 65H55V67.5H57.5V65Z" fill="#003C00"/>
<path d="M60 65H57.5V67.5H60V65Z" fill="#005400"/>
<path d="M62.5 65H60V67.5H62.5V65Z" fill="#4CD800"/>
<path d="M65 65H62.5V67.5H65V65Z" fill="#005400"/>
<path d="M67.5 65H65V67.5H67.5V65Z" fill="#003C00"/>
<path d="M70 65H67.5V80H70V65Z" fill="#003400"/>
<path d="M7.5 67.5H5V70H7.5V67.5Z" fill="#003C00"/>
<path d="M10 67.5H7.5V70H10V67.5Z" fill="#4CD800"/>
<path d="M12.5 67.5H10V70H12.5V67.5Z" fill="#88E500"/>
<path d="M15 67.5H12.5V70H15V67.5Z" fill="#4CD800"/>
<path d="M17.5 67.5H15V70H17.5V67.5Z" fill="#003C00"/>
<path d="M25 67.5H17.5V70H25V67.5Z" fill="#003400"/>
<path d="M27.5 67.5H25V70H27.5V67.5Z" fill="#003C00"/>
<path d="M30 67.5H27.5V70H30V67.5Z" fill="#005400"/>
<path d="M32.5 67.5H30V70H32.5V67.5Z" fill="#006D00"/>
<path d="M35 67.5H32.5V70H35V67.5Z" fill="#005400"/>
<path d="M37.5 67.5H35V70H37.5V67.5Z" fill="#003C00"/>
<path d="M40 67.5H37.5V80H40V67.5Z" fill="#003400"/>
<path d="M42.5 67.5H40V70H42.5V67.5Z" fill="#005400"/>
<path d="M45 67.5H42.5V70H45V67.5Z" fill="#003C00"/>
<path d="M47.5 67.5H45V75H47.5V67.5Z" fill="#003400"/>
<path d="M55 67.5H52.5V70H55V67.5Z" fill="#003C00"/>
<path d="M57.5 67.5H55V70H57.5V67.5Z" fill="#005400"/>
<path d="M60 67.5H57.5V70H60V67.5Z" fill="#4CD800"/>
<path d="M62.5 67.5H60V70H62.5V67.5Z" fill="#005400"/>
<path d="M65 67.5H62.5V70H65V67.5Z" fill="#003C00"/>
<path d="M67.5 67.5H65V80H67.5V67.5Z" fill="#003400"/>
<path d="M5 70H2.5V72.5H5V70Z" fill="#003C00"/>
<path d="M7.5 70H5V72.5H7.5V70Z" fill="#4CD800"/>
<path d="M10 70H7.5V72.5H10V70Z" fill="#88E500"/>
<path d="M12.5 70H10V72.5H12.5V70Z" fill="#4CD800"/>
<path d="M15 70H12.5V72.5H15V70Z" fill="#003C00"/>
<path d="M22.5 70H15V72.5H22.5V70Z" fill="#003400"/>
<path d="M25 70H22.5V72.5H25V70Z" fill="#003C00"/>
<path d="M27.5 70H25V72.5H27.5V70Z" fill="#005400"/>
<path d="M30 70H27.5V72.5H30V70Z" fill="#4CD800"/>
<path d="M32.5 70H30V72.5H32.5V70Z" fill="#005400"/>
<path d="M35 70H32.5V72.5H35V70Z" fill="#003C00"/>
<path d="M37.5 70H35V80H37.5V70Z" fill="#003400"/>
<path d="M42.5 70H40V72.5H42.5V70Z" fill="#003C00"/>
<path d="M45 70H42.5V77.5H45V70Z" fill="#003400"/>
<path d="M52.5 70H50V72.5H52.5V70Z" fill="#003C00"/>
<path d="M55 70H52.5V72.5H55V70Z" fill="#005400"/>
<path d="M57.5 70H55V72.5H57.5V70Z" fill="#006D00"/>
<path d="M60 70H57.5V72.5H60V70Z" fill="#005400"/>
<path d="M62.5 70H60V72.5H62.5V70Z" fill="#003C00"/>
<path d="M65 70H62.5V80H65V70Z" fill="#003400"/>
<path d="M2.5 72.5H0V75H2.5V72.5Z" fill="#003C00"/>
<path d="M5 72.5H2.5V75H5V72.5Z" fill="#4CD800"/>
<path d="M7.5 72.5H5V75H7.5V72.5Z" fill="#88E500"/>
<path d="M10 72.5H7.5V75H10V72.5Z" fill="#4CD800"/>
<path d="M12.5 72.5H10V75H12.5V72.5Z" fill="#003C00"/>
<path d="M20 72.5H12.5V75H20V72.5Z" fill="#003400"/>
<path d="M22.5 72.5H20V75H22.5V72.5Z" fill="#003C00"/>
<path d="M25 72.5H22.5V75H25V72.5Z" fill="#005400"/>
<path d="M27.5 72.5H25V75H27.5V72.5Z" fill="#006D00"/>
<path d="M30 72.5H27.5V75H30V72.5Z" fill="#005400"/>
<path d="M32.5 72.5H30V75H32.5V72.5Z" fill="#003C00"/>
<path d="M35 72.5H32.5V80H35V72.5Z" fill="#003400"/>
<path d="M42.5 72.5H40V80H42.5V72.5Z" fill="#003400"/>
<path d="M50 72.5H47.5V75H50V72.5Z" fill="#003C00"/>
<path d="M52.5 72.5H50V75H52.5V72.5Z" fill="#005400"/>
<path d="M55 72.5H52.5V75H55V72.5Z" fill="#006D00"/>
<path d="M57.5 72.5H55V75H57.5V72.5Z" fill="#005400"/>
<path d="M60 72.5H57.5V75H60V72.5Z" fill="#003C00"/>
<path d="M62.5 72.5H60V80H62.5V72.5Z" fill="#003400"/>
<path d="M2.5 75H0V77.5H2.5V75Z" fill="#4CD800"/>
<path d="M5 75H2.5V77.5H5V75Z" fill="#88E500"/>
<path d="M7.5 75H5V77.5H7.5V75Z" fill="#4CD800"/>
<path d="M10 75H7.5V77.5H10V75Z" fill="#003C00"/>
<path d="M17.5 75H10V77.5H17.5V75Z" fill="#003400"/>
<path d="M20 75H17.5V77.5H20V75Z" fill="#003C00"/>
<path d="M22.5 75H20V77.5H22.5V75Z" fill="#005400"/>
<path d="M25 75H22.5V77.5H25V75Z" fill="#006D00"/>
<path d="M27.5 75H25V77.5H27.5V75Z" fill="#005400"/>
<path d="M30 75H27.5V77.5H30V75Z" fill="#003C00"/>
<path d="M32.5 75H30V80H32.5V75Z" fill="#003400"/>
<path d="M47.5 75H45V77.5H47.5V75Z" fill="#003C00"/>
<path d="M50 75H47.5V77.5H50V75Z" fill="#005400"/>
<path d="M52.5 75H50V77.5H52.5V75Z" fill="#006D00"/>
<path d="M55 75H52.5V77.5H55V75Z" fill="#005400"/>
<path d="M57.5 75H55V77.5H57.5V75Z" fill="#003C00"/>
<path d="M60 75H57.5V80H60V75Z" fill="#003400"/>
<path d="M2.5 77.5H0V80H2.5V77.5Z" fill="#88E500"/>
<path d="M5 77.5H2.5V80H5V77.5Z" fill="#4CD800"/>
<path d="M7.5 77.5H5V80H7.5V77.5Z" fill="#003C00"/>
<path d="M15 77.5H7.5V80H15V77.5Z" fill="#003400"/>
<path d="M17.5 77.5H15V80H17.5V77.5Z" fill="#003C00"/>
<path d="M20 77.5H17.5V80H20V77.5Z" fill="#005400"/>
<path d="M22.5 77.5H20V80H22.5V77.5Z" fill="#006D00"/>
<path d="M25 77.5H22.5V80H25V77.5Z" fill="#005400"/>
<path d="M27.5 77.5H25V80H27.5V77.5Z" fill="#003C00"/>
<path d="M30 77.5H27.5V80H30V77.5Z" fill="#003400"/>
<path d="M45 77.5H42.5V80H45V77.5Z" fill="#003C00"/>
<path d="M47.5 77.5H45V80H47.5V77.5Z" fill="#005400"/>
<path d="M50 77.5H47.5V80H50V77.5Z" fill="#006D00"/>
<path d="M52.5 77.5H50V80H52.5V77.5Z" fill="#005400"/>
<path d="M55 77.5H52.5V80H55V77.5Z" fill="#003C00"/>
<path d="M57.5 77.5H55V80H57.5V77.5Z" fill="#003400"/>
</svg>
