<svg width="80" height="80" viewBox="0 0 80 80" fill="none" xmlns="http://www.w3.org/2000/svg">
<path d="M2.5 0H0V2.5H2.5V0Z" fill="#F33712"/>
<path d="M15 0H2.5V2.5H15V0Z" fill="#9C1704"/>
<path d="M80 0H15V7.5H80V0Z" fill="#570F0A"/>
<path d="M2.5 2.5H0V15H2.5V2.5Z" fill="#9C1704"/>
<path d="M5 2.5H2.5V5H5V2.5Z" fill="#F33712"/>
<path d="M15 2.5H5V5H15V2.5Z" fill="#9C1704"/>
<path d="M5 5H2.5V15H5V5Z" fill="#9C1704"/>
<path d="M7.5 5H5V7.5H7.5V5Z" fill="#EAB125"/>
<path d="M10 5H7.5V10H10V5Z" fill="#F33712"/>
<path d="M15 5H10V10H15V5Z" fill="#9C1704"/>
<path d="M7.5 7.5H5V10H7.5V7.5Z" fill="#F33712"/>
<path d="M17.5 7.5H15V10H17.5V7.5Z" fill="#9C1704"/>
<path d="M80 7.5H17.5V10H80V7.5Z" fill="#570F0A"/>
<path d="M10 10H5V15H10V10Z" fill="#9C1704"/>
<path d="M15 10H10V15H15V10Z" fill="#EAB125"/>
<path d="M17.5 10H15V25H17.5V10Z" fill="#F33712"/>
<path d="M20 10H17.5V15H20V10Z" fill="#9C1704"/>
<path d="M80 10H20V12.5H80V10Z" fill="#570F0A"/>
<path d="M25 12.5H20V15H25V12.5Z" fill="#9C1704"/>
<path d="M80 12.5H25V15H80V12.5Z" fill="#570F0A"/>
<path d="M7.5 15H0V80H7.5V15Z" fill="#570F0A"/>
<path d="M10 15H7.5V17.5H10V15Z" fill="#9C1704"/>
<path d="M15 15H10V17.5H15V15Z" fill="#F33712"/>
<path d="M25 15H17.5V20H25V15Z" fill="#F33712"/>
<path d="M30 15H25V17.5H30V15Z" fill="#9C1704"/>
<path d="M45 15H30V17.5H45V15Z" fill="#570F0A"/>
<path d="M47.5 15H45V17.5H47.5V15Z" fill="#F33712"/>
<path d="M50 15H47.5V17.5H50V15Z" fill="#9C1704"/>
<path d="M80 15H50V17.5H80V15Z" fill="#570F0A"/>
<path d="M10 17.5H7.5V30H10V17.5Z" fill="#570F0A"/>
<path d="M15 17.5H10V20H15V17.5Z" fill="#9C1704"/>
<path d="M27.5 17.5H25V22.5H27.5V17.5Z" fill="#F33712"/>
<path d="M35 17.5H27.5V20H35V17.5Z" fill="#9C1704"/>
<path d="M45 17.5H35V20H45V17.5Z" fill="#570F0A"/>
<path d="M47.5 17.5H45V20H47.5V17.5Z" fill="#9C1704"/>
<path d="M52.5 17.5H47.5V22.5H52.5V17.5Z" fill="#F33712"/>
<path d="M55 17.5H52.5V20H55V17.5Z" fill="#9C1704"/>
<path d="M80 17.5H55V22.5H80V17.5Z" fill="#570F0A"/>
<path d="M12.5 20H10V30H12.5V20Z" fill="#570F0A"/>
<path d="M15 20H12.5V25H15V20Z" fill="#9C1704"/>
<path d="M20 20H17.5V27.5H20V20Z" fill="#F33712"/>
<path d="M25 20H20V25H25V20Z" fill="#EAB125"/>
<path d="M35 20H27.5V22.5H35V20Z" fill="#F33712"/>
<path d="M37.5 20H35V22.5H37.5V20Z" fill="#9C1704"/>
<path d="M47.5 20H37.5V22.5H47.5V20Z" fill="#570F0A"/>
<path d="M55 20H52.5V25H55V20Z" fill="#F33712"/>
<path d="M32.5 22.5H25V40H32.5V22.5Z" fill="#EAB125"/>
<path d="M37.5 22.5H32.5V27.5H37.5V22.5Z" fill="#F33712"/>
<path d="M42.5 22.5H37.5V25H42.5V22.5Z" fill="#9C1704"/>
<path d="M47.5 22.5H42.5V25H47.5V22.5Z" fill="#570F0A"/>
<path d="M50 22.5H47.5V25H50V22.5Z" fill="#9C1704"/>
<path d="M52.5 22.5H50V25H52.5V22.5Z" fill="#F33712"/>
<path d="M57.5 22.5H55V25H57.5V22.5Z" fill="#9C1704"/>
<path d="M80 22.5H57.5V32.5H80V22.5Z" fill="#570F0A"/>
<path d="M15 25H12.5V32.5H15V25Z" fill="#570F0A"/>
<path d="M17.5 25H15V30H17.5V25Z" fill="#9C1704"/>
<path d="M22.5 25H20V35H22.5V25Z" fill="#F33712"/>
<path d="M25 25H22.5V32.5H25V25Z" fill="#EAB125"/>
<path d="M40 25H37.5V27.5H40V25Z" fill="#F33712"/>
<path d="M47.5 25H40V27.5H47.5V25Z" fill="#9C1704"/>
<path d="M52.5 25H47.5V27.5H52.5V25Z" fill="#570F0A"/>
<path d="M55 25H52.5V35H55V25Z" fill="#9C1704"/>
<path d="M57.5 25H55V27.5H57.5V25Z" fill="#F33712"/>
<path d="M20 27.5H17.5V35H20V27.5Z" fill="#9C1704"/>
<path d="M40 27.5H32.5V45H40V27.5Z" fill="#EAB125"/>
<path d="M45 27.5H40V30H45V27.5Z" fill="#F33712"/>
<path d="M52.5 27.5H45V30H52.5V27.5Z" fill="#9C1704"/>
<path d="M57.5 27.5H55V32.5H57.5V27.5Z" fill="#570F0A"/>
<path d="M10 30H7.5V32.5H10V30Z" fill="#F33712"/>
<path d="M12.5 30H10V32.5H12.5V30Z" fill="#9C1704"/>
<path d="M17.5 30H15V32.5H17.5V30Z" fill="#570F0A"/>
<path d="M47.5 30H40V35H47.5V30Z" fill="#EAB125"/>
<path d="M50 30H47.5V37.5H50V30Z" fill="#F33712"/>
<path d="M52.5 30H50V32.5H52.5V30Z" fill="#9C1704"/>
<path d="M10 32.5H7.5V35H10V32.5Z" fill="#9C1704"/>
<path d="M15 32.5H10V37.5H15V32.5Z" fill="#F33712"/>
<path d="M17.5 32.5H15V35H17.5V32.5Z" fill="#9C1704"/>
<path d="M25 32.5H22.5V50H25V32.5Z" fill="#F33712"/>
<path d="M52.5 32.5H50V37.5H52.5V32.5Z" fill="#F33712"/>
<path d="M60 32.5H55V35H60V32.5Z" fill="#9C1704"/>
<path d="M80 32.5H60V35H80V32.5Z" fill="#570F0A"/>
<path d="M10 35H7.5V80H10V35Z" fill="#570F0A"/>
<path d="M17.5 35H15V40H17.5V35Z" fill="#F33712"/>
<path d="M20 35H17.5V57.5H20V35Z" fill="#570F0A"/>
<path d="M22.5 35H20V40H22.5V35Z" fill="#9C1704"/>
<path d="M42.5 35H40V50H42.5V35Z" fill="#EAB125"/>
<path d="M45 35H42.5V37.5H45V35Z" fill="#F2D9A1"/>
<path d="M47.5 35H45V40H47.5V35Z" fill="#EAB125"/>
<path d="M57.5 35H52.5V40H57.5V35Z" fill="#F33712"/>
<path d="M62.5 35H57.5V37.5H62.5V35Z" fill="#9C1704"/>
<path d="M80 35H62.5V37.5H80V35Z" fill="#570F0A"/>
<path d="M12.5 37.5H10V40H12.5V37.5Z" fill="#9C1704"/>
<path d="M15 37.5H12.5V40H15V37.5Z" fill="#F33712"/>
<path d="M45 37.5H42.5V40H45V37.5Z" fill="#EAB125"/>
<path d="M52.5 37.5H47.5V42.5H52.5V37.5Z" fill="#EAB125"/>
<path d="M60 37.5H57.5V47.5H60V37.5Z" fill="#F33712"/>
<path d="M65 37.5H60V40H65V37.5Z" fill="#9C1704"/>
<path d="M80 37.5H65V42.5H80V37.5Z" fill="#570F0A"/>
<path d="M17.5 40H10V80H17.5V40Z" fill="#570F0A"/>
<path d="M22.5 40H20V47.5H22.5V40Z" fill="#F33712"/>
<path d="M27.5 40H25V55H27.5V40Z" fill="#F33712"/>
<path d="M30 40H27.5V47.5H30V40Z" fill="#EAB125"/>
<path d="M32.5 40H30V42.5H32.5V40Z" fill="#F2D9A1"/>
<path d="M47.5 40H42.5V45H47.5V40Z" fill="#F2D9A1"/>
<path d="M55 40H52.5V45H55V40Z" fill="#F2D9A1"/>
<path d="M57.5 40H55V42.5H57.5V40Z" fill="#EAB125"/>
<path d="M62.5 40H60V62.5H62.5V40Z" fill="#F33712"/>
<path d="M65 40H62.5V47.5H65V40Z" fill="#9C1704"/>
<path d="M32.5 42.5H30V47.5H32.5V42.5Z" fill="#EAB125"/>
<path d="M50 42.5H47.5V47.5H50V42.5Z" fill="#F2D9A1"/>
<path d="M52.5 42.5H50V47.5H52.5V42.5Z" fill="#EAB125"/>
<path d="M57.5 42.5H55V65H57.5V42.5Z" fill="#F2D9A1"/>
<path d="M67.5 42.5H65V62.5H67.5V42.5Z" fill="#9C1704"/>
<path d="M80 42.5H67.5V80H80V42.5Z" fill="#570F0A"/>
<path d="M35 45H32.5V52.5H35V45Z" fill="#EAB125"/>
<path d="M40 45H35V50H40V45Z" fill="#F2D9A1"/>
<path d="M45 45H42.5V50H45V45Z" fill="#EAB125"/>
<path d="M47.5 45H45V47.5H47.5V45Z" fill="#F2D9A1"/>
<path d="M55 45H52.5V47.5H55V45Z" fill="#EAB125"/>
<path d="M22.5 47.5H20V57.5H22.5V47.5Z" fill="#570F0A"/>
<path d="M32.5 47.5H27.5V52.5H32.5V47.5Z" fill="#F33712"/>
<path d="M50 47.5H45V50H50V47.5Z" fill="#EAB125"/>
<path d="M55 47.5H50V65H55V47.5Z" fill="#F2D9A1"/>
<path d="M60 47.5H57.5V52.5H60V47.5Z" fill="#EAB125"/>
<path d="M65 47.5H62.5V60H65V47.5Z" fill="#F33712"/>
<path d="M25 50H22.5V52.5H25V50Z" fill="#9C1704"/>
<path d="M40 50H35V55H40V50Z" fill="#EAB125"/>
<path d="M50 50H40V55H50V50Z" fill="#F2D9A1"/>
<path d="M25 52.5H22.5V55H25V52.5Z" fill="#570F0A"/>
<path d="M30 52.5H27.5V60H30V52.5Z" fill="#F33712"/>
<path d="M35 52.5H30V55H35V52.5Z" fill="#F2D9A1"/>
<path d="M60 52.5H57.5V60H60V52.5Z" fill="#F2D9A1"/>
<path d="M27.5 55H22.5V60H27.5V55Z" fill="#9C1704"/>
<path d="M32.5 55H30V60H32.5V55Z" fill="#EAB125"/>
<path d="M37.5 55H32.5V57.5H37.5V55Z" fill="#F2D9A1"/>
<path d="M42.5 55H37.5V60H42.5V55Z" fill="#EAB125"/>
<path d="M50 55H42.5V65H50V55Z" fill="#F2D9A1"/>
<path d="M22.5 57.5H17.5V60H22.5V57.5Z" fill="#F33712"/>
<path d="M35 57.5H32.5V60H35V57.5Z" fill="#EAB125"/>
<path d="M37.5 57.5H35V60H37.5V57.5Z" fill="#F2D9A1"/>
<path d="M20 60H17.5V62.5H20V60Z" fill="#9C1704"/>
<path d="M25 60H20V62.5H25V60Z" fill="#F33712"/>
<path d="M27.5 60H25V80H27.5V60Z" fill="#570F0A"/>
<path d="M30 60H27.5V65H30V60Z" fill="#9C1704"/>
<path d="M35 60H30V62.5H35V60Z" fill="#F33712"/>
<path d="M37.5 60H35V62.5H37.5V60Z" fill="#EAB125"/>
<path d="M42.5 60H37.5V62.5H42.5V60Z" fill="#F2D9A1"/>
<path d="M60 60H57.5V65H60V60Z" fill="#EAB125"/>
<path d="M65 60H62.5V65H65V60Z" fill="#9C1704"/>
<path d="M20 62.5H17.5V80H20V62.5Z" fill="#570F0A"/>
<path d="M22.5 62.5H20V65H22.5V62.5Z" fill="#9C1704"/>
<path d="M25 62.5H22.5V65H25V62.5Z" fill="#F33712"/>
<path d="M32.5 62.5H30V67.5H32.5V62.5Z" fill="#9C1704"/>
<path d="M37.5 62.5H32.5V67.5H37.5V62.5Z" fill="#F33712"/>
<path d="M40 62.5H37.5V67.5H40V62.5Z" fill="#EAB125"/>
<path d="M42.5 62.5H40V65H42.5V62.5Z" fill="#F2D9A1"/>
<path d="M62.5 62.5H60V65H62.5V62.5Z" fill="#9C1704"/>
<path d="M67.5 62.5H65V80H67.5V62.5Z" fill="#570F0A"/>
<path d="M25 65H20V80H25V65Z" fill="#570F0A"/>
<path d="M30 65H27.5V80H30V65Z" fill="#570F0A"/>
<path d="M45 65H40V67.5H45V65Z" fill="#EAB125"/>
<path d="M52.5 65H45V67.5H52.5V65Z" fill="#F2D9A1"/>
<path d="M57.5 65H52.5V67.5H57.5V65Z" fill="#EAB125"/>
<path d="M60 65H57.5V67.5H60V65Z" fill="#F33712"/>
<path d="M65 65H60V80H65V65Z" fill="#570F0A"/>
<path d="M32.5 67.5H30V80H32.5V67.5Z" fill="#570F0A"/>
<path d="M35 67.5H32.5V70H35V67.5Z" fill="#9C1704"/>
<path d="M57.5 67.5H35V70H57.5V67.5Z" fill="#F33712"/>
<path d="M60 67.5H57.5V70H60V67.5Z" fill="#9C1704"/>
<path d="M37.5 70H32.5V80H37.5V70Z" fill="#570F0A"/>
<path d="M55 70H37.5V72.5H55V70Z" fill="#9C1704"/>
<path d="M60 70H55V80H60V70Z" fill="#570F0A"/>
<path d="M55 72.5H37.5V80H55V72.5Z" fill="#570F0A"/>
</svg>
