<svg width="80" height="80" viewBox="0 0 80 80" fill="none" xmlns="http://www.w3.org/2000/svg">
<path d="M10 0H0V2.5H10V0Z" fill="#003400"/>
<path d="M12.5 0H10V2.5H12.5V0Z" fill="#005400"/>
<path d="M15 0H12.5V2.5H15V0Z" fill="#006D00"/>
<path d="M17.5 0H15V7.5H17.5V0Z" fill="#CEED54"/>
<path d="M22.5 0H17.5V5H22.5V0Z" fill="#88E500"/>
<path d="M25 0H22.5V7.5H25V0Z" fill="#4CD800"/>
<path d="M27.5 0H25V7.5H27.5V0Z" fill="#006D00"/>
<path d="M30 0H27.5V7.5H30V0Z" fill="#005400"/>
<path d="M45 0H30V2.5H45V0Z" fill="#003400"/>
<path d="M47.5 0H45V2.5H47.5V0Z" fill="#005400"/>
<path d="M50 0H47.5V2.5H50V0Z" fill="#006D00"/>
<path d="M52.5 0H50V2.5H52.5V0Z" fill="#88E500"/>
<path d="M55 0H52.5V2.5H55V0Z" fill="#CEED54"/>
<path d="M57.5 0H55V2.5H57.5V0Z" fill="#4CD800"/>
<path d="M60 0H57.5V2.5H60V0Z" fill="#006D00"/>
<path d="M62.5 0H60V2.5H62.5V0Z" fill="#005400"/>
<path d="M70 0H62.5V2.5H70V0Z" fill="#003400"/>
<path d="M72.5 0H70V2.5H72.5V0Z" fill="#005400"/>
<path d="M75 0H72.5V2.5H75V0Z" fill="#006D00"/>
<path d="M80 0H75V2.5H80V0Z" fill="#88E500"/>
<path d="M7.5 2.5H0V10H7.5V2.5Z" fill="#003400"/>
<path d="M10 2.5H7.5V15H10V2.5Z" fill="#005400"/>
<path d="M12.5 2.5H10V12.5H12.5V2.5Z" fill="#006D00"/>
<path d="M15 2.5H12.5V10H15V2.5Z" fill="#CEED54"/>
<path d="M35 2.5H30V7.5H35V2.5Z" fill="#003400"/>
<path d="M37.5 2.5H35V5H37.5V2.5Z" fill="#005400"/>
<path d="M42.5 2.5H37.5V5H42.5V2.5Z" fill="#003400"/>
<path d="M45 2.5H42.5V5H45V2.5Z" fill="#005400"/>
<path d="M47.5 2.5H45V5H47.5V2.5Z" fill="#006D00"/>
<path d="M50 2.5H47.5V5H50V2.5Z" fill="#88E500"/>
<path d="M52.5 2.5H50V5H52.5V2.5Z" fill="#CEED54"/>
<path d="M55 2.5H52.5V5H55V2.5Z" fill="#4CD800"/>
<path d="M57.5 2.5H55V5H57.5V2.5Z" fill="#006D00"/>
<path d="M60 2.5H57.5V5H60V2.5Z" fill="#005400"/>
<path d="M67.5 2.5H60V5H67.5V2.5Z" fill="#003400"/>
<path d="M70 2.5H67.5V5H70V2.5Z" fill="#005400"/>
<path d="M72.5 2.5H70V5H72.5V2.5Z" fill="#006D00"/>
<path d="M75 2.5H72.5V5H75V2.5Z" fill="#88E500"/>
<path d="M80 2.5H75V5H80V2.5Z" fill="#4CD800"/>
<path d="M20 5H17.5V7.5H20V5Z" fill="#88E500"/>
<path d="M22.5 5H20V7.5H22.5V5Z" fill="#4CD800"/>
<path d="M40 5H35V7.5H40V5Z" fill="#003400"/>
<path d="M42.5 5H40V7.5H42.5V5Z" fill="#005400"/>
<path d="M45 5H42.5V7.5H45V5Z" fill="#006D00"/>
<path d="M47.5 5H45V7.5H47.5V5Z" fill="#88E500"/>
<path d="M50 5H47.5V7.5H50V5Z" fill="#CEED54"/>
<path d="M52.5 5H50V7.5H52.5V5Z" fill="#4CD800"/>
<path d="M55 5H52.5V7.5H55V5Z" fill="#006D00"/>
<path d="M57.5 5H55V7.5H57.5V5Z" fill="#005400"/>
<path d="M65 5H57.5V7.5H65V5Z" fill="#003400"/>
<path d="M67.5 5H65V7.5H67.5V5Z" fill="#005400"/>
<path d="M70 5H67.5V7.5H70V5Z" fill="#006D00"/>
<path d="M72.5 5H70V7.5H72.5V5Z" fill="#88E500"/>
<path d="M77.5 5H72.5V7.5H77.5V5Z" fill="#4CD800"/>
<path d="M80 5H77.5V7.5H80V5Z" fill="#006D00"/>
<path d="M20 7.5H15V10H20V7.5Z" fill="#4CD800"/>
<path d="M25 7.5H20V10H25V7.5Z" fill="#006D00"/>
<path d="M27.5 7.5H25V10H27.5V7.5Z" fill="#005400"/>
<path d="M30 7.5H27.5V10H30V7.5Z" fill="#003400"/>
<path d="M40 7.5H30V10H40V7.5Z" fill="#005400"/>
<path d="M42.5 7.5H40V10H42.5V7.5Z" fill="#006D00"/>
<path d="M45 7.5H42.5V10H45V7.5Z" fill="#88E500"/>
<path d="M47.5 7.5H45V10H47.5V7.5Z" fill="#CEED54"/>
<path d="M50 7.5H47.5V10H50V7.5Z" fill="#4CD800"/>
<path d="M52.5 7.5H50V10H52.5V7.5Z" fill="#006D00"/>
<path d="M55 7.5H52.5V10H55V7.5Z" fill="#005400"/>
<path d="M57.5 7.5H55V15H57.5V7.5Z" fill="#003400"/>
<path d="M60 7.5H57.5V10H60V7.5Z" fill="#005400"/>
<path d="M62.5 7.5H60V10H62.5V7.5Z" fill="#003400"/>
<path d="M65 7.5H62.5V10H65V7.5Z" fill="#005400"/>
<path d="M67.5 7.5H65V10H67.5V7.5Z" fill="#006D00"/>
<path d="M70 7.5H67.5V10H70V7.5Z" fill="#88E500"/>
<path d="M72.5 7.5H70V10H72.5V7.5Z" fill="#CEED54"/>
<path d="M75 7.5H72.5V10H75V7.5Z" fill="#4CD800"/>
<path d="M77.5 7.5H75V10H77.5V7.5Z" fill="#006D00"/>
<path d="M80 7.5H77.5V10H80V7.5Z" fill="#005400"/>
<path d="M2.5 10H0V22.5H2.5V10Z" fill="#003400"/>
<path d="M5 10H2.5V12.5H5V10Z" fill="#005400"/>
<path d="M7.5 10H5V17.5H7.5V10Z" fill="#003400"/>
<path d="M20 10H12.5V12.5H20V10Z" fill="#006D00"/>
<path d="M25 10H20V12.5H25V10Z" fill="#005400"/>
<path d="M27.5 10H25V12.5H27.5V10Z" fill="#003400"/>
<path d="M30 10H27.5V12.5H30V10Z" fill="#005400"/>
<path d="M40 10H30V12.5H40V10Z" fill="#006D00"/>
<path d="M42.5 10H40V12.5H42.5V10Z" fill="#88E500"/>
<path d="M45 10H42.5V12.5H45V10Z" fill="#CEED54"/>
<path d="M47.5 10H45V12.5H47.5V10Z" fill="#4CD800"/>
<path d="M50 10H47.5V12.5H50V10Z" fill="#006D00"/>
<path d="M52.5 10H50V12.5H52.5V10Z" fill="#005400"/>
<path d="M55 10H52.5V17.5H55V10Z" fill="#003400"/>
<path d="M60 10H57.5V12.5H60V10Z" fill="#003400"/>
<path d="M62.5 10H60V12.5H62.5V10Z" fill="#005400"/>
<path d="M65 10H62.5V12.5H65V10Z" fill="#006D00"/>
<path d="M67.5 10H65V12.5H67.5V10Z" fill="#88E500"/>
<path d="M70 10H67.5V12.5H70V10Z" fill="#CEED54"/>
<path d="M72.5 10H70V12.5H72.5V10Z" fill="#4CD800"/>
<path d="M75 10H72.5V12.5H75V10Z" fill="#006D00"/>
<path d="M77.5 10H75V12.5H77.5V10Z" fill="#005400"/>
<path d="M80 10H77.5V15H80V10Z" fill="#003400"/>
<path d="M5 12.5H2.5V20H5V12.5Z" fill="#003400"/>
<path d="M20 12.5H10V15H20V12.5Z" fill="#005400"/>
<path d="M25 12.5H20V17.5H25V12.5Z" fill="#003400"/>
<path d="M27.5 12.5H25V17.5H27.5V12.5Z" fill="#005400"/>
<path d="M30 12.5H27.5V20H30V12.5Z" fill="#006D00"/>
<path d="M42.5 12.5H30V15H42.5V12.5Z" fill="#CEED54"/>
<path d="M45 12.5H42.5V15H45V12.5Z" fill="#4CD800"/>
<path d="M47.5 12.5H45V15H47.5V12.5Z" fill="#006D00"/>
<path d="M50 12.5H47.5V15H50V12.5Z" fill="#005400"/>
<path d="M52.5 12.5H50V20H52.5V12.5Z" fill="#003400"/>
<path d="M60 12.5H57.5V15H60V12.5Z" fill="#005400"/>
<path d="M62.5 12.5H60V15H62.5V12.5Z" fill="#006D00"/>
<path d="M65 12.5H62.5V15H65V12.5Z" fill="#88E500"/>
<path d="M70 12.5H65V15H70V12.5Z" fill="#4CD800"/>
<path d="M72.5 12.5H70V15H72.5V12.5Z" fill="#006D00"/>
<path d="M75 12.5H72.5V15H75V12.5Z" fill="#005400"/>
<path d="M77.5 12.5H75V17.5H77.5V12.5Z" fill="#003400"/>
<path d="M20 15H7.5V17.5H20V15Z" fill="#003400"/>
<path d="M32.5 15H30V20H32.5V15Z" fill="#CEED54"/>
<path d="M40 15H32.5V17.5H40V15Z" fill="#88E500"/>
<path d="M42.5 15H40V25H42.5V15Z" fill="#4CD800"/>
<path d="M45 15H42.5V25H45V15Z" fill="#006D00"/>
<path d="M47.5 15H45V27.5H47.5V15Z" fill="#005400"/>
<path d="M50 15H47.5V22.5H50V15Z" fill="#003400"/>
<path d="M57.5 15H55V17.5H57.5V15Z" fill="#005400"/>
<path d="M60 15H57.5V17.5H60V15Z" fill="#006D00"/>
<path d="M62.5 15H60V17.5H62.5V15Z" fill="#88E500"/>
<path d="M67.5 15H62.5V17.5H67.5V15Z" fill="#4CD800"/>
<path d="M70 15H67.5V17.5H70V15Z" fill="#006D00"/>
<path d="M72.5 15H70V17.5H72.5V15Z" fill="#005400"/>
<path d="M75 15H72.5V20H75V15Z" fill="#003400"/>
<path d="M80 15H77.5V17.5H80V15Z" fill="#005400"/>
<path d="M7.5 17.5H5V20H7.5V17.5Z" fill="#4CD800"/>
<path d="M15 17.5H7.5V20H15V17.5Z" fill="#003400"/>
<path d="M17.5 17.5H15V20H17.5V17.5Z" fill="#4CD800"/>
<path d="M22.5 17.5H17.5V20H22.5V17.5Z" fill="#003400"/>
<path d="M25 17.5H22.5V20H25V17.5Z" fill="#005400"/>
<path d="M27.5 17.5H25V20H27.5V17.5Z" fill="#006D00"/>
<path d="M35 17.5H32.5V20H35V17.5Z" fill="#88E500"/>
<path d="M37.5 17.5H35V20H37.5V17.5Z" fill="#CEED54"/>
<path d="M40 17.5H37.5V22.5H40V17.5Z" fill="#88E500"/>
<path d="M55 17.5H52.5V20H55V17.5Z" fill="#005400"/>
<path d="M57.5 17.5H55V20H57.5V17.5Z" fill="#006D00"/>
<path d="M60 17.5H57.5V20H60V17.5Z" fill="#88E500"/>
<path d="M62.5 17.5H60V20H62.5V17.5Z" fill="#CEED54"/>
<path d="M65 17.5H62.5V20H65V17.5Z" fill="#4CD800"/>
<path d="M67.5 17.5H65V20H67.5V17.5Z" fill="#006D00"/>
<path d="M70 17.5H67.5V20H70V17.5Z" fill="#005400"/>
<path d="M72.5 17.5H70V22.5H72.5V17.5Z" fill="#003400"/>
<path d="M77.5 17.5H75V20H77.5V17.5Z" fill="#005400"/>
<path d="M80 17.5H77.5V20H80V17.5Z" fill="#006D00"/>
<path d="M5 20H2.5V22.5H5V20Z" fill="#4CD800"/>
<path d="M12.5 20H5V22.5H12.5V20Z" fill="#003400"/>
<path d="M15 20H12.5V22.5H15V20Z" fill="#005400"/>
<path d="M20 20H15V27.5H20V20Z" fill="#003400"/>
<path d="M22.5 20H20V27.5H22.5V20Z" fill="#005400"/>
<path d="M25 20H22.5V27.5H25V20Z" fill="#006D00"/>
<path d="M27.5 20H25V27.5H27.5V20Z" fill="#CEED54"/>
<path d="M30 20H27.5V27.5H30V20Z" fill="#88E500"/>
<path d="M32.5 20H30V22.5H32.5V20Z" fill="#4CD800"/>
<path d="M35 20H32.5V22.5H35V20Z" fill="#CEED54"/>
<path d="M37.5 20H35V22.5H37.5V20Z" fill="#88E500"/>
<path d="M52.5 20H50V22.5H52.5V20Z" fill="#005400"/>
<path d="M55 20H52.5V22.5H55V20Z" fill="#006D00"/>
<path d="M57.5 20H55V22.5H57.5V20Z" fill="#88E500"/>
<path d="M60 20H57.5V22.5H60V20Z" fill="#CEED54"/>
<path d="M62.5 20H60V22.5H62.5V20Z" fill="#4CD800"/>
<path d="M65 20H62.5V22.5H65V20Z" fill="#006D00"/>
<path d="M67.5 20H65V22.5H67.5V20Z" fill="#005400"/>
<path d="M70 20H67.5V25H70V20Z" fill="#003400"/>
<path d="M75 20H72.5V22.5H75V20Z" fill="#005400"/>
<path d="M77.5 20H75V22.5H77.5V20Z" fill="#006D00"/>
<path d="M80 20H77.5V22.5H80V20Z" fill="#88E500"/>
<path d="M2.5 22.5H0V25H2.5V22.5Z" fill="#005400"/>
<path d="M10 22.5H2.5V25H10V22.5Z" fill="#003400"/>
<path d="M12.5 22.5H10V25H12.5V22.5Z" fill="#4CD800"/>
<path d="M15 22.5H12.5V27.5H15V22.5Z" fill="#003400"/>
<path d="M32.5 22.5H30V25H32.5V22.5Z" fill="#CEED54"/>
<path d="M40 22.5H32.5V25H40V22.5Z" fill="#4CD800"/>
<path d="M50 22.5H47.5V25H50V22.5Z" fill="#005400"/>
<path d="M52.5 22.5H50V25H52.5V22.5Z" fill="#006D00"/>
<path d="M55 22.5H52.5V25H55V22.5Z" fill="#88E500"/>
<path d="M57.5 22.5H55V25H57.5V22.5Z" fill="#CEED54"/>
<path d="M60 22.5H57.5V25H60V22.5Z" fill="#4CD800"/>
<path d="M62.5 22.5H60V25H62.5V22.5Z" fill="#006D00"/>
<path d="M65 22.5H62.5V27.5H65V22.5Z" fill="#005400"/>
<path d="M67.5 22.5H65V25H67.5V22.5Z" fill="#003400"/>
<path d="M72.5 22.5H70V25H72.5V22.5Z" fill="#005400"/>
<path d="M75 22.5H72.5V25H75V22.5Z" fill="#006D00"/>
<path d="M77.5 22.5H75V25H77.5V22.5Z" fill="#88E500"/>
<path d="M80 22.5H77.5V25H80V22.5Z" fill="#CEED54"/>
<path d="M7.5 25H0V32.5H7.5V25Z" fill="#003400"/>
<path d="M10 25H7.5V27.5H10V25Z" fill="#4CD800"/>
<path d="M12.5 25H10V50H12.5V25Z" fill="#003400"/>
<path d="M35 25H30V27.5H35V25Z" fill="#88E500"/>
<path d="M42.5 25H35V27.5H42.5V25Z" fill="#006D00"/>
<path d="M45 25H42.5V30H45V25Z" fill="#005400"/>
<path d="M50 25H47.5V27.5H50V25Z" fill="#006D00"/>
<path d="M52.5 25H50V27.5H52.5V25Z" fill="#88E500"/>
<path d="M55 25H52.5V27.5H55V25Z" fill="#CEED54"/>
<path d="M57.5 25H55V27.5H57.5V25Z" fill="#4CD800"/>
<path d="M60 25H57.5V27.5H60V25Z" fill="#006D00"/>
<path d="M62.5 25H60V27.5H62.5V25Z" fill="#005400"/>
<path d="M70 25H65V27.5H70V25Z" fill="#005400"/>
<path d="M72.5 25H70V30H72.5V25Z" fill="#006D00"/>
<path d="M75 25H72.5V27.5H75V25Z" fill="#88E500"/>
<path d="M77.5 25H75V27.5H77.5V25Z" fill="#CEED54"/>
<path d="M80 25H77.5V27.5H80V25Z" fill="#4CD800"/>
<path d="M10 27.5H7.5V40H10V27.5Z" fill="#003400"/>
<path d="M15 27.5H12.5V30H15V27.5Z" fill="#005400"/>
<path d="M17.5 27.5H15V45H17.5V27.5Z" fill="#003400"/>
<path d="M20 27.5H17.5V37.5H20V27.5Z" fill="#005400"/>
<path d="M22.5 27.5H20V35H22.5V27.5Z" fill="#006D00"/>
<path d="M25 27.5H22.5V32.5H25V27.5Z" fill="#CEED54"/>
<path d="M27.5 27.5H25V30H27.5V27.5Z" fill="#88E500"/>
<path d="M35 27.5H27.5V30H35V27.5Z" fill="#4CD800"/>
<path d="M37.5 27.5H35V32.5H37.5V27.5Z" fill="#006D00"/>
<path d="M42.5 27.5H37.5V32.5H42.5V27.5Z" fill="#005400"/>
<path d="M47.5 27.5H45V30H47.5V27.5Z" fill="#006D00"/>
<path d="M50 27.5H47.5V30H50V27.5Z" fill="#88E500"/>
<path d="M55 27.5H50V30H55V27.5Z" fill="#4CD800"/>
<path d="M57.5 27.5H55V30H57.5V27.5Z" fill="#006D00"/>
<path d="M60 27.5H57.5V35H60V27.5Z" fill="#005400"/>
<path d="M62.5 27.5H60V30H62.5V27.5Z" fill="#003400"/>
<path d="M70 27.5H62.5V30H70V27.5Z" fill="#006D00"/>
<path d="M75 27.5H72.5V30H75V27.5Z" fill="#CEED54"/>
<path d="M77.5 27.5H75V30H77.5V27.5Z" fill="#4CD800"/>
<path d="M80 27.5H77.5V30H80V27.5Z" fill="#006D00"/>
<path d="M15 30H12.5V40H15V30Z" fill="#003400"/>
<path d="M27.5 30H25V32.5H27.5V30Z" fill="#4CD800"/>
<path d="M35 30H27.5V32.5H35V30Z" fill="#006D00"/>
<path d="M45 30H42.5V32.5H45V30Z" fill="#006D00"/>
<path d="M47.5 30H45V32.5H47.5V30Z" fill="#88E500"/>
<path d="M52.5 30H47.5V32.5H52.5V30Z" fill="#4CD800"/>
<path d="M55 30H52.5V32.5H55V30Z" fill="#006D00"/>
<path d="M57.5 30H55V32.5H57.5V30Z" fill="#005400"/>
<path d="M62.5 30H60V37.5H62.5V30Z" fill="#006D00"/>
<path d="M72.5 30H62.5V32.5H72.5V30Z" fill="#CEED54"/>
<path d="M77.5 30H72.5V32.5H77.5V30Z" fill="#006D00"/>
<path d="M80 30H77.5V37.5H80V30Z" fill="#005400"/>
<path d="M5 32.5H0V35H5V32.5Z" fill="#003400"/>
<path d="M7.5 32.5H5V35H7.5V32.5Z" fill="#4CD800"/>
<path d="M27.5 32.5H22.5V35H27.5V32.5Z" fill="#006D00"/>
<path d="M40 32.5H27.5V35H40V32.5Z" fill="#005400"/>
<path d="M42.5 32.5H40V35H42.5V32.5Z" fill="#006D00"/>
<path d="M45 32.5H42.5V35H45V32.5Z" fill="#88E500"/>
<path d="M47.5 32.5H45V35H47.5V32.5Z" fill="#CEED54"/>
<path d="M50 32.5H47.5V35H50V32.5Z" fill="#4CD800"/>
<path d="M52.5 32.5H50V35H52.5V32.5Z" fill="#006D00"/>
<path d="M55 32.5H52.5V35H55V32.5Z" fill="#005400"/>
<path d="M57.5 32.5H55V35H57.5V32.5Z" fill="#003400"/>
<path d="M67.5 32.5H62.5V35H67.5V32.5Z" fill="#CEED54"/>
<path d="M70 32.5H67.5V37.5H70V32.5Z" fill="#88E500"/>
<path d="M72.5 32.5H70V40H72.5V32.5Z" fill="#4CD800"/>
<path d="M75 32.5H72.5V40H75V32.5Z" fill="#006D00"/>
<path d="M77.5 32.5H75V40H77.5V32.5Z" fill="#005400"/>
<path d="M2.5 35H0V47.5H2.5V35Z" fill="#003400"/>
<path d="M5 35H2.5V37.5H5V35Z" fill="#005400"/>
<path d="M7.5 35H5V42.5H7.5V35Z" fill="#003400"/>
<path d="M27.5 35H20V37.5H27.5V35Z" fill="#005400"/>
<path d="M35 35H27.5V37.5H35V35Z" fill="#003400"/>
<path d="M37.5 35H35V37.5H37.5V35Z" fill="#005400"/>
<path d="M40 35H37.5V37.5H40V35Z" fill="#006D00"/>
<path d="M42.5 35H40V37.5H42.5V35Z" fill="#88E500"/>
<path d="M45 35H42.5V37.5H45V35Z" fill="#CEED54"/>
<path d="M47.5 35H45V37.5H47.5V35Z" fill="#4CD800"/>
<path d="M50 35H47.5V37.5H50V35Z" fill="#006D00"/>
<path d="M52.5 35H50V37.5H52.5V35Z" fill="#005400"/>
<path d="M55 35H52.5V37.5H55V35Z" fill="#003400"/>
<path d="M57.5 35H55V37.5H57.5V35Z" fill="#005400"/>
<path d="M60 35H57.5V37.5H60V35Z" fill="#006D00"/>
<path d="M65 35H62.5V37.5H65V35Z" fill="#CEED54"/>
<path d="M67.5 35H65V37.5H67.5V35Z" fill="#88E500"/>
<path d="M5 37.5H2.5V45H5V37.5Z" fill="#003400"/>
<path d="M32.5 37.5H17.5V40H32.5V37.5Z" fill="#003400"/>
<path d="M35 37.5H32.5V40H35V37.5Z" fill="#005400"/>
<path d="M37.5 37.5H35V40H37.5V37.5Z" fill="#006D00"/>
<path d="M40 37.5H37.5V40H40V37.5Z" fill="#88E500"/>
<path d="M42.5 37.5H40V40H42.5V37.5Z" fill="#CEED54"/>
<path d="M45 37.5H42.5V40H45V37.5Z" fill="#4CD800"/>
<path d="M47.5 37.5H45V40H47.5V37.5Z" fill="#006D00"/>
<path d="M50 37.5H47.5V40H50V37.5Z" fill="#005400"/>
<path d="M52.5 37.5H50V57.5H52.5V37.5Z" fill="#003400"/>
<path d="M55 37.5H52.5V50H55V37.5Z" fill="#005400"/>
<path d="M57.5 37.5H55V47.5H57.5V37.5Z" fill="#006D00"/>
<path d="M62.5 37.5H57.5V42.5H62.5V37.5Z" fill="#CEED54"/>
<path d="M65 37.5H62.5V42.5H65V37.5Z" fill="#88E500"/>
<path d="M70 37.5H65V40H70V37.5Z" fill="#4CD800"/>
<path d="M80 37.5H77.5V40H80V37.5Z" fill="#006D00"/>
<path d="M10 40H7.5V42.5H10V40Z" fill="#4CD800"/>
<path d="M15 40H12.5V42.5H15V40Z" fill="#4CD800"/>
<path d="M30 40H17.5V42.5H30V40Z" fill="#003400"/>
<path d="M32.5 40H30V42.5H32.5V40Z" fill="#005400"/>
<path d="M35 40H32.5V42.5H35V40Z" fill="#006D00"/>
<path d="M37.5 40H35V42.5H37.5V40Z" fill="#88E500"/>
<path d="M40 40H37.5V42.5H40V40Z" fill="#CEED54"/>
<path d="M42.5 40H40V42.5H42.5V40Z" fill="#4CD800"/>
<path d="M45 40H42.5V42.5H45V40Z" fill="#006D00"/>
<path d="M47.5 40H45V42.5H47.5V40Z" fill="#005400"/>
<path d="M50 40H47.5V52.5H50V40Z" fill="#003400"/>
<path d="M72.5 40H65V42.5H72.5V40Z" fill="#006D00"/>
<path d="M75 40H72.5V42.5H75V40Z" fill="#005400"/>
<path d="M77.5 40H75V42.5H77.5V40Z" fill="#006D00"/>
<path d="M80 40H77.5V42.5H80V40Z" fill="#88E500"/>
<path d="M7.5 42.5H5V45H7.5V42.5Z" fill="#4CD800"/>
<path d="M10 42.5H7.5V55H10V42.5Z" fill="#003400"/>
<path d="M15 42.5H12.5V47.5H15V42.5Z" fill="#003400"/>
<path d="M27.5 42.5H17.5V45H27.5V42.5Z" fill="#003400"/>
<path d="M30 42.5H27.5V45H30V42.5Z" fill="#005400"/>
<path d="M32.5 42.5H30V45H32.5V42.5Z" fill="#006D00"/>
<path d="M35 42.5H32.5V45H35V42.5Z" fill="#88E500"/>
<path d="M37.5 42.5H35V45H37.5V42.5Z" fill="#CEED54"/>
<path d="M40 42.5H37.5V45H40V42.5Z" fill="#4CD800"/>
<path d="M42.5 42.5H40V45H42.5V42.5Z" fill="#006D00"/>
<path d="M45 42.5H42.5V45H45V42.5Z" fill="#005400"/>
<path d="M47.5 42.5H45V47.5H47.5V42.5Z" fill="#003400"/>
<path d="M60 42.5H57.5V45H60V42.5Z" fill="#CEED54"/>
<path d="M65 42.5H60V45H65V42.5Z" fill="#4CD800"/>
<path d="M67.5 42.5H65V45H67.5V42.5Z" fill="#006D00"/>
<path d="M72.5 42.5H67.5V45H72.5V42.5Z" fill="#005400"/>
<path d="M75 42.5H72.5V45H75V42.5Z" fill="#006D00"/>
<path d="M77.5 42.5H75V45H77.5V42.5Z" fill="#88E500"/>
<path d="M80 42.5H77.5V45H80V42.5Z" fill="#4CD800"/>
<path d="M5 45H2.5V47.5H5V45Z" fill="#005400"/>
<path d="M7.5 45H5V57.5H7.5V45Z" fill="#003400"/>
<path d="M27.5 45H15V47.5H27.5V45Z" fill="#005400"/>
<path d="M30 45H27.5V47.5H30V45Z" fill="#006D00"/>
<path d="M32.5 45H30V47.5H32.5V45Z" fill="#88E500"/>
<path d="M35 45H32.5V47.5H35V45Z" fill="#CEED54"/>
<path d="M37.5 45H35V47.5H37.5V45Z" fill="#4CD800"/>
<path d="M40 45H37.5V47.5H40V45Z" fill="#006D00"/>
<path d="M42.5 45H40V47.5H42.5V45Z" fill="#005400"/>
<path d="M45 45H42.5V57.5H45V45Z" fill="#003400"/>
<path d="M65 45H57.5V47.5H65V45Z" fill="#006D00"/>
<path d="M70 45H65V47.5H70V45Z" fill="#005400"/>
<path d="M72.5 45H70V47.5H72.5V45Z" fill="#006D00"/>
<path d="M75 45H72.5V47.5H75V45Z" fill="#88E500"/>
<path d="M80 45H75V47.5H80V45Z" fill="#CEED54"/>
<path d="M2.5 47.5H0V50H2.5V47.5Z" fill="#4CD800"/>
<path d="M5 47.5H2.5V65H5V47.5Z" fill="#003400"/>
<path d="M15 47.5H12.5V50H15V47.5Z" fill="#005400"/>
<path d="M27.5 47.5H15V50H27.5V47.5Z" fill="#006D00"/>
<path d="M30 47.5H27.5V50H30V47.5Z" fill="#88E500"/>
<path d="M32.5 47.5H30V50H32.5V47.5Z" fill="#CEED54"/>
<path d="M35 47.5H32.5V50H35V47.5Z" fill="#4CD800"/>
<path d="M37.5 47.5H35V50H37.5V47.5Z" fill="#006D00"/>
<path d="M40 47.5H37.5V50H40V47.5Z" fill="#005400"/>
<path d="M42.5 47.5H40V60H42.5V47.5Z" fill="#003400"/>
<path d="M47.5 47.5H45V50H47.5V47.5Z" fill="#4CD800"/>
<path d="M60 47.5H55V50H60V47.5Z" fill="#005400"/>
<path d="M70 47.5H60V50H70V47.5Z" fill="#006D00"/>
<path d="M72.5 47.5H70V50H72.5V47.5Z" fill="#88E500"/>
<path d="M75 47.5H72.5V50H75V47.5Z" fill="#CEED54"/>
<path d="M77.5 47.5H75V50H77.5V47.5Z" fill="#4CD800"/>
<path d="M80 47.5H77.5V50H80V47.5Z" fill="#006D00"/>
<path d="M2.5 50H0V70H2.5V50Z" fill="#003400"/>
<path d="M12.5 50H10V55H12.5V50Z" fill="#005400"/>
<path d="M15 50H12.5V57.5H15V50Z" fill="#006D00"/>
<path d="M30 50H15V52.5H30V50Z" fill="#CEED54"/>
<path d="M32.5 50H30V52.5H32.5V50Z" fill="#4CD800"/>
<path d="M35 50H32.5V52.5H35V50Z" fill="#006D00"/>
<path d="M37.5 50H35V52.5H37.5V50Z" fill="#005400"/>
<path d="M40 50H37.5V62.5H40V50Z" fill="#003400"/>
<path d="M47.5 50H45V55H47.5V50Z" fill="#003400"/>
<path d="M55 50H52.5V55H55V50Z" fill="#003400"/>
<path d="M57.5 50H55V55H57.5V50Z" fill="#005400"/>
<path d="M60 50H57.5V57.5H60V50Z" fill="#006D00"/>
<path d="M72.5 50H60V52.5H72.5V50Z" fill="#CEED54"/>
<path d="M75 50H72.5V52.5H75V50Z" fill="#4CD800"/>
<path d="M77.5 50H75V52.5H77.5V50Z" fill="#006D00"/>
<path d="M80 50H77.5V52.5H80V50Z" fill="#005400"/>
<path d="M17.5 52.5H15V57.5H17.5V52.5Z" fill="#CEED54"/>
<path d="M25 52.5H17.5V55H25V52.5Z" fill="#88E500"/>
<path d="M30 52.5H25V55H30V52.5Z" fill="#4CD800"/>
<path d="M32.5 52.5H30V65H32.5V52.5Z" fill="#006D00"/>
<path d="M35 52.5H32.5V65H35V52.5Z" fill="#005400"/>
<path d="M37.5 52.5H35V75H37.5V52.5Z" fill="#003400"/>
<path d="M50 52.5H47.5V55H50V52.5Z" fill="#005400"/>
<path d="M62.5 52.5H60V57.5H62.5V52.5Z" fill="#CEED54"/>
<path d="M70 52.5H62.5V55H70V52.5Z" fill="#88E500"/>
<path d="M72.5 52.5H70V62.5H72.5V52.5Z" fill="#4CD800"/>
<path d="M75 52.5H72.5V62.5H75V52.5Z" fill="#006D00"/>
<path d="M77.5 52.5H75V62.5H77.5V52.5Z" fill="#005400"/>
<path d="M80 52.5H77.5V80H80V52.5Z" fill="#003400"/>
<path d="M10 55H7.5V57.5H10V55Z" fill="#005400"/>
<path d="M12.5 55H10V57.5H12.5V55Z" fill="#006D00"/>
<path d="M20 55H17.5V60H20V55Z" fill="#88E500"/>
<path d="M25 55H20V60H25V55Z" fill="#4CD800"/>
<path d="M27.5 55H25V62.5H27.5V55Z" fill="#88E500"/>
<path d="M30 55H27.5V65H30V55Z" fill="#4CD800"/>
<path d="M47.5 55H45V57.5H47.5V55Z" fill="#4CD800"/>
<path d="M50 55H47.5V65H50V55Z" fill="#003400"/>
<path d="M55 55H52.5V57.5H55V55Z" fill="#005400"/>
<path d="M57.5 55H55V57.5H57.5V55Z" fill="#006D00"/>
<path d="M65 55H62.5V57.5H65V55Z" fill="#88E500"/>
<path d="M67.5 55H65V57.5H67.5V55Z" fill="#CEED54"/>
<path d="M70 55H67.5V62.5H70V55Z" fill="#88E500"/>
<path d="M7.5 57.5H5V65H7.5V57.5Z" fill="#005400"/>
<path d="M10 57.5H7.5V65H10V57.5Z" fill="#006D00"/>
<path d="M12.5 57.5H10V65H12.5V57.5Z" fill="#CEED54"/>
<path d="M15 57.5H12.5V65H15V57.5Z" fill="#88E500"/>
<path d="M17.5 57.5H15V62.5H17.5V57.5Z" fill="#4CD800"/>
<path d="M45 57.5H42.5V60H45V57.5Z" fill="#4CD800"/>
<path d="M47.5 57.5H45V80H47.5V57.5Z" fill="#003400"/>
<path d="M52.5 57.5H50V65H52.5V57.5Z" fill="#005400"/>
<path d="M55 57.5H52.5V65H55V57.5Z" fill="#006D00"/>
<path d="M60 57.5H55V60H60V57.5Z" fill="#CEED54"/>
<path d="M62.5 57.5H60V60H62.5V57.5Z" fill="#88E500"/>
<path d="M65 57.5H62.5V60H65V57.5Z" fill="#CEED54"/>
<path d="M67.5 57.5H65V62.5H67.5V57.5Z" fill="#88E500"/>
<path d="M20 60H17.5V62.5H20V60Z" fill="#CEED54"/>
<path d="M25 60H20V62.5H25V60Z" fill="#88E500"/>
<path d="M42.5 60H40V62.5H42.5V60Z" fill="#005400"/>
<path d="M45 60H42.5V80H45V60Z" fill="#003400"/>
<path d="M57.5 60H55V62.5H57.5V60Z" fill="#CEED54"/>
<path d="M60 60H57.5V62.5H60V60Z" fill="#88E500"/>
<path d="M62.5 60H60V62.5H62.5V60Z" fill="#4CD800"/>
<path d="M65 60H62.5V62.5H65V60Z" fill="#88E500"/>
<path d="M17.5 62.5H15V65H17.5V62.5Z" fill="#CEED54"/>
<path d="M27.5 62.5H17.5V65H27.5V62.5Z" fill="#4CD800"/>
<path d="M40 62.5H37.5V65H40V62.5Z" fill="#4CD800"/>
<path d="M42.5 62.5H40V70H42.5V62.5Z" fill="#003400"/>
<path d="M57.5 62.5H55V67.5H57.5V62.5Z" fill="#88E500"/>
<path d="M60 62.5H57.5V65H60V62.5Z" fill="#4CD800"/>
<path d="M62.5 62.5H60V65H62.5V62.5Z" fill="#88E500"/>
<path d="M65 62.5H62.5V67.5H65V62.5Z" fill="#4CD800"/>
<path d="M72.5 62.5H65V65H72.5V62.5Z" fill="#006D00"/>
<path d="M75 62.5H72.5V65H75V62.5Z" fill="#005400"/>
<path d="M77.5 62.5H75V80H77.5V62.5Z" fill="#003400"/>
<path d="M5 65H2.5V70H5V65Z" fill="#005400"/>
<path d="M7.5 65H5V70H7.5V65Z" fill="#006D00"/>
<path d="M10 65H7.5V67.5H10V65Z" fill="#CEED54"/>
<path d="M12.5 65H10V67.5H12.5V65Z" fill="#88E500"/>
<path d="M15 65H12.5V67.5H15V65Z" fill="#4CD800"/>
<path d="M22.5 65H15V67.5H22.5V65Z" fill="#88E500"/>
<path d="M30 65H22.5V67.5H30V65Z" fill="#006D00"/>
<path d="M32.5 65H30V67.5H32.5V65Z" fill="#005400"/>
<path d="M35 65H32.5V70H35V65Z" fill="#003400"/>
<path d="M40 65H37.5V72.5H40V65Z" fill="#003400"/>
<path d="M50 65H47.5V75H50V65Z" fill="#005400"/>
<path d="M52.5 65H50V72.5H52.5V65Z" fill="#006D00"/>
<path d="M55 65H52.5V70H55V65Z" fill="#CEED54"/>
<path d="M60 65H57.5V67.5H60V65Z" fill="#88E500"/>
<path d="M62.5 65H60V67.5H62.5V65Z" fill="#4CD800"/>
<path d="M67.5 65H65V67.5H67.5V65Z" fill="#006D00"/>
<path d="M72.5 65H67.5V67.5H72.5V65Z" fill="#005400"/>
<path d="M75 65H72.5V70H75V65Z" fill="#003400"/>
<path d="M10 67.5H7.5V72.5H10V67.5Z" fill="#88E500"/>
<path d="M12.5 67.5H10V70H12.5V67.5Z" fill="#4CD800"/>
<path d="M15 67.5H12.5V70H15V67.5Z" fill="#88E500"/>
<path d="M22.5 67.5H15V70H22.5V67.5Z" fill="#4CD800"/>
<path d="M25 67.5H22.5V70H25V67.5Z" fill="#006D00"/>
<path d="M30 67.5H25V70H30V67.5Z" fill="#005400"/>
<path d="M32.5 67.5H30V80H32.5V67.5Z" fill="#003400"/>
<path d="M57.5 67.5H55V70H57.5V67.5Z" fill="#4CD800"/>
<path d="M65 67.5H57.5V70H65V67.5Z" fill="#006D00"/>
<path d="M67.5 67.5H65V70H67.5V67.5Z" fill="#005400"/>
<path d="M72.5 67.5H67.5V72.5H72.5V67.5Z" fill="#003400"/>
<path d="M2.5 70H0V80H2.5V70Z" fill="#005400"/>
<path d="M5 70H2.5V77.5H5V70Z" fill="#006D00"/>
<path d="M7.5 70H5V75H7.5V70Z" fill="#CEED54"/>
<path d="M12.5 70H10V72.5H12.5V70Z" fill="#88E500"/>
<path d="M15 70H12.5V72.5H15V70Z" fill="#4CD800"/>
<path d="M22.5 70H15V72.5H22.5V70Z" fill="#006D00"/>
<path d="M25 70H22.5V72.5H25V70Z" fill="#005400"/>
<path d="M30 70H25V80H30V70Z" fill="#003400"/>
<path d="M35 70H32.5V72.5H35V70Z" fill="#005400"/>
<path d="M42.5 70H40V72.5H42.5V70Z" fill="#005400"/>
<path d="M57.5 70H52.5V72.5H57.5V70Z" fill="#006D00"/>
<path d="M65 70H57.5V72.5H65V70Z" fill="#005400"/>
<path d="M67.5 70H65V80H67.5V70Z" fill="#003400"/>
<path d="M75 70H72.5V72.5H75V70Z" fill="#005400"/>
<path d="M10 72.5H7.5V75H10V72.5Z" fill="#4CD800"/>
<path d="M15 72.5H10V75H15V72.5Z" fill="#006D00"/>
<path d="M22.5 72.5H15V75H22.5V72.5Z" fill="#005400"/>
<path d="M25 72.5H22.5V80H25V72.5Z" fill="#003400"/>
<path d="M35 72.5H32.5V80H35V72.5Z" fill="#003400"/>
<path d="M40 72.5H37.5V75H40V72.5Z" fill="#4CD800"/>
<path d="M42.5 72.5H40V80H42.5V72.5Z" fill="#003400"/>
<path d="M57.5 72.5H50V75H57.5V72.5Z" fill="#005400"/>
<path d="M65 72.5H57.5V75H65V72.5Z" fill="#003400"/>
<path d="M70 72.5H67.5V75H70V72.5Z" fill="#003400"/>
<path d="M72.5 72.5H70V75H72.5V72.5Z" fill="#4CD800"/>
<path d="M75 72.5H72.5V80H75V72.5Z" fill="#003400"/>
<path d="M10 75H5V77.5H10V75Z" fill="#006D00"/>
<path d="M15 75H10V77.5H15V75Z" fill="#005400"/>
<path d="M22.5 75H15V80H22.5V75Z" fill="#003400"/>
<path d="M37.5 75H35V77.5H37.5V75Z" fill="#4CD800"/>
<path d="M40 75H37.5V80H40V75Z" fill="#003400"/>
<path d="M62.5 75H47.5V80H62.5V75Z" fill="#003400"/>
<path d="M65 75H62.5V77.5H65V75Z" fill="#4CD800"/>
<path d="M70 75H67.5V77.5H70V75Z" fill="#4CD800"/>
<path d="M72.5 75H70V80H72.5V75Z" fill="#003400"/>
<path d="M10 77.5H2.5V80H10V77.5Z" fill="#005400"/>
<path d="M15 77.5H10V80H15V77.5Z" fill="#003400"/>
<path d="M37.5 77.5H35V80H37.5V77.5Z" fill="#003400"/>
<path d="M65 77.5H62.5V80H65V77.5Z" fill="#003400"/>
<path d="M70 77.5H67.5V80H70V77.5Z" fill="#003400"/>
</svg>
