<svg width="80" height="80" viewBox="0 0 80 80" fill="none" xmlns="http://www.w3.org/2000/svg">
<path d="M27.5 0H0V5H27.5V0Z" fill="#002A31"/>
<path d="M30 0H27.5V10H30V0Z" fill="#00788A"/>
<path d="M32.5 0H30V10H32.5V0Z" fill="#0092A8"/>
<path d="M47.5 0H32.5V10H47.5V0Z" fill="#00BFDC"/>
<path d="M50 0H47.5V10H50V0Z" fill="#0092A8"/>
<path d="M52.5 0H50V10H52.5V0Z" fill="#00788A"/>
<path d="M80 0H52.5V2.5H80V0Z" fill="#002A31"/>
<path d="M60 2.5H52.5V27.5H60V2.5Z" fill="#002A31"/>
<path d="M62.5 2.5H60V5H62.5V2.5Z" fill="#00BFDC"/>
<path d="M80 2.5H62.5V7.5H80V2.5Z" fill="#002A31"/>
<path d="M5 5H0V60H5V5Z" fill="#002A31"/>
<path d="M7.5 5H5V7.5H7.5V5Z" fill="#00BFDC"/>
<path d="M27.5 5H7.5V15H27.5V5Z" fill="#002A31"/>
<path d="M62.5 5H60V12.5H62.5V5Z" fill="#002A31"/>
<path d="M7.5 7.5H5V25H7.5V7.5Z" fill="#002A31"/>
<path d="M65 7.5H62.5V12.5H65V7.5Z" fill="#002A31"/>
<path d="M72.5 7.5H65V10H72.5V7.5Z" fill="#0092A8"/>
<path d="M80 7.5H72.5V12.5H80V7.5Z" fill="#002A31"/>
<path d="M30 10H27.5V15H30V10Z" fill="#002A31"/>
<path d="M32.5 10H30V12.5H32.5V10Z" fill="#00788A"/>
<path d="M35 10H32.5V12.5H35V10Z" fill="#0092A8"/>
<path d="M45 10H35V12.5H45V10Z" fill="#00BFDC"/>
<path d="M47.5 10H45V12.5H47.5V10Z" fill="#0092A8"/>
<path d="M50 10H47.5V12.5H50V10Z" fill="#00788A"/>
<path d="M52.5 10H50V15H52.5V10Z" fill="#002A31"/>
<path d="M67.5 10H65V15H67.5V10Z" fill="#0092A8"/>
<path d="M70 10H67.5V17.5H70V10Z" fill="#E2F9FB"/>
<path d="M72.5 10H70V15H72.5V10Z" fill="#0092A8"/>
<path d="M32.5 12.5H30V15H32.5V12.5Z" fill="#002A31"/>
<path d="M35 12.5H32.5V15H35V12.5Z" fill="#00788A"/>
<path d="M37.5 12.5H35V17.5H37.5V12.5Z" fill="#0092A8"/>
<path d="M42.5 12.5H37.5V15H42.5V12.5Z" fill="#00BFDC"/>
<path d="M45 12.5H42.5V17.5H45V12.5Z" fill="#0092A8"/>
<path d="M47.5 12.5H45V15H47.5V12.5Z" fill="#00788A"/>
<path d="M50 12.5H47.5V15H50V12.5Z" fill="#002A31"/>
<path d="M65 12.5H60V15H65V12.5Z" fill="#0092A8"/>
<path d="M77.5 12.5H72.5V15H77.5V12.5Z" fill="#0092A8"/>
<path d="M80 12.5H77.5V80H80V12.5Z" fill="#002A31"/>
<path d="M15 15H7.5V55H15V15Z" fill="#002A31"/>
<path d="M17.5 15H15V17.5H17.5V15Z" fill="#00BFDC"/>
<path d="M27.5 15H17.5V27.5H27.5V15Z" fill="#002A31"/>
<path d="M35 15H27.5V17.5H35V15Z" fill="#0092A8"/>
<path d="M42.5 15H37.5V17.5H42.5V15Z" fill="#0092A8"/>
<path d="M52.5 15H45V17.5H52.5V15Z" fill="#0092A8"/>
<path d="M62.5 15H60V20H62.5V15Z" fill="#0092A8"/>
<path d="M67.5 15H62.5V17.5H67.5V15Z" fill="#E2F9FB"/>
<path d="M75 15H70V17.5H75V15Z" fill="#00BFDC"/>
<path d="M77.5 15H75V20H77.5V15Z" fill="#0092A8"/>
<path d="M17.5 17.5H15V27.5H17.5V17.5Z" fill="#002A31"/>
<path d="M30 17.5H27.5V27.5H30V17.5Z" fill="#0092A8"/>
<path d="M50 17.5H30V20H50V17.5Z" fill="#002A31"/>
<path d="M52.5 17.5H50V27.5H52.5V17.5Z" fill="#0092A8"/>
<path d="M67.5 17.5H62.5V20H67.5V17.5Z" fill="#0092A8"/>
<path d="M70 17.5H67.5V22.5H70V17.5Z" fill="#00BFDC"/>
<path d="M75 17.5H70V20H75V17.5Z" fill="#0092A8"/>
<path d="M32.5 20H30V32.5H32.5V20Z" fill="#002A31"/>
<path d="M47.5 20H32.5V27.5H47.5V20Z" fill="#E2F9FB"/>
<path d="M50 20H47.5V32.5H50V20Z" fill="#002A31"/>
<path d="M65 20H60V27.5H65V20Z" fill="#002A31"/>
<path d="M67.5 20H65V25H67.5V20Z" fill="#0092A8"/>
<path d="M72.5 20H70V25H72.5V20Z" fill="#0092A8"/>
<path d="M77.5 20H72.5V32.5H77.5V20Z" fill="#002A31"/>
<path d="M70 22.5H67.5V25H70V22.5Z" fill="#0092A8"/>
<path d="M7.5 25H5V27.5H7.5V25Z" fill="#00BFDC"/>
<path d="M72.5 25H65V62.5H72.5V25Z" fill="#002A31"/>
<path d="M7.5 27.5H5V45H7.5V27.5Z" fill="#002A31"/>
<path d="M27.5 27.5H15V30H27.5V27.5Z" fill="#0092A8"/>
<path d="M30 27.5H27.5V30H30V27.5Z" fill="#00BFDC"/>
<path d="M47.5 27.5H32.5V35H47.5V27.5Z" fill="#00BFDC"/>
<path d="M52.5 27.5H50V30H52.5V27.5Z" fill="#00BFDC"/>
<path d="M65 27.5H52.5V30H65V27.5Z" fill="#0092A8"/>
<path d="M17.5 30H15V37.5H17.5V30Z" fill="#0092A8"/>
<path d="M30 30H17.5V32.5H30V30Z" fill="#002A31"/>
<path d="M62.5 30H50V32.5H62.5V30Z" fill="#002A31"/>
<path d="M65 30H62.5V37.5H65V30Z" fill="#0092A8"/>
<path d="M20 32.5H17.5V50H20V32.5Z" fill="#002A31"/>
<path d="M32.5 32.5H20V35H32.5V32.5Z" fill="#00BFDC"/>
<path d="M60 32.5H47.5V35H60V32.5Z" fill="#00BFDC"/>
<path d="M62.5 32.5H60V50H62.5V32.5Z" fill="#002A31"/>
<path d="M75 32.5H72.5V42.5H75V32.5Z" fill="#002A31"/>
<path d="M77.5 32.5H75V35H77.5V32.5Z" fill="#00BFDC"/>
<path d="M60 35H20V45H60V35Z" fill="#0094AB"/>
<path d="M77.5 35H75V80H77.5V35Z" fill="#002A31"/>
<path d="M17.5 37.5H15V52.5H17.5V37.5Z" fill="#005A67"/>
<path d="M65 37.5H62.5V52.5H65V37.5Z" fill="#005A67"/>
<path d="M75 42.5H72.5V45H75V42.5Z" fill="#00BFDC"/>
<path d="M7.5 45H5V47.5H7.5V45Z" fill="#00BFDC"/>
<path d="M60 45H20V47.5H60V45Z" fill="#00788A"/>
<path d="M75 45H72.5V72.5H75V45Z" fill="#002A31"/>
<path d="M7.5 47.5H5V60H7.5V47.5Z" fill="#002A31"/>
<path d="M32.5 47.5H20V50H32.5V47.5Z" fill="#002A31"/>
<path d="M47.5 47.5H32.5V52.5H47.5V47.5Z" fill="#00788A"/>
<path d="M60 47.5H47.5V50H60V47.5Z" fill="#002A31"/>
<path d="M27.5 50H17.5V52.5H27.5V50Z" fill="#005A67"/>
<path d="M30 50H27.5V52.5H30V50Z" fill="#0092A8"/>
<path d="M32.5 50H30V62.5H32.5V50Z" fill="#002A31"/>
<path d="M50 50H47.5V62.5H50V50Z" fill="#002A31"/>
<path d="M52.5 50H50V52.5H52.5V50Z" fill="#0092A8"/>
<path d="M62.5 50H52.5V52.5H62.5V50Z" fill="#005A67"/>
<path d="M27.5 52.5H15V60H27.5V52.5Z" fill="#002A31"/>
<path d="M30 52.5H27.5V65H30V52.5Z" fill="#005A67"/>
<path d="M47.5 52.5H32.5V60H47.5V52.5Z" fill="#004E5A"/>
<path d="M52.5 52.5H50V65H52.5V52.5Z" fill="#005A67"/>
<path d="M65 52.5H52.5V70H65V52.5Z" fill="#002A31"/>
<path d="M15 55H7.5V57.5H15V55Z" fill="#005A67"/>
<path d="M10 57.5H7.5V62.5H10V57.5Z" fill="#005A67"/>
<path d="M12.5 57.5H10V65H12.5V57.5Z" fill="#00BFDC"/>
<path d="M15 57.5H12.5V62.5H15V57.5Z" fill="#005A67"/>
<path d="M7.5 60H2.5V62.5H7.5V60Z" fill="#005A67"/>
<path d="M20 60H15V62.5H20V60Z" fill="#005A67"/>
<path d="M27.5 60H20V80H27.5V60Z" fill="#002A31"/>
<path d="M47.5 60H32.5V62.5H47.5V60Z" fill="#002A31"/>
<path d="M5 62.5H2.5V67.5H5V62.5Z" fill="#005A67"/>
<path d="M10 62.5H5V65H10V62.5Z" fill="#00BFDC"/>
<path d="M17.5 62.5H12.5V65H17.5V62.5Z" fill="#0092A8"/>
<path d="M20 62.5H17.5V67.5H20V62.5Z" fill="#005A67"/>
<path d="M50 62.5H30V65H50V62.5Z" fill="#005A67"/>
<path d="M67.5 62.5H65V65H67.5V62.5Z" fill="#00BFDC"/>
<path d="M72.5 62.5H67.5V80H72.5V62.5Z" fill="#002A31"/>
<path d="M10 65H5V67.5H10V65Z" fill="#005A67"/>
<path d="M12.5 65H10V70H12.5V65Z" fill="#0092A8"/>
<path d="M17.5 65H12.5V67.5H17.5V65Z" fill="#005A67"/>
<path d="M32.5 65H27.5V67.5H32.5V65Z" fill="#002A31"/>
<path d="M35 65H32.5V67.5H35V65Z" fill="#004E5A"/>
<path d="M37.5 65H35V67.5H37.5V65Z" fill="#005A67"/>
<path d="M42.5 65H37.5V80H42.5V65Z" fill="#0092A8"/>
<path d="M45 65H42.5V67.5H45V65Z" fill="#005A67"/>
<path d="M47.5 65H45V67.5H47.5V65Z" fill="#004E5A"/>
<path d="M52.5 65H47.5V67.5H52.5V65Z" fill="#002A31"/>
<path d="M67.5 65H65V80H67.5V65Z" fill="#002A31"/>
<path d="M7.5 67.5H2.5V75H7.5V67.5Z" fill="#002A31"/>
<path d="M10 67.5H7.5V72.5H10V67.5Z" fill="#005A67"/>
<path d="M15 67.5H12.5V72.5H15V67.5Z" fill="#005A67"/>
<path d="M20 67.5H15V75H20V67.5Z" fill="#002A31"/>
<path d="M30 67.5H27.5V70H30V67.5Z" fill="#002A31"/>
<path d="M32.5 67.5H30V70H32.5V67.5Z" fill="#004E5A"/>
<path d="M35 67.5H32.5V70H35V67.5Z" fill="#005A67"/>
<path d="M37.5 67.5H35V80H37.5V67.5Z" fill="#0092A8"/>
<path d="M45 67.5H42.5V80H45V67.5Z" fill="#0092A8"/>
<path d="M47.5 67.5H45V70H47.5V67.5Z" fill="#005A67"/>
<path d="M50 67.5H47.5V70H50V67.5Z" fill="#004E5A"/>
<path d="M52.5 67.5H50V70H52.5V67.5Z" fill="#002A31"/>
<path d="M12.5 70H10V72.5H12.5V70Z" fill="#005A67"/>
<path d="M30 70H27.5V80H30V70Z" fill="#004E5A"/>
<path d="M32.5 70H30V80H32.5V70Z" fill="#005A67"/>
<path d="M35 70H32.5V80H35V70Z" fill="#0092A8"/>
<path d="M47.5 70H45V80H47.5V70Z" fill="#0092A8"/>
<path d="M50 70H47.5V80H50V70Z" fill="#005A67"/>
<path d="M52.5 70H50V80H52.5V70Z" fill="#004E5A"/>
<path d="M55 70H52.5V80H55V70Z" fill="#002A31"/>
<path d="M57.5 70H55V72.5H57.5V70Z" fill="#00BFDC"/>
<path d="M65 70H57.5V80H65V70Z" fill="#002A31"/>
<path d="M15 72.5H7.5V80H15V72.5Z" fill="#002A31"/>
<path d="M57.5 72.5H55V80H57.5V72.5Z" fill="#002A31"/>
<path d="M75 72.5H72.5V75H75V72.5Z" fill="#00BFDC"/>
<path d="M5 75H2.5V77.5H5V75Z" fill="#00BFDC"/>
<path d="M7.5 75H5V80H7.5V75Z" fill="#002A31"/>
<path d="M17.5 75H15V77.5H17.5V75Z" fill="#00BFDC"/>
<path d="M20 75H17.5V80H20V75Z" fill="#002A31"/>
<path d="M75 75H72.5V80H75V75Z" fill="#002A31"/>
<path d="M5 77.5H2.5V80H5V77.5Z" fill="#002A31"/>
<path d="M17.5 77.5H15V80H17.5V77.5Z" fill="#002A31"/>
<path d="M0 60H3V80H0V60Z" fill="#002A31"/>
</svg>
