<svg width="80" height="80" viewBox="0 0 80 80" fill="none" xmlns="http://www.w3.org/2000/svg">
<path d="M65 0H0V2.5H65V0Z" fill="#570F0A"/>
<path d="M67.5 0H65V2.5H67.5V0Z" fill="#9C1704"/>
<path d="M72.5 0H67.5V2.5H72.5V0Z" fill="#F33712"/>
<path d="M75 0H72.5V2.5H75V0Z" fill="#EAB125"/>
<path d="M80 0H75V5H80V0Z" fill="#F2D9A1"/>
<path d="M62.5 2.5H0V5H62.5V2.5Z" fill="#570F0A"/>
<path d="M65 2.5H62.5V5H65V2.5Z" fill="#9C1704"/>
<path d="M70 2.5H65V5H70V2.5Z" fill="#F33712"/>
<path d="M72.5 2.5H70V5H72.5V2.5Z" fill="#EAB125"/>
<path d="M75 2.5H72.5V10H75V2.5Z" fill="#F2D9A1"/>
<path d="M60 5H0V7.5H60V5Z" fill="#570F0A"/>
<path d="M62.5 5H60V7.5H62.5V5Z" fill="#9C1704"/>
<path d="M67.5 5H62.5V7.5H67.5V5Z" fill="#F33712"/>
<path d="M70 5H67.5V7.5H70V5Z" fill="#EAB125"/>
<path d="M72.5 5H70V12.5H72.5V5Z" fill="#F2D9A1"/>
<path d="M77.5 5H75V7.5H77.5V5Z" fill="#F2D9A1"/>
<path d="M80 5H77.5V7.5H80V5Z" fill="#EAB125"/>
<path d="M57.5 7.5H0V10H57.5V7.5Z" fill="#570F0A"/>
<path d="M60 7.5H57.5V10H60V7.5Z" fill="#9C1704"/>
<path d="M65 7.5H60V10H65V7.5Z" fill="#F33712"/>
<path d="M67.5 7.5H65V10H67.5V7.5Z" fill="#EAB125"/>
<path d="M70 7.5H67.5V15H70V7.5Z" fill="#F2D9A1"/>
<path d="M77.5 7.5H75V10H77.5V7.5Z" fill="#EAB125"/>
<path d="M80 7.5H77.5V12.5H80V7.5Z" fill="#F33712"/>
<path d="M55 10H0V12.5H55V10Z" fill="#570F0A"/>
<path d="M57.5 10H55V12.5H57.5V10Z" fill="#9C1704"/>
<path d="M62.5 10H57.5V12.5H62.5V10Z" fill="#F33712"/>
<path d="M65 10H62.5V12.5H65V10Z" fill="#EAB125"/>
<path d="M67.5 10H65V17.5H67.5V10Z" fill="#F2D9A1"/>
<path d="M75 10H72.5V12.5H75V10Z" fill="#EAB125"/>
<path d="M77.5 10H75V15H77.5V10Z" fill="#F33712"/>
<path d="M52.5 12.5H0V15H52.5V12.5Z" fill="#570F0A"/>
<path d="M55 12.5H52.5V15H55V12.5Z" fill="#9C1704"/>
<path d="M60 12.5H55V15H60V12.5Z" fill="#F33712"/>
<path d="M62.5 12.5H60V15H62.5V12.5Z" fill="#EAB125"/>
<path d="M65 12.5H62.5V20H65V12.5Z" fill="#F2D9A1"/>
<path d="M72.5 12.5H70V15H72.5V12.5Z" fill="#EAB125"/>
<path d="M75 12.5H72.5V17.5H75V12.5Z" fill="#F33712"/>
<path d="M80 12.5H77.5V15H80V12.5Z" fill="#9C1704"/>
<path d="M50 15H0V17.5H50V15Z" fill="#570F0A"/>
<path d="M52.5 15H50V17.5H52.5V15Z" fill="#9C1704"/>
<path d="M57.5 15H52.5V17.5H57.5V15Z" fill="#F33712"/>
<path d="M60 15H57.5V17.5H60V15Z" fill="#EAB125"/>
<path d="M62.5 15H60V22.5H62.5V15Z" fill="#F2D9A1"/>
<path d="M70 15H67.5V17.5H70V15Z" fill="#EAB125"/>
<path d="M72.5 15H70V20H72.5V15Z" fill="#F33712"/>
<path d="M77.5 15H75V17.5H77.5V15Z" fill="#9C1704"/>
<path d="M80 15H77.5V80H80V15Z" fill="#570F0A"/>
<path d="M47.5 17.5H0V20H47.5V17.5Z" fill="#570F0A"/>
<path d="M50 17.5H47.5V20H50V17.5Z" fill="#9C1704"/>
<path d="M55 17.5H50V20H55V17.5Z" fill="#F33712"/>
<path d="M57.5 17.5H55V20H57.5V17.5Z" fill="#EAB125"/>
<path d="M60 17.5H57.5V25H60V17.5Z" fill="#F2D9A1"/>
<path d="M67.5 17.5H65V20H67.5V17.5Z" fill="#EAB125"/>
<path d="M70 17.5H67.5V22.5H70V17.5Z" fill="#F33712"/>
<path d="M75 17.5H72.5V20H75V17.5Z" fill="#9C1704"/>
<path d="M77.5 17.5H75V80H77.5V17.5Z" fill="#570F0A"/>
<path d="M45 20H0V22.5H45V20Z" fill="#570F0A"/>
<path d="M47.5 20H45V22.5H47.5V20Z" fill="#9C1704"/>
<path d="M52.5 20H47.5V22.5H52.5V20Z" fill="#F33712"/>
<path d="M55 20H52.5V22.5H55V20Z" fill="#EAB125"/>
<path d="M57.5 20H55V27.5H57.5V20Z" fill="#F2D9A1"/>
<path d="M65 20H62.5V22.5H65V20Z" fill="#EAB125"/>
<path d="M67.5 20H65V25H67.5V20Z" fill="#F33712"/>
<path d="M72.5 20H70V22.5H72.5V20Z" fill="#9C1704"/>
<path d="M75 20H72.5V80H75V20Z" fill="#570F0A"/>
<path d="M42.5 22.5H0V25H42.5V22.5Z" fill="#570F0A"/>
<path d="M45 22.5H42.5V25H45V22.5Z" fill="#9C1704"/>
<path d="M50 22.5H45V25H50V22.5Z" fill="#F33712"/>
<path d="M52.5 22.5H50V25H52.5V22.5Z" fill="#EAB125"/>
<path d="M55 22.5H52.5V30H55V22.5Z" fill="#F2D9A1"/>
<path d="M62.5 22.5H60V25H62.5V22.5Z" fill="#EAB125"/>
<path d="M65 22.5H62.5V27.5H65V22.5Z" fill="#F33712"/>
<path d="M70 22.5H67.5V25H70V22.5Z" fill="#9C1704"/>
<path d="M72.5 22.5H70V80H72.5V22.5Z" fill="#570F0A"/>
<path d="M40 25H0V27.5H40V25Z" fill="#570F0A"/>
<path d="M42.5 25H40V27.5H42.5V25Z" fill="#9C1704"/>
<path d="M47.5 25H42.5V27.5H47.5V25Z" fill="#F33712"/>
<path d="M50 25H47.5V27.5H50V25Z" fill="#EAB125"/>
<path d="M52.5 25H50V32.5H52.5V25Z" fill="#F2D9A1"/>
<path d="M60 25H57.5V27.5H60V25Z" fill="#EAB125"/>
<path d="M62.5 25H60V30H62.5V25Z" fill="#F33712"/>
<path d="M67.5 25H65V27.5H67.5V25Z" fill="#9C1704"/>
<path d="M70 25H67.5V80H70V25Z" fill="#570F0A"/>
<path d="M2.5 27.5H0V32.5H2.5V27.5Z" fill="#EAB125"/>
<path d="M7.5 27.5H2.5V30H7.5V27.5Z" fill="#F33712"/>
<path d="M10 27.5H7.5V30H10V27.5Z" fill="#9C1704"/>
<path d="M37.5 27.5H10V30H37.5V27.5Z" fill="#570F0A"/>
<path d="M40 27.5H37.5V30H40V27.5Z" fill="#9C1704"/>
<path d="M45 27.5H40V30H45V27.5Z" fill="#F33712"/>
<path d="M47.5 27.5H45V30H47.5V27.5Z" fill="#EAB125"/>
<path d="M50 27.5H47.5V35H50V27.5Z" fill="#F2D9A1"/>
<path d="M57.5 27.5H55V30H57.5V27.5Z" fill="#EAB125"/>
<path d="M60 27.5H57.5V32.5H60V27.5Z" fill="#F33712"/>
<path d="M65 27.5H62.5V30H65V27.5Z" fill="#9C1704"/>
<path d="M67.5 27.5H65V80H67.5V27.5Z" fill="#570F0A"/>
<path d="M5 30H2.5V35H5V30Z" fill="#EAB125"/>
<path d="M10 30H5V32.5H10V30Z" fill="#F33712"/>
<path d="M12.5 30H10V32.5H12.5V30Z" fill="#9C1704"/>
<path d="M35 30H12.5V32.5H35V30Z" fill="#570F0A"/>
<path d="M37.5 30H35V32.5H37.5V30Z" fill="#9C1704"/>
<path d="M42.5 30H37.5V32.5H42.5V30Z" fill="#F33712"/>
<path d="M45 30H42.5V32.5H45V30Z" fill="#EAB125"/>
<path d="M47.5 30H45V37.5H47.5V30Z" fill="#F2D9A1"/>
<path d="M55 30H52.5V32.5H55V30Z" fill="#EAB125"/>
<path d="M57.5 30H55V35H57.5V30Z" fill="#F33712"/>
<path d="M62.5 30H60V32.5H62.5V30Z" fill="#9C1704"/>
<path d="M65 30H62.5V80H65V30Z" fill="#570F0A"/>
<path d="M2.5 32.5H0V35H2.5V32.5Z" fill="#F2D9A1"/>
<path d="M7.5 32.5H5V37.5H7.5V32.5Z" fill="#EAB125"/>
<path d="M12.5 32.5H7.5V35H12.5V32.5Z" fill="#F33712"/>
<path d="M15 32.5H12.5V35H15V32.5Z" fill="#9C1704"/>
<path d="M32.5 32.5H15V35H32.5V32.5Z" fill="#570F0A"/>
<path d="M35 32.5H32.5V35H35V32.5Z" fill="#9C1704"/>
<path d="M40 32.5H35V35H40V32.5Z" fill="#F33712"/>
<path d="M42.5 32.5H40V35H42.5V32.5Z" fill="#EAB125"/>
<path d="M45 32.5H42.5V40H45V32.5Z" fill="#F2D9A1"/>
<path d="M52.5 32.5H50V35H52.5V32.5Z" fill="#EAB125"/>
<path d="M55 32.5H52.5V37.5H55V32.5Z" fill="#F33712"/>
<path d="M60 32.5H57.5V35H60V32.5Z" fill="#9C1704"/>
<path d="M62.5 32.5H60V80H62.5V32.5Z" fill="#570F0A"/>
<path d="M2.5 35H0V40H2.5V35Z" fill="#EAB125"/>
<path d="M5 35H2.5V37.5H5V35Z" fill="#F2D9A1"/>
<path d="M10 35H7.5V37.5H10V35Z" fill="#EAB125"/>
<path d="M15 35H10V37.5H15V35Z" fill="#F33712"/>
<path d="M17.5 35H15V37.5H17.5V35Z" fill="#9C1704"/>
<path d="M30 35H17.5V37.5H30V35Z" fill="#570F0A"/>
<path d="M32.5 35H30V37.5H32.5V35Z" fill="#9C1704"/>
<path d="M37.5 35H32.5V37.5H37.5V35Z" fill="#F33712"/>
<path d="M40 35H37.5V37.5H40V35Z" fill="#EAB125"/>
<path d="M42.5 35H40V42.5H42.5V35Z" fill="#F2D9A1"/>
<path d="M50 35H47.5V37.5H50V35Z" fill="#EAB125"/>
<path d="M52.5 35H50V40H52.5V35Z" fill="#F33712"/>
<path d="M57.5 35H55V37.5H57.5V35Z" fill="#9C1704"/>
<path d="M60 35H57.5V80H60V35Z" fill="#570F0A"/>
<path d="M5 37.5H2.5V42.5H5V37.5Z" fill="#EAB125"/>
<path d="M10 37.5H5V42.5H10V37.5Z" fill="#F2D9A1"/>
<path d="M12.5 37.5H10V40H12.5V37.5Z" fill="#EAB125"/>
<path d="M17.5 37.5H12.5V40H17.5V37.5Z" fill="#F33712"/>
<path d="M20 37.5H17.5V40H20V37.5Z" fill="#9C1704"/>
<path d="M27.5 37.5H20V40H27.5V37.5Z" fill="#570F0A"/>
<path d="M30 37.5H27.5V40H30V37.5Z" fill="#9C1704"/>
<path d="M35 37.5H30V40H35V37.5Z" fill="#F33712"/>
<path d="M37.5 37.5H35V40H37.5V37.5Z" fill="#EAB125"/>
<path d="M40 37.5H37.5V45H40V37.5Z" fill="#F2D9A1"/>
<path d="M47.5 37.5H45V40H47.5V37.5Z" fill="#EAB125"/>
<path d="M50 37.5H47.5V42.5H50V37.5Z" fill="#F33712"/>
<path d="M55 37.5H52.5V40H55V37.5Z" fill="#9C1704"/>
<path d="M57.5 37.5H55V80H57.5V37.5Z" fill="#570F0A"/>
<path d="M2.5 40H0V45H2.5V40Z" fill="#F33712"/>
<path d="M12.5 40H10V47.5H12.5V40Z" fill="#F2D9A1"/>
<path d="M15 40H12.5V42.5H15V40Z" fill="#EAB125"/>
<path d="M20 40H15V42.5H20V40Z" fill="#F33712"/>
<path d="M22.5 40H20V42.5H22.5V40Z" fill="#9C1704"/>
<path d="M25 40H22.5V42.5H25V40Z" fill="#570F0A"/>
<path d="M27.5 40H25V42.5H27.5V40Z" fill="#9C1704"/>
<path d="M32.5 40H27.5V42.5H32.5V40Z" fill="#F33712"/>
<path d="M35 40H32.5V42.5H35V40Z" fill="#EAB125"/>
<path d="M37.5 40H35V47.5H37.5V40Z" fill="#F2D9A1"/>
<path d="M45 40H42.5V42.5H45V40Z" fill="#EAB125"/>
<path d="M47.5 40H45V45H47.5V40Z" fill="#F33712"/>
<path d="M52.5 40H50V42.5H52.5V40Z" fill="#9C1704"/>
<path d="M55 40H52.5V80H55V40Z" fill="#570F0A"/>
<path d="M5 42.5H2.5V47.5H5V42.5Z" fill="#F33712"/>
<path d="M7.5 42.5H5V45H7.5V42.5Z" fill="#EAB125"/>
<path d="M10 42.5H7.5V45H10V42.5Z" fill="#F2D9A1"/>
<path d="M15 42.5H12.5V50H15V42.5Z" fill="#F2D9A1"/>
<path d="M17.5 42.5H15V45H17.5V42.5Z" fill="#EAB125"/>
<path d="M22.5 42.5H17.5V45H22.5V42.5Z" fill="#F33712"/>
<path d="M25 42.5H22.5V45H25V42.5Z" fill="#9C1704"/>
<path d="M30 42.5H25V45H30V42.5Z" fill="#F33712"/>
<path d="M32.5 42.5H30V45H32.5V42.5Z" fill="#EAB125"/>
<path d="M35 42.5H32.5V50H35V42.5Z" fill="#F2D9A1"/>
<path d="M42.5 42.5H40V45H42.5V42.5Z" fill="#EAB125"/>
<path d="M45 42.5H42.5V47.5H45V42.5Z" fill="#F33712"/>
<path d="M50 42.5H47.5V45H50V42.5Z" fill="#9C1704"/>
<path d="M52.5 42.5H50V70H52.5V42.5Z" fill="#570F0A"/>
<path d="M2.5 45H0V47.5H2.5V45Z" fill="#9C1704"/>
<path d="M7.5 45H5V50H7.5V45Z" fill="#F33712"/>
<path d="M10 45H7.5V47.5H10V45Z" fill="#EAB125"/>
<path d="M17.5 45H15V52.5H17.5V45Z" fill="#F2D9A1"/>
<path d="M20 45H17.5V47.5H20V45Z" fill="#EAB125"/>
<path d="M27.5 45H20V47.5H27.5V45Z" fill="#F33712"/>
<path d="M30 45H27.5V47.5H30V45Z" fill="#EAB125"/>
<path d="M32.5 45H30V52.5H32.5V45Z" fill="#F2D9A1"/>
<path d="M40 45H37.5V47.5H40V45Z" fill="#EAB125"/>
<path d="M42.5 45H40V50H42.5V45Z" fill="#F33712"/>
<path d="M47.5 45H45V47.5H47.5V45Z" fill="#9C1704"/>
<path d="M50 45H47.5V67.5H50V45Z" fill="#570F0A"/>
<path d="M2.5 47.5H0V65H2.5V47.5Z" fill="#570F0A"/>
<path d="M5 47.5H2.5V50H5V47.5Z" fill="#9C1704"/>
<path d="M10 47.5H7.5V52.5H10V47.5Z" fill="#F33712"/>
<path d="M12.5 47.5H10V50H12.5V47.5Z" fill="#EAB125"/>
<path d="M20 47.5H17.5V55H20V47.5Z" fill="#F2D9A1"/>
<path d="M22.5 47.5H20V50H22.5V47.5Z" fill="#EAB125"/>
<path d="M25 47.5H22.5V50H25V47.5Z" fill="#F33712"/>
<path d="M27.5 47.5H25V50H27.5V47.5Z" fill="#EAB125"/>
<path d="M30 47.5H27.5V55H30V47.5Z" fill="#F2D9A1"/>
<path d="M37.5 47.5H35V50H37.5V47.5Z" fill="#EAB125"/>
<path d="M40 47.5H37.5V52.5H40V47.5Z" fill="#F33712"/>
<path d="M45 47.5H42.5V50H45V47.5Z" fill="#9C1704"/>
<path d="M47.5 47.5H45V65H47.5V47.5Z" fill="#570F0A"/>
<path d="M5 50H2.5V62.5H5V50Z" fill="#570F0A"/>
<path d="M7.5 50H5V52.5H7.5V50Z" fill="#9C1704"/>
<path d="M12.5 50H10V55H12.5V50Z" fill="#F33712"/>
<path d="M15 50H12.5V52.5H15V50Z" fill="#EAB125"/>
<path d="M22.5 50H20V62.5H22.5V50Z" fill="#F2D9A1"/>
<path d="M25 50H22.5V52.5H25V50Z" fill="#EAB125"/>
<path d="M27.5 50H25V62.5H27.5V50Z" fill="#F2D9A1"/>
<path d="M35 50H32.5V52.5H35V50Z" fill="#EAB125"/>
<path d="M37.5 50H35V55H37.5V50Z" fill="#F33712"/>
<path d="M42.5 50H40V52.5H42.5V50Z" fill="#9C1704"/>
<path d="M45 50H42.5V62.5H45V50Z" fill="#570F0A"/>
<path d="M7.5 52.5H5V60H7.5V52.5Z" fill="#570F0A"/>
<path d="M10 52.5H7.5V55H10V52.5Z" fill="#9C1704"/>
<path d="M15 52.5H12.5V60H15V52.5Z" fill="#F33712"/>
<path d="M17.5 52.5H15V55H17.5V52.5Z" fill="#EAB125"/>
<path d="M25 52.5H22.5V60H25V52.5Z" fill="#F2D9A1"/>
<path d="M32.5 52.5H30V55H32.5V52.5Z" fill="#EAB125"/>
<path d="M35 52.5H32.5V60H35V52.5Z" fill="#F33712"/>
<path d="M40 52.5H37.5V55H40V52.5Z" fill="#9C1704"/>
<path d="M42.5 52.5H40V60H42.5V52.5Z" fill="#570F0A"/>
<path d="M10 55H7.5V57.5H10V55Z" fill="#570F0A"/>
<path d="M12.5 55H10V57.5H12.5V55Z" fill="#9C1704"/>
<path d="M17.5 55H15V57.5H17.5V55Z" fill="#F33712"/>
<path d="M20 55H17.5V57.5H20V55Z" fill="#EAB125"/>
<path d="M30 55H27.5V57.5H30V55Z" fill="#EAB125"/>
<path d="M32.5 55H30V57.5H32.5V55Z" fill="#F33712"/>
<path d="M37.5 55H35V57.5H37.5V55Z" fill="#9C1704"/>
<path d="M40 55H37.5V57.5H40V55Z" fill="#570F0A"/>
<path d="M10 57.5H7.5V60H10V57.5Z" fill="#9C1704"/>
<path d="M12.5 57.5H10V62.5H12.5V57.5Z" fill="#F33712"/>
<path d="M17.5 57.5H15V60H17.5V57.5Z" fill="#EAB125"/>
<path d="M20 57.5H17.5V65H20V57.5Z" fill="#F2D9A1"/>
<path d="M30 57.5H27.5V65H30V57.5Z" fill="#F2D9A1"/>
<path d="M32.5 57.5H30V60H32.5V57.5Z" fill="#EAB125"/>
<path d="M37.5 57.5H35V62.5H37.5V57.5Z" fill="#F33712"/>
<path d="M40 57.5H37.5V60H40V57.5Z" fill="#9C1704"/>
<path d="M7.5 60H5V62.5H7.5V60Z" fill="#9C1704"/>
<path d="M10 60H7.5V65H10V60Z" fill="#F33712"/>
<path d="M15 60H12.5V62.5H15V60Z" fill="#EAB125"/>
<path d="M17.5 60H15V67.5H17.5V60Z" fill="#F2D9A1"/>
<path d="M25 60H22.5V62.5H25V60Z" fill="#EAB125"/>
<path d="M32.5 60H30V67.5H32.5V60Z" fill="#F2D9A1"/>
<path d="M35 60H32.5V62.5H35V60Z" fill="#EAB125"/>
<path d="M40 60H37.5V65H40V60Z" fill="#F33712"/>
<path d="M42.5 60H40V62.5H42.5V60Z" fill="#9C1704"/>
<path d="M5 62.5H2.5V65H5V62.5Z" fill="#9C1704"/>
<path d="M7.5 62.5H5V67.5H7.5V62.5Z" fill="#F33712"/>
<path d="M12.5 62.5H10V65H12.5V62.5Z" fill="#EAB125"/>
<path d="M15 62.5H12.5V70H15V62.5Z" fill="#F2D9A1"/>
<path d="M22.5 62.5H20V65H22.5V62.5Z" fill="#EAB125"/>
<path d="M25 62.5H22.5V67.5H25V62.5Z" fill="#F33712"/>
<path d="M27.5 62.5H25V65H27.5V62.5Z" fill="#EAB125"/>
<path d="M35 62.5H32.5V70H35V62.5Z" fill="#F2D9A1"/>
<path d="M37.5 62.5H35V65H37.5V62.5Z" fill="#EAB125"/>
<path d="M42.5 62.5H40V67.5H42.5V62.5Z" fill="#F33712"/>
<path d="M45 62.5H42.5V65H45V62.5Z" fill="#9C1704"/>
<path d="M2.5 65H0V67.5H2.5V65Z" fill="#9C1704"/>
<path d="M5 65H2.5V70H5V65Z" fill="#F33712"/>
<path d="M10 65H7.5V67.5H10V65Z" fill="#EAB125"/>
<path d="M12.5 65H10V72.5H12.5V65Z" fill="#F2D9A1"/>
<path d="M20 65H17.5V67.5H20V65Z" fill="#EAB125"/>
<path d="M22.5 65H20V70H22.5V65Z" fill="#F33712"/>
<path d="M27.5 65H25V70H27.5V65Z" fill="#F33712"/>
<path d="M30 65H27.5V67.5H30V65Z" fill="#EAB125"/>
<path d="M37.5 65H35V72.5H37.5V65Z" fill="#F2D9A1"/>
<path d="M40 65H37.5V67.5H40V65Z" fill="#EAB125"/>
<path d="M45 65H42.5V70H45V65Z" fill="#F33712"/>
<path d="M47.5 65H45V67.5H47.5V65Z" fill="#9C1704"/>
<path d="M2.5 67.5H0V72.5H2.5V67.5Z" fill="#F33712"/>
<path d="M7.5 67.5H5V72.5H7.5V67.5Z" fill="#EAB125"/>
<path d="M10 67.5H7.5V72.5H10V67.5Z" fill="#F2D9A1"/>
<path d="M17.5 67.5H15V70H17.5V67.5Z" fill="#EAB125"/>
<path d="M20 67.5H17.5V72.5H20V67.5Z" fill="#F33712"/>
<path d="M25 67.5H22.5V70H25V67.5Z" fill="#9C1704"/>
<path d="M30 67.5H27.5V72.5H30V67.5Z" fill="#F33712"/>
<path d="M32.5 67.5H30V70H32.5V67.5Z" fill="#EAB125"/>
<path d="M40 67.5H37.5V75H40V67.5Z" fill="#F2D9A1"/>
<path d="M42.5 67.5H40V70H42.5V67.5Z" fill="#EAB125"/>
<path d="M47.5 67.5H45V72.5H47.5V67.5Z" fill="#F33712"/>
<path d="M50 67.5H47.5V70H50V67.5Z" fill="#9C1704"/>
<path d="M5 70H2.5V75H5V70Z" fill="#EAB125"/>
<path d="M15 70H12.5V72.5H15V70Z" fill="#EAB125"/>
<path d="M17.5 70H15V75H17.5V70Z" fill="#F33712"/>
<path d="M22.5 70H20V72.5H22.5V70Z" fill="#9C1704"/>
<path d="M25 70H22.5V80H25V70Z" fill="#570F0A"/>
<path d="M27.5 70H25V72.5H27.5V70Z" fill="#9C1704"/>
<path d="M32.5 70H30V75H32.5V70Z" fill="#F33712"/>
<path d="M35 70H32.5V72.5H35V70Z" fill="#EAB125"/>
<path d="M42.5 70H40V77.5H42.5V70Z" fill="#F2D9A1"/>
<path d="M45 70H42.5V72.5H45V70Z" fill="#EAB125"/>
<path d="M50 70H47.5V80H50V70Z" fill="#F33712"/>
<path d="M52.5 70H50V80H52.5V70Z" fill="#9C1704"/>
<path d="M2.5 72.5H0V77.5H2.5V72.5Z" fill="#EAB125"/>
<path d="M7.5 72.5H5V75H7.5V72.5Z" fill="#F2D9A1"/>
<path d="M12.5 72.5H7.5V75H12.5V72.5Z" fill="#EAB125"/>
<path d="M15 72.5H12.5V77.5H15V72.5Z" fill="#F33712"/>
<path d="M20 72.5H17.5V75H20V72.5Z" fill="#9C1704"/>
<path d="M22.5 72.5H20V80H22.5V72.5Z" fill="#570F0A"/>
<path d="M27.5 72.5H25V80H27.5V72.5Z" fill="#570F0A"/>
<path d="M30 72.5H27.5V75H30V72.5Z" fill="#9C1704"/>
<path d="M35 72.5H32.5V77.5H35V72.5Z" fill="#F33712"/>
<path d="M37.5 72.5H35V75H37.5V72.5Z" fill="#EAB125"/>
<path d="M45 72.5H42.5V80H45V72.5Z" fill="#F2D9A1"/>
<path d="M47.5 72.5H45V75H47.5V72.5Z" fill="#EAB125"/>
<path d="M5 75H2.5V77.5H5V75Z" fill="#F2D9A1"/>
<path d="M10 75H5V77.5H10V75Z" fill="#EAB125"/>
<path d="M12.5 75H10V80H12.5V75Z" fill="#F33712"/>
<path d="M17.5 75H15V77.5H17.5V75Z" fill="#9C1704"/>
<path d="M20 75H17.5V80H20V75Z" fill="#570F0A"/>
<path d="M30 75H27.5V80H30V75Z" fill="#570F0A"/>
<path d="M32.5 75H30V77.5H32.5V75Z" fill="#9C1704"/>
<path d="M37.5 75H35V80H37.5V75Z" fill="#F33712"/>
<path d="M40 75H37.5V77.5H40V75Z" fill="#EAB125"/>
<path d="M47.5 75H45V80H47.5V75Z" fill="#F2D9A1"/>
<path d="M2.5 77.5H0V80H2.5V77.5Z" fill="#F2D9A1"/>
<path d="M7.5 77.5H2.5V80H7.5V77.5Z" fill="#EAB125"/>
<path d="M10 77.5H7.5V80H10V77.5Z" fill="#F33712"/>
<path d="M15 77.5H12.5V80H15V77.5Z" fill="#9C1704"/>
<path d="M17.5 77.5H15V80H17.5V77.5Z" fill="#570F0A"/>
<path d="M32.5 77.5H30V80H32.5V77.5Z" fill="#570F0A"/>
<path d="M35 77.5H32.5V80H35V77.5Z" fill="#9C1704"/>
<path d="M40 77.5H37.5V80H40V77.5Z" fill="#F33712"/>
<path d="M42.5 77.5H40V80H42.5V77.5Z" fill="#EAB125"/>
</svg>
