<svg width="80" height="80" viewBox="0 0 80 80" fill="none" xmlns="http://www.w3.org/2000/svg">
<path d="M7.5 0H0V2.5H7.5V0Z" fill="#1F3467"/>
<path d="M12.5 0H7.5V2.5H12.5V0Z" fill="#276FB3"/>
<path d="M20 0H12.5V2.5H20V0Z" fill="#96D4E4"/>
<path d="M25 0H20V2.5H25V0Z" fill="#1F3467"/>
<path d="M27.5 0H25V2.5H27.5V0Z" fill="#276FB3"/>
<path d="M32.5 0H27.5V2.5H32.5V0Z" fill="#53A6CC"/>
<path d="M35 0H32.5V2.5H35V0Z" fill="#96D4E4"/>
<path d="M55 0H35V2.5H55V0Z" fill="#E0F9FB"/>
<path d="M65 0H55V2.5H65V0Z" fill="#53A6CC"/>
<path d="M80 0H65V10H80V0Z" fill="#1F3467"/>
<path d="M5 2.5H0V5H5V2.5Z" fill="#1F3467"/>
<path d="M10 2.5H5V5H10V2.5Z" fill="#276FB3"/>
<path d="M12.5 2.5H10V5H12.5V2.5Z" fill="#53A6CC"/>
<path d="M15 2.5H12.5V5H15V2.5Z" fill="#96D4E4"/>
<path d="M22.5 2.5H15V5H22.5V2.5Z" fill="#1F3467"/>
<path d="M25 2.5H22.5V5H25V2.5Z" fill="#276FB3"/>
<path d="M30 2.5H25V5H30V2.5Z" fill="#53A6CC"/>
<path d="M32.5 2.5H30V5H32.5V2.5Z" fill="#96D4E4"/>
<path d="M37.5 2.5H32.5V5H37.5V2.5Z" fill="#E0F9FB"/>
<path d="M42.5 2.5H37.5V5H42.5V2.5Z" fill="#96D4E4"/>
<path d="M45 2.5H42.5V7.5H45V2.5Z" fill="#53A6CC"/>
<path d="M50 2.5H45V5H50V2.5Z" fill="#96D4E4"/>
<path d="M60 2.5H50V5H60V2.5Z" fill="#E0F9FB"/>
<path d="M62.5 2.5H60V15H62.5V2.5Z" fill="#53A6CC"/>
<path d="M65 2.5H62.5V15H65V2.5Z" fill="#276FB3"/>
<path d="M2.5 5H0V7.5H2.5V5Z" fill="#1F3467"/>
<path d="M7.5 5H2.5V7.5H7.5V5Z" fill="#276FB3"/>
<path d="M10 5H7.5V7.5H10V5Z" fill="#53A6CC"/>
<path d="M12.5 5H10V10H12.5V5Z" fill="#96D4E4"/>
<path d="M20 5H12.5V7.5H20V5Z" fill="#1F3467"/>
<path d="M22.5 5H20V7.5H22.5V5Z" fill="#276FB3"/>
<path d="M27.5 5H22.5V7.5H27.5V5Z" fill="#53A6CC"/>
<path d="M30 5H27.5V7.5H30V5Z" fill="#96D4E4"/>
<path d="M35 5H30V7.5H35V5Z" fill="#E0F9FB"/>
<path d="M37.5 5H35V7.5H37.5V5Z" fill="#96D4E4"/>
<path d="M42.5 5H37.5V7.5H42.5V5Z" fill="#53A6CC"/>
<path d="M55 5H45V7.5H55V5Z" fill="#53A6CC"/>
<path d="M60 5H55V7.5H60V5Z" fill="#E0F9FB"/>
<path d="M5 7.5H0V12.5H5V7.5Z" fill="#276FB3"/>
<path d="M7.5 7.5H5V10H7.5V7.5Z" fill="#53A6CC"/>
<path d="M10 7.5H7.5V12.5H10V7.5Z" fill="#96D4E4"/>
<path d="M17.5 7.5H12.5V10H17.5V7.5Z" fill="#1F3467"/>
<path d="M20 7.5H17.5V10H20V7.5Z" fill="#276FB3"/>
<path d="M22.5 7.5H20V10H22.5V7.5Z" fill="#53A6CC"/>
<path d="M27.5 7.5H22.5V10H27.5V7.5Z" fill="#96D4E4"/>
<path d="M32.5 7.5H27.5V10H32.5V7.5Z" fill="#E0F9FB"/>
<path d="M35 7.5H32.5V10H35V7.5Z" fill="#53A6CC"/>
<path d="M50 7.5H35V10H50V7.5Z" fill="#276FB3"/>
<path d="M57.5 7.5H50V10H57.5V7.5Z" fill="#53A6CC"/>
<path d="M60 7.5H57.5V15H60V7.5Z" fill="#E0F9FB"/>
<path d="M7.5 10H5V15H7.5V10Z" fill="#96D4E4"/>
<path d="M15 10H10V12.5H15V10Z" fill="#1F3467"/>
<path d="M17.5 10H15V12.5H17.5V10Z" fill="#276FB3"/>
<path d="M20 10H17.5V12.5H20V10Z" fill="#53A6CC"/>
<path d="M25 10H20V12.5H25V10Z" fill="#96D4E4"/>
<path d="M30 10H25V12.5H30V10Z" fill="#E0F9FB"/>
<path d="M40 10H30V12.5H40V10Z" fill="#276FB3"/>
<path d="M47.5 10H40V12.5H47.5V10Z" fill="#1F3467"/>
<path d="M52.5 10H47.5V12.5H52.5V10Z" fill="#276FB3"/>
<path d="M55 10H52.5V12.5H55V10Z" fill="#53A6CC"/>
<path d="M57.5 10H55V17.5H57.5V10Z" fill="#E0F9FB"/>
<path d="M75 10H65V12.5H75V10Z" fill="#1F3467"/>
<path d="M77.5 10H75V17.5H77.5V10Z" fill="#276FB3"/>
<path d="M80 10H77.5V17.5H80V10Z" fill="#53A6CC"/>
<path d="M2.5 12.5H0V15H2.5V12.5Z" fill="#276FB3"/>
<path d="M5 12.5H2.5V17.5H5V12.5Z" fill="#96D4E4"/>
<path d="M12.5 12.5H7.5V17.5H12.5V12.5Z" fill="#1F3467"/>
<path d="M15 12.5H12.5V15H15V12.5Z" fill="#276FB3"/>
<path d="M17.5 12.5H15V17.5H17.5V12.5Z" fill="#53A6CC"/>
<path d="M20 12.5H17.5V15H20V12.5Z" fill="#96D4E4"/>
<path d="M27.5 12.5H20V15H27.5V12.5Z" fill="#E0F9FB"/>
<path d="M35 12.5H27.5V15H35V12.5Z" fill="#276FB3"/>
<path d="M45 12.5H35V17.5H45V12.5Z" fill="#1F3467"/>
<path d="M50 12.5H45V15H50V12.5Z" fill="#276FB3"/>
<path d="M52.5 12.5H50V15H52.5V12.5Z" fill="#53A6CC"/>
<path d="M55 12.5H52.5V15H55V12.5Z" fill="#96D4E4"/>
<path d="M72.5 12.5H65V15H72.5V12.5Z" fill="#1F3467"/>
<path d="M75 12.5H72.5V17.5H75V12.5Z" fill="#276FB3"/>
<path d="M2.5 15H0V22.5H2.5V15Z" fill="#96D4E4"/>
<path d="M7.5 15H5V25H7.5V15Z" fill="#1F3467"/>
<path d="M15 15H12.5V20H15V15Z" fill="#53A6CC"/>
<path d="M22.5 15H17.5V17.5H22.5V15Z" fill="#E0F9FB"/>
<path d="M25 15H22.5V17.5H25V15Z" fill="#96D4E4"/>
<path d="M27.5 15H25V17.5H27.5V15Z" fill="#53A6CC"/>
<path d="M32.5 15H27.5V17.5H32.5V15Z" fill="#276FB3"/>
<path d="M35 15H32.5V55H35V15Z" fill="#1F3467"/>
<path d="M47.5 15H45V17.5H47.5V15Z" fill="#276FB3"/>
<path d="M50 15H47.5V20H50V15Z" fill="#53A6CC"/>
<path d="M52.5 15H50V17.5H52.5V15Z" fill="#96D4E4"/>
<path d="M55 15H52.5V20H55V15Z" fill="#E0F9FB"/>
<path d="M60 15H57.5V17.5H60V15Z" fill="#53A6CC"/>
<path d="M62.5 15H60V17.5H62.5V15Z" fill="#276FB3"/>
<path d="M70 15H62.5V17.5H70V15Z" fill="#1F3467"/>
<path d="M72.5 15H70V20H72.5V15Z" fill="#276FB3"/>
<path d="M5 17.5H2.5V25H5V17.5Z" fill="#1F3467"/>
<path d="M10 17.5H7.5V20H10V17.5Z" fill="#1F3467"/>
<path d="M12.5 17.5H10V22.5H12.5V17.5Z" fill="#53A6CC"/>
<path d="M20 17.5H15V20H20V17.5Z" fill="#E0F9FB"/>
<path d="M22.5 17.5H20V20H22.5V17.5Z" fill="#96D4E4"/>
<path d="M25 17.5H22.5V20H25V17.5Z" fill="#53A6CC"/>
<path d="M30 17.5H25V20H30V17.5Z" fill="#276FB3"/>
<path d="M32.5 17.5H30V55H32.5V17.5Z" fill="#1F3467"/>
<path d="M42.5 17.5H35V20H42.5V17.5Z" fill="#1F3467"/>
<path d="M45 17.5H42.5V22.5H45V17.5Z" fill="#276FB3"/>
<path d="M47.5 17.5H45V22.5H47.5V17.5Z" fill="#53A6CC"/>
<path d="M52.5 17.5H50V27.5H52.5V17.5Z" fill="#E0F9FB"/>
<path d="M60 17.5H55V22.5H60V17.5Z" fill="#276FB3"/>
<path d="M67.5 17.5H60V20H67.5V17.5Z" fill="#1F3467"/>
<path d="M70 17.5H67.5V22.5H70V17.5Z" fill="#276FB3"/>
<path d="M75 17.5H72.5V20H75V17.5Z" fill="#53A6CC"/>
<path d="M80 17.5H75V20H80V17.5Z" fill="#E0F9FB"/>
<path d="M10 20H7.5V35H10V20Z" fill="#53A6CC"/>
<path d="M15 20H12.5V25H15V20Z" fill="#96D4E4"/>
<path d="M17.5 20H15V27.5H17.5V20Z" fill="#E0F9FB"/>
<path d="M20 20H17.5V22.5H20V20Z" fill="#96D4E4"/>
<path d="M22.5 20H20V22.5H22.5V20Z" fill="#53A6CC"/>
<path d="M27.5 20H22.5V22.5H27.5V20Z" fill="#276FB3"/>
<path d="M30 20H27.5V42.5H30V20Z" fill="#1F3467"/>
<path d="M40 20H35V22.5H40V20Z" fill="#1F3467"/>
<path d="M42.5 20H40V25H42.5V20Z" fill="#276FB3"/>
<path d="M50 20H47.5V27.5H50V20Z" fill="#E0F9FB"/>
<path d="M55 20H52.5V25H55V20Z" fill="#53A6CC"/>
<path d="M65 20H60V22.5H65V20Z" fill="#1F3467"/>
<path d="M67.5 20H65V25H67.5V20Z" fill="#276FB3"/>
<path d="M72.5 20H70V22.5H72.5V20Z" fill="#53A6CC"/>
<path d="M77.5 20H72.5V22.5H77.5V20Z" fill="#E0F9FB"/>
<path d="M80 20H77.5V25H80V20Z" fill="#96D4E4"/>
<path d="M2.5 22.5H0V27.5H2.5V22.5Z" fill="#53A6CC"/>
<path d="M12.5 22.5H10V27.5H12.5V22.5Z" fill="#96D4E4"/>
<path d="M20 22.5H17.5V35H20V22.5Z" fill="#53A6CC"/>
<path d="M25 22.5H20V27.5H25V22.5Z" fill="#276FB3"/>
<path d="M27.5 22.5H25V40H27.5V22.5Z" fill="#1F3467"/>
<path d="M37.5 22.5H35V27.5H37.5V22.5Z" fill="#1F3467"/>
<path d="M40 22.5H37.5V27.5H40V22.5Z" fill="#276FB3"/>
<path d="M45 22.5H42.5V25H45V22.5Z" fill="#53A6CC"/>
<path d="M47.5 22.5H45V40H47.5V22.5Z" fill="#E0F9FB"/>
<path d="M57.5 22.5H55V25H57.5V22.5Z" fill="#276FB3"/>
<path d="M62.5 22.5H57.5V25H62.5V22.5Z" fill="#1F3467"/>
<path d="M65 22.5H62.5V25H65V22.5Z" fill="#276FB3"/>
<path d="M70 22.5H67.5V25H70V22.5Z" fill="#96D4E4"/>
<path d="M75 22.5H70V25H75V22.5Z" fill="#E0F9FB"/>
<path d="M77.5 22.5H75V25H77.5V22.5Z" fill="#96D4E4"/>
<path d="M7.5 25H2.5V27.5H7.5V25Z" fill="#53A6CC"/>
<path d="M15 25H12.5V37.5H15V25Z" fill="#E0F9FB"/>
<path d="M42.5 25H40V30H42.5V25Z" fill="#53A6CC"/>
<path d="M45 25H42.5V37.5H45V25Z" fill="#E0F9FB"/>
<path d="M55 25H52.5V30H55V25Z" fill="#276FB3"/>
<path d="M57.5 25H55V27.5H57.5V25Z" fill="#1F3467"/>
<path d="M62.5 25H57.5V27.5H62.5V25Z" fill="#276FB3"/>
<path d="M65 25H62.5V27.5H65V25Z" fill="#96D4E4"/>
<path d="M72.5 25H65V27.5H72.5V25Z" fill="#E0F9FB"/>
<path d="M75 25H72.5V27.5H75V25Z" fill="#96D4E4"/>
<path d="M77.5 25H75V30H77.5V25Z" fill="#53A6CC"/>
<path d="M80 25H77.5V30H80V25Z" fill="#276FB3"/>
<path d="M7.5 27.5H0V30H7.5V27.5Z" fill="#276FB3"/>
<path d="M12.5 27.5H10V32.5H12.5V27.5Z" fill="#E0F9FB"/>
<path d="M17.5 27.5H15V32.5H17.5V27.5Z" fill="#53A6CC"/>
<path d="M22.5 27.5H20V40H22.5V27.5Z" fill="#276FB3"/>
<path d="M25 27.5H22.5V37.5H25V27.5Z" fill="#1F3467"/>
<path d="M37.5 27.5H35V40H37.5V27.5Z" fill="#276FB3"/>
<path d="M40 27.5H37.5V37.5H40V27.5Z" fill="#53A6CC"/>
<path d="M50 27.5H47.5V30H50V27.5Z" fill="#96D4E4"/>
<path d="M52.5 27.5H50V32.5H52.5V27.5Z" fill="#53A6CC"/>
<path d="M57.5 27.5H55V30H57.5V27.5Z" fill="#276FB3"/>
<path d="M60 27.5H57.5V30H60V27.5Z" fill="#53A6CC"/>
<path d="M67.5 27.5H60V30H67.5V27.5Z" fill="#E0F9FB"/>
<path d="M72.5 27.5H67.5V30H72.5V27.5Z" fill="#96D4E4"/>
<path d="M75 27.5H72.5V32.5H75V27.5Z" fill="#53A6CC"/>
<path d="M5 30H0V65H5V30Z" fill="#1F3467"/>
<path d="M7.5 30H5V40H7.5V30Z" fill="#276FB3"/>
<path d="M42.5 30H40V37.5H42.5V30Z" fill="#96D4E4"/>
<path d="M50 30H47.5V42.5H50V30Z" fill="#E0F9FB"/>
<path d="M57.5 30H52.5V32.5H57.5V30Z" fill="#53A6CC"/>
<path d="M62.5 30H57.5V32.5H62.5V30Z" fill="#E0F9FB"/>
<path d="M67.5 30H62.5V32.5H67.5V30Z" fill="#96D4E4"/>
<path d="M72.5 30H67.5V32.5H72.5V30Z" fill="#53A6CC"/>
<path d="M77.5 30H75V32.5H77.5V30Z" fill="#276FB3"/>
<path d="M80 30H77.5V42.5H80V30Z" fill="#1F3467"/>
<path d="M12.5 32.5H10V37.5H12.5V32.5Z" fill="#96D4E4"/>
<path d="M17.5 32.5H15V35H17.5V32.5Z" fill="#96D4E4"/>
<path d="M52.5 32.5H50V42.5H52.5V32.5Z" fill="#E0F9FB"/>
<path d="M55 32.5H52.5V35H55V32.5Z" fill="#53A6CC"/>
<path d="M60 32.5H55V35H60V32.5Z" fill="#E0F9FB"/>
<path d="M62.5 32.5H60V35H62.5V32.5Z" fill="#96D4E4"/>
<path d="M70 32.5H62.5V35H70V32.5Z" fill="#53A6CC"/>
<path d="M75 32.5H70V35H75V32.5Z" fill="#276FB3"/>
<path d="M77.5 32.5H75V45H77.5V32.5Z" fill="#1F3467"/>
<path d="M10 35H7.5V42.5H10V35Z" fill="#276FB3"/>
<path d="M17.5 35H15V40H17.5V35Z" fill="#E0F9FB"/>
<path d="M20 35H17.5V37.5H20V35Z" fill="#96D4E4"/>
<path d="M57.5 35H52.5V40H57.5V35Z" fill="#E0F9FB"/>
<path d="M60 35H57.5V37.5H60V35Z" fill="#96D4E4"/>
<path d="M65 35H60V37.5H65V35Z" fill="#53A6CC"/>
<path d="M72.5 35H65V37.5H72.5V35Z" fill="#276FB3"/>
<path d="M75 35H72.5V45H75V35Z" fill="#1F3467"/>
<path d="M12.5 37.5H10V40H12.5V37.5Z" fill="#53A6CC"/>
<path d="M15 37.5H12.5V40H15V37.5Z" fill="#96D4E4"/>
<path d="M20 37.5H17.5V45H20V37.5Z" fill="#E0F9FB"/>
<path d="M25 37.5H22.5V40H25V37.5Z" fill="#276FB3"/>
<path d="M40 37.5H37.5V42.5H40V37.5Z" fill="#276FB3"/>
<path d="M45 37.5H40V40H45V37.5Z" fill="#53A6CC"/>
<path d="M62.5 37.5H57.5V40H62.5V37.5Z" fill="#53A6CC"/>
<path d="M70 37.5H62.5V40H70V37.5Z" fill="#276FB3"/>
<path d="M72.5 37.5H70V45H72.5V37.5Z" fill="#1F3467"/>
<path d="M7.5 40H5V62.5H7.5V40Z" fill="#1F3467"/>
<path d="M12.5 40H10V45H12.5V40Z" fill="#276FB3"/>
<path d="M15 40H12.5V42.5H15V40Z" fill="#53A6CC"/>
<path d="M17.5 40H15V42.5H17.5V40Z" fill="#96D4E4"/>
<path d="M25 40H20V42.5H25V40Z" fill="#53A6CC"/>
<path d="M27.5 40H25V50H27.5V40Z" fill="#276FB3"/>
<path d="M37.5 40H35V57.5H37.5V40Z" fill="#1F3467"/>
<path d="M42.5 40H40V45H42.5V40Z" fill="#276FB3"/>
<path d="M45 40H42.5V45H45V40Z" fill="#53A6CC"/>
<path d="M47.5 40H45V42.5H47.5V40Z" fill="#96D4E4"/>
<path d="M55 40H52.5V42.5H55V40Z" fill="#E0F9FB"/>
<path d="M57.5 40H55V42.5H57.5V40Z" fill="#96D4E4"/>
<path d="M60 40H57.5V42.5H60V40Z" fill="#53A6CC"/>
<path d="M67.5 40H60V42.5H67.5V40Z" fill="#276FB3"/>
<path d="M70 40H67.5V45H70V40Z" fill="#1F3467"/>
<path d="M10 42.5H7.5V60H10V42.5Z" fill="#1F3467"/>
<path d="M15 42.5H12.5V47.5H15V42.5Z" fill="#276FB3"/>
<path d="M17.5 42.5H15V45H17.5V42.5Z" fill="#53A6CC"/>
<path d="M22.5 42.5H20V65H22.5V42.5Z" fill="#E0F9FB"/>
<path d="M25 42.5H22.5V50H25V42.5Z" fill="#53A6CC"/>
<path d="M30 42.5H27.5V57.5H30V42.5Z" fill="#276FB3"/>
<path d="M40 42.5H37.5V57.5H40V42.5Z" fill="#1F3467"/>
<path d="M50 42.5H45V47.5H50V42.5Z" fill="#53A6CC"/>
<path d="M55 42.5H50V45H55V42.5Z" fill="#96D4E4"/>
<path d="M57.5 42.5H55V47.5H57.5V42.5Z" fill="#53A6CC"/>
<path d="M62.5 42.5H57.5V45H62.5V42.5Z" fill="#276FB3"/>
<path d="M67.5 42.5H62.5V45H67.5V42.5Z" fill="#1F3467"/>
<path d="M80 42.5H77.5V47.5H80V42.5Z" fill="#96D4E4"/>
<path d="M12.5 45H10V57.5H12.5V45Z" fill="#1F3467"/>
<path d="M17.5 45H15V57.5H17.5V45Z" fill="#276FB3"/>
<path d="M20 45H17.5V60H20V45Z" fill="#53A6CC"/>
<path d="M42.5 45H40V60H42.5V45Z" fill="#1F3467"/>
<path d="M45 45H42.5V47.5H45V45Z" fill="#276FB3"/>
<path d="M52.5 45H50V50H52.5V45Z" fill="#53A6CC"/>
<path d="M55 45H52.5V50H55V45Z" fill="#96D4E4"/>
<path d="M60 45H57.5V47.5H60V45Z" fill="#276FB3"/>
<path d="M62.5 45H60V47.5H62.5V45Z" fill="#1F3467"/>
<path d="M70 45H62.5V47.5H70V45Z" fill="#53A6CC"/>
<path d="M77.5 45H70V47.5H77.5V45Z" fill="#96D4E4"/>
<path d="M15 47.5H12.5V57.5H15V47.5Z" fill="#1F3467"/>
<path d="M45 47.5H42.5V62.5H45V47.5Z" fill="#1F3467"/>
<path d="M50 47.5H45V50H50V47.5Z" fill="#276FB3"/>
<path d="M57.5 47.5H55V52.5H57.5V47.5Z" fill="#96D4E4"/>
<path d="M60 47.5H57.5V50H60V47.5Z" fill="#1F3467"/>
<path d="M65 47.5H60V50H65V47.5Z" fill="#53A6CC"/>
<path d="M72.5 47.5H65V50H72.5V47.5Z" fill="#96D4E4"/>
<path d="M80 47.5H72.5V50H80V47.5Z" fill="#276FB3"/>
<path d="M25 50H22.5V57.5H25V50Z" fill="#E0F9FB"/>
<path d="M27.5 50H25V57.5H27.5V50Z" fill="#53A6CC"/>
<path d="M50 50H45V62.5H50V50Z" fill="#1F3467"/>
<path d="M52.5 50H50V55H52.5V50Z" fill="#276FB3"/>
<path d="M55 50H52.5V52.5H55V50Z" fill="#53A6CC"/>
<path d="M67.5 50H57.5V52.5H67.5V50Z" fill="#96D4E4"/>
<path d="M80 50H67.5V52.5H80V50Z" fill="#1F3467"/>
<path d="M55 52.5H52.5V55H55V52.5Z" fill="#276FB3"/>
<path d="M65 52.5H55V55H65V52.5Z" fill="#53A6CC"/>
<path d="M70 52.5H65V57.5H70V52.5Z" fill="#96D4E4"/>
<path d="M80 52.5H70V57.5H80V52.5Z" fill="#1F3467"/>
<path d="M35 55H30V57.5H35V55Z" fill="#276FB3"/>
<path d="M60 55H50V65H60V55Z" fill="#1F3467"/>
<path d="M65 55H60V57.5H65V55Z" fill="#276FB3"/>
<path d="M15 57.5H10V60H15V57.5Z" fill="#276FB3"/>
<path d="M17.5 57.5H15V62.5H17.5V57.5Z" fill="#53A6CC"/>
<path d="M35 57.5H22.5V60H35V57.5Z" fill="#96D4E4"/>
<path d="M40 57.5H35V60H40V57.5Z" fill="#276FB3"/>
<path d="M62.5 57.5H60V67.5H62.5V57.5Z" fill="#1F3467"/>
<path d="M67.5 57.5H62.5V60H67.5V57.5Z" fill="#276FB3"/>
<path d="M70 57.5H67.5V60H70V57.5Z" fill="#53A6CC"/>
<path d="M75 57.5H70V60H75V57.5Z" fill="#96D4E4"/>
<path d="M80 57.5H75V60H80V57.5Z" fill="#1F3467"/>
<path d="M12.5 60H7.5V62.5H12.5V60Z" fill="#276FB3"/>
<path d="M15 60H12.5V62.5H15V60Z" fill="#53A6CC"/>
<path d="M20 60H17.5V62.5H20V60Z" fill="#96D4E4"/>
<path d="M25 60H22.5V65H25V60Z" fill="#96D4E4"/>
<path d="M32.5 60H25V62.5H32.5V60Z" fill="#276FB3"/>
<path d="M40 60H32.5V62.5H40V60Z" fill="#96D4E4"/>
<path d="M42.5 60H40V62.5H42.5V60Z" fill="#276FB3"/>
<path d="M65 60H62.5V67.5H65V60Z" fill="#1F3467"/>
<path d="M70 60H65V62.5H70V60Z" fill="#276FB3"/>
<path d="M72.5 60H70V62.5H72.5V60Z" fill="#53A6CC"/>
<path d="M77.5 60H72.5V62.5H77.5V60Z" fill="#96D4E4"/>
<path d="M80 60H77.5V65H80V60Z" fill="#1F3467"/>
<path d="M7.5 62.5H5V65H7.5V62.5Z" fill="#276FB3"/>
<path d="M12.5 62.5H7.5V65H12.5V62.5Z" fill="#53A6CC"/>
<path d="M17.5 62.5H12.5V65H17.5V62.5Z" fill="#96D4E4"/>
<path d="M20 62.5H17.5V67.5H20V62.5Z" fill="#E0F9FB"/>
<path d="M27.5 62.5H25V65H27.5V62.5Z" fill="#276FB3"/>
<path d="M35 62.5H27.5V80H35V62.5Z" fill="#1F3467"/>
<path d="M37.5 62.5H35V65H37.5V62.5Z" fill="#276FB3"/>
<path d="M42.5 62.5H37.5V65H42.5V62.5Z" fill="#96D4E4"/>
<path d="M47.5 62.5H42.5V65H47.5V62.5Z" fill="#276FB3"/>
<path d="M50 62.5H47.5V65H50V62.5Z" fill="#1F3467"/>
<path d="M67.5 62.5H65V67.5H67.5V62.5Z" fill="#1F3467"/>
<path d="M72.5 62.5H67.5V65H72.5V62.5Z" fill="#276FB3"/>
<path d="M75 62.5H72.5V65H75V62.5Z" fill="#53A6CC"/>
<path d="M77.5 62.5H75V65H77.5V62.5Z" fill="#96D4E4"/>
<path d="M2.5 65H0V67.5H2.5V65Z" fill="#1F3467"/>
<path d="M5 65H2.5V67.5H5V65Z" fill="#276FB3"/>
<path d="M10 65H5V70H10V65Z" fill="#53A6CC"/>
<path d="M15 65H10V67.5H15V65Z" fill="#96D4E4"/>
<path d="M17.5 65H15V70H17.5V65Z" fill="#E0F9FB"/>
<path d="M25 65H20V67.5H25V65Z" fill="#53A6CC"/>
<path d="M27.5 65H25V80H27.5V65Z" fill="#1F3467"/>
<path d="M37.5 65H35V80H37.5V65Z" fill="#1F3467"/>
<path d="M40 65H37.5V67.5H40V65Z" fill="#53A6CC"/>
<path d="M45 65H40V67.5H45V65Z" fill="#96D4E4"/>
<path d="M47.5 65H45V67.5H47.5V65Z" fill="#53A6CC"/>
<path d="M52.5 65H47.5V67.5H52.5V65Z" fill="#276FB3"/>
<path d="M60 65H52.5V67.5H60V65Z" fill="#1F3467"/>
<path d="M72.5 65H67.5V70H72.5V65Z" fill="#1F3467"/>
<path d="M75 65H72.5V70H75V65Z" fill="#276FB3"/>
<path d="M77.5 65H75V67.5H77.5V65Z" fill="#53A6CC"/>
<path d="M80 65H77.5V70H80V65Z" fill="#96D4E4"/>
<path d="M2.5 67.5H0V72.5H2.5V67.5Z" fill="#276FB3"/>
<path d="M5 67.5H2.5V70H5V67.5Z" fill="#53A6CC"/>
<path d="M15 67.5H10V70H15V67.5Z" fill="#E0F9FB"/>
<path d="M22.5 67.5H17.5V70H22.5V67.5Z" fill="#53A6CC"/>
<path d="M25 67.5H22.5V70H25V67.5Z" fill="#276FB3"/>
<path d="M40 67.5H37.5V72.5H40V67.5Z" fill="#276FB3"/>
<path d="M42.5 67.5H40V70H42.5V67.5Z" fill="#53A6CC"/>
<path d="M60 67.5H42.5V70H60V67.5Z" fill="#96D4E4"/>
<path d="M67.5 67.5H60V70H67.5V67.5Z" fill="#276FB3"/>
<path d="M77.5 67.5H75V75H77.5V67.5Z" fill="#276FB3"/>
<path d="M10 70H2.5V72.5H10V70Z" fill="#96D4E4"/>
<path d="M12.5 70H10V77.5H12.5V70Z" fill="#E0F9FB"/>
<path d="M15 70H12.5V75H15V70Z" fill="#96D4E4"/>
<path d="M20 70H15V72.5H20V70Z" fill="#53A6CC"/>
<path d="M22.5 70H20V75H22.5V70Z" fill="#276FB3"/>
<path d="M25 70H22.5V80H25V70Z" fill="#1F3467"/>
<path d="M42.5 70H40V77.5H42.5V70Z" fill="#276FB3"/>
<path d="M57.5 70H42.5V72.5H57.5V70Z" fill="#53A6CC"/>
<path d="M67.5 70H57.5V72.5H67.5V70Z" fill="#96D4E4"/>
<path d="M70 70H67.5V72.5H70V70Z" fill="#276FB3"/>
<path d="M75 70H70V75H75V70Z" fill="#1F3467"/>
<path d="M80 70H77.5V80H80V70Z" fill="#53A6CC"/>
<path d="M2.5 72.5H0V75H2.5V72.5Z" fill="#53A6CC"/>
<path d="M5 72.5H2.5V75H5V72.5Z" fill="#96D4E4"/>
<path d="M10 72.5H5V80H10V72.5Z" fill="#E0F9FB"/>
<path d="M17.5 72.5H15V75H17.5V72.5Z" fill="#53A6CC"/>
<path d="M20 72.5H17.5V77.5H20V72.5Z" fill="#276FB3"/>
<path d="M40 72.5H37.5V80H40V72.5Z" fill="#1F3467"/>
<path d="M47.5 72.5H42.5V75H47.5V72.5Z" fill="#53A6CC"/>
<path d="M60 72.5H47.5V75H60V72.5Z" fill="#1F3467"/>
<path d="M65 72.5H60V75H65V72.5Z" fill="#53A6CC"/>
<path d="M70 72.5H65V75H70V72.5Z" fill="#96D4E4"/>
<path d="M2.5 75H0V80H2.5V75Z" fill="#96D4E4"/>
<path d="M5 75H2.5V80H5V75Z" fill="#E0F9FB"/>
<path d="M15 75H12.5V80H15V75Z" fill="#53A6CC"/>
<path d="M17.5 75H15V80H17.5V75Z" fill="#276FB3"/>
<path d="M22.5 75H20V80H22.5V75Z" fill="#1F3467"/>
<path d="M45 75H42.5V80H45V75Z" fill="#276FB3"/>
<path d="M50 75H45V80H50V75Z" fill="#53A6CC"/>
<path d="M65 75H50V80H65V75Z" fill="#1F3467"/>
<path d="M67.5 75H65V80H67.5V75Z" fill="#53A6CC"/>
<path d="M70 75H67.5V80H70V75Z" fill="#96D4E4"/>
<path d="M72.5 75H70V80H72.5V75Z" fill="#276FB3"/>
<path d="M77.5 75H72.5V80H77.5V75Z" fill="#1F3467"/>
<path d="M12.5 77.5H10V80H12.5V77.5Z" fill="#96D4E4"/>
<path d="M20 77.5H17.5V80H20V77.5Z" fill="#1F3467"/>
<path d="M42.5 77.5H40V80H42.5V77.5Z" fill="#1F3467"/>
</svg>
