<svg width="80" height="80" viewBox="0 0 80 80" fill="none" xmlns="http://www.w3.org/2000/svg">
<path d="M75 0H0V2.5H75V0Z" fill="#0B031B"/>
<path d="M77.5 0H75V2.5H77.5V0Z" fill="#1B0836"/>
<path d="M80 0H77.5V2.5H80V0Z" fill="#330482"/>
<path d="M72.5 2.5H0V5H72.5V2.5Z" fill="#0B031B"/>
<path d="M75 2.5H72.5V5H75V2.5Z" fill="#1B0836"/>
<path d="M77.5 2.5H75V5H77.5V2.5Z" fill="#330482"/>
<path d="M80 2.5H77.5V5H80V2.5Z" fill="#1B0836"/>
<path d="M70 5H0V7.5H70V5Z" fill="#0B031B"/>
<path d="M72.5 5H70V7.5H72.5V5Z" fill="#1B0836"/>
<path d="M75 5H72.5V7.5H75V5Z" fill="#5320A8"/>
<path d="M77.5 5H75V7.5H77.5V5Z" fill="#1B0836"/>
<path d="M80 5H77.5V80H80V5Z" fill="#0B031B"/>
<path d="M67.5 7.5H0V10H67.5V7.5Z" fill="#0B031B"/>
<path d="M70 7.5H67.5V10H70V7.5Z" fill="#1B0836"/>
<path d="M72.5 7.5H70V10H72.5V7.5Z" fill="#5320A8"/>
<path d="M75 7.5H72.5V10H75V7.5Z" fill="#1B0836"/>
<path d="M77.5 7.5H75V80H77.5V7.5Z" fill="#0B031B"/>
<path d="M65 10H0V12.5H65V10Z" fill="#0B031B"/>
<path d="M67.5 10H65V12.5H67.5V10Z" fill="#1B0836"/>
<path d="M70 10H67.5V12.5H70V10Z" fill="#5320A8"/>
<path d="M72.5 10H70V12.5H72.5V10Z" fill="#1B0836"/>
<path d="M75 10H72.5V80H75V10Z" fill="#0B031B"/>
<path d="M30 12.5H0V15H30V12.5Z" fill="#0B031B"/>
<path d="M52.5 12.5H30V15H52.5V12.5Z" fill="#21005A"/>
<path d="M62.5 12.5H52.5V15H62.5V12.5Z" fill="#0B031B"/>
<path d="M65 12.5H62.5V15H65V12.5Z" fill="#1B0836"/>
<path d="M67.5 12.5H65V15H67.5V12.5Z" fill="#9560EC"/>
<path d="M70 12.5H67.5V15H70V12.5Z" fill="#1B0836"/>
<path d="M72.5 12.5H70V80H72.5V12.5Z" fill="#0B031B"/>
<path d="M25 15H0V17.5H25V15Z" fill="#0B031B"/>
<path d="M30 15H25V17.5H30V15Z" fill="#1B0836"/>
<path d="M35 15H30V17.5H35V15Z" fill="#21005A"/>
<path d="M40 15H35V17.5H40V15Z" fill="#5320A8"/>
<path d="M47.5 15H40V17.5H47.5V15Z" fill="#7446C0"/>
<path d="M52.5 15H47.5V17.5H52.5V15Z" fill="#4A00C3"/>
<path d="M60 15H52.5V17.5H60V15Z" fill="#21005A"/>
<path d="M62.5 15H60V17.5H62.5V15Z" fill="#4A00C3"/>
<path d="M65 15H62.5V17.5H65V15Z" fill="#9560EC"/>
<path d="M67.5 15H65V17.5H67.5V15Z" fill="#1B0836"/>
<path d="M70 15H67.5V80H70V15Z" fill="#0B031B"/>
<path d="M22.5 17.5H0V20H22.5V17.5Z" fill="#0B031B"/>
<path d="M25 17.5H22.5V20H25V17.5Z" fill="#1B0836"/>
<path d="M30 17.5H25V20H30V17.5Z" fill="#21005A"/>
<path d="M35 17.5H30V20H35V17.5Z" fill="#330482"/>
<path d="M40 17.5H35V20H40V17.5Z" fill="#21005A"/>
<path d="M47.5 17.5H40V20H47.5V17.5Z" fill="#330482"/>
<path d="M52.5 17.5H47.5V20H52.5V17.5Z" fill="#CAAAFF"/>
<path d="M60 17.5H52.5V20H60V17.5Z" fill="#4A00C3"/>
<path d="M62.5 17.5H60V20H62.5V17.5Z" fill="#CAAAFF"/>
<path d="M65 17.5H62.5V20H65V17.5Z" fill="#4A00C3"/>
<path d="M67.5 17.5H65V27.5H67.5V17.5Z" fill="#0B031B"/>
<path d="M20 20H0V25H20V20Z" fill="#0B031B"/>
<path d="M22.5 20H20V22.5H22.5V20Z" fill="#1B0836"/>
<path d="M25 20H22.5V22.5H25V20Z" fill="#21005A"/>
<path d="M30 20H25V22.5H30V20Z" fill="#330482"/>
<path d="M35 20H30V22.5H35V20Z" fill="#21005A"/>
<path d="M47.5 20H35V22.5H47.5V20Z" fill="#1B0836"/>
<path d="M52.5 20H47.5V22.5H52.5V20Z" fill="#4A00C3"/>
<path d="M55 20H52.5V22.5H55V20Z" fill="#9560EC"/>
<path d="M57.5 20H55V22.5H57.5V20Z" fill="#FFC4F7"/>
<path d="M60 20H57.5V22.5H60V20Z" fill="#CAAAFF"/>
<path d="M62.5 20H60V27.5H62.5V20Z" fill="#4A00C3"/>
<path d="M65 20H62.5V27.5H65V20Z" fill="#21005A"/>
<path d="M22.5 22.5H20V27.5H22.5V22.5Z" fill="#21005A"/>
<path d="M25 22.5H22.5V27.5H25V22.5Z" fill="#330482"/>
<path d="M30 22.5H25V25H30V22.5Z" fill="#21005A"/>
<path d="M32.5 22.5H30V25H32.5V22.5Z" fill="#1B0836"/>
<path d="M47.5 22.5H32.5V27.5H47.5V22.5Z" fill="#0B031B"/>
<path d="M50 22.5H47.5V27.5H50V22.5Z" fill="#1B0836"/>
<path d="M52.5 22.5H50V27.5H52.5V22.5Z" fill="#21005A"/>
<path d="M55 22.5H52.5V25H55V22.5Z" fill="#4A00C3"/>
<path d="M57.5 22.5H55V25H57.5V22.5Z" fill="#CAAAFF"/>
<path d="M60 22.5H57.5V25H60V22.5Z" fill="#FFC4F7"/>
<path d="M17.5 25H0V27.5H17.5V25Z" fill="#0B031B"/>
<path d="M20 25H17.5V27.5H20V25Z" fill="#1B0836"/>
<path d="M27.5 25H25V27.5H27.5V25Z" fill="#21005A"/>
<path d="M30 25H27.5V27.5H30V25Z" fill="#1B0836"/>
<path d="M32.5 25H30V42.5H32.5V25Z" fill="#0B031B"/>
<path d="M55 25H52.5V27.5H55V25Z" fill="#9560EC"/>
<path d="M57.5 25H55V27.5H57.5V25Z" fill="#4A00C3"/>
<path d="M60 25H57.5V27.5H60V25Z" fill="#9560EC"/>
<path d="M15 27.5H0V62.5H15V27.5Z" fill="#0B031B"/>
<path d="M17.5 27.5H15V32.5H17.5V27.5Z" fill="#1B0836"/>
<path d="M20 27.5H17.5V32.5H20V27.5Z" fill="#21005A"/>
<path d="M22.5 27.5H20V32.5H22.5V27.5Z" fill="#330482"/>
<path d="M25 27.5H22.5V32.5H25V27.5Z" fill="#21005A"/>
<path d="M27.5 27.5H25V32.5H27.5V27.5Z" fill="#1B0836"/>
<path d="M30 27.5H27.5V45H30V27.5Z" fill="#0B031B"/>
<path d="M45 27.5H32.5V30H45V27.5Z" fill="#0B031B"/>
<path d="M47.5 27.5H45V30H47.5V27.5Z" fill="#1B0836"/>
<path d="M50 27.5H47.5V30H50V27.5Z" fill="#21005A"/>
<path d="M52.5 27.5H50V30H52.5V27.5Z" fill="#9560EC"/>
<path d="M57.5 27.5H52.5V30H57.5V27.5Z" fill="#21005A"/>
<path d="M60 27.5H57.5V32.5H60V27.5Z" fill="#4A00C3"/>
<path d="M62.5 27.5H60V32.5H62.5V27.5Z" fill="#CAAAFF"/>
<path d="M65 27.5H62.5V32.5H65V27.5Z" fill="#4A00C3"/>
<path d="M67.5 27.5H65V50H67.5V27.5Z" fill="#21005A"/>
<path d="M42.5 30H32.5V35H42.5V30Z" fill="#0B031B"/>
<path d="M45 30H42.5V40H45V30Z" fill="#1B0836"/>
<path d="M47.5 30H45V32.5H47.5V30Z" fill="#21005A"/>
<path d="M50 30H47.5V32.5H50V30Z" fill="#5320A8"/>
<path d="M52.5 30H50V32.5H52.5V30Z" fill="#21005A"/>
<path d="M57.5 30H52.5V32.5H57.5V30Z" fill="#1B0836"/>
<path d="M17.5 32.5H15V37.5H17.5V32.5Z" fill="#21005A"/>
<path d="M20 32.5H17.5V37.5H20V32.5Z" fill="#5320A8"/>
<path d="M22.5 32.5H20V37.5H22.5V32.5Z" fill="#21005A"/>
<path d="M25 32.5H22.5V45H25V32.5Z" fill="#1B0836"/>
<path d="M27.5 32.5H25V45H27.5V32.5Z" fill="#0B031B"/>
<path d="M47.5 32.5H45V35H47.5V32.5Z" fill="#330482"/>
<path d="M50 32.5H47.5V35H50V32.5Z" fill="#21005A"/>
<path d="M52.5 32.5H50V35H52.5V32.5Z" fill="#1B0836"/>
<path d="M57.5 32.5H52.5V45H57.5V32.5Z" fill="#0B031B"/>
<path d="M60 32.5H57.5V45H60V32.5Z" fill="#1B0836"/>
<path d="M62.5 32.5H60V40H62.5V32.5Z" fill="#330482"/>
<path d="M65 32.5H62.5V40H65V32.5Z" fill="#7446C0"/>
<path d="M40 35H32.5V37.5H40V35Z" fill="#0B031B"/>
<path d="M42.5 35H40V42.5H42.5V35Z" fill="#1B0836"/>
<path d="M50 35H45V37.5H50V35Z" fill="#1B0836"/>
<path d="M52.5 35H50V52.5H52.5V35Z" fill="#0B031B"/>
<path d="M17.5 37.5H15V45H17.5V37.5Z" fill="#4A00C3"/>
<path d="M20 37.5H17.5V45H20V37.5Z" fill="#7446C0"/>
<path d="M22.5 37.5H20V45H22.5V37.5Z" fill="#330482"/>
<path d="M37.5 37.5H32.5V40H37.5V37.5Z" fill="#0B031B"/>
<path d="M40 37.5H37.5V40H40V37.5Z" fill="#1B0836"/>
<path d="M50 37.5H45V52.5H50V37.5Z" fill="#0B031B"/>
<path d="M37.5 40H32.5V42.5H37.5V40Z" fill="#1B0836"/>
<path d="M40 40H37.5V42.5H40V40Z" fill="#330482"/>
<path d="M45 40H42.5V55H45V40Z" fill="#0B031B"/>
<path d="M62.5 40H60V45H62.5V40Z" fill="#21005A"/>
<path d="M65 40H62.5V45H65V40Z" fill="#5320A8"/>
<path d="M32.5 42.5H30V45H32.5V42.5Z" fill="#1B0836"/>
<path d="M35 42.5H32.5V45H35V42.5Z" fill="#21005A"/>
<path d="M37.5 42.5H35V45H37.5V42.5Z" fill="#5320A8"/>
<path d="M40 42.5H37.5V47.5H40V42.5Z" fill="#1B0836"/>
<path d="M42.5 42.5H40V55H42.5V42.5Z" fill="#0B031B"/>
<path d="M17.5 45H15V50H17.5V45Z" fill="#21005A"/>
<path d="M20 45H17.5V50H20V45Z" fill="#4A00C3"/>
<path d="M22.5 45H20V50H22.5V45Z" fill="#CAAAFF"/>
<path d="M25 45H22.5V50H25V45Z" fill="#4A00C3"/>
<path d="M27.5 45H25V50H27.5V45Z" fill="#21005A"/>
<path d="M30 45H27.5V47.5H30V45Z" fill="#1B0836"/>
<path d="M32.5 45H30V47.5H32.5V45Z" fill="#21005A"/>
<path d="M35 45H32.5V47.5H35V45Z" fill="#9560EC"/>
<path d="M37.5 45H35V47.5H37.5V45Z" fill="#21005A"/>
<path d="M55 45H52.5V50H55V45Z" fill="#0B031B"/>
<path d="M57.5 45H55V50H57.5V45Z" fill="#1B0836"/>
<path d="M60 45H57.5V50H60V45Z" fill="#21005A"/>
<path d="M62.5 45H60V50H62.5V45Z" fill="#330482"/>
<path d="M65 45H62.5V50H65V45Z" fill="#21005A"/>
<path d="M30 47.5H27.5V50H30V47.5Z" fill="#21005A"/>
<path d="M32.5 47.5H30V50H32.5V47.5Z" fill="#9560EC"/>
<path d="M35 47.5H32.5V50H35V47.5Z" fill="#21005A"/>
<path d="M37.5 47.5H35V50H37.5V47.5Z" fill="#1B0836"/>
<path d="M40 47.5H37.5V55H40V47.5Z" fill="#0B031B"/>
<path d="M17.5 50H15V60H17.5V50Z" fill="#0B031B"/>
<path d="M20 50H17.5V57.5H20V50Z" fill="#21005A"/>
<path d="M22.5 50H20V57.5H22.5V50Z" fill="#4A00C3"/>
<path d="M25 50H22.5V52.5H25V50Z" fill="#9560EC"/>
<path d="M27.5 50H25V52.5H27.5V50Z" fill="#4A00C3"/>
<path d="M30 50H27.5V52.5H30V50Z" fill="#CAAAFF"/>
<path d="M32.5 50H30V55H32.5V50Z" fill="#21005A"/>
<path d="M35 50H32.5V52.5H35V50Z" fill="#1B0836"/>
<path d="M37.5 50H35V55H37.5V50Z" fill="#0B031B"/>
<path d="M55 50H52.5V52.5H55V50Z" fill="#1B0836"/>
<path d="M57.5 50H55V55H57.5V50Z" fill="#21005A"/>
<path d="M60 50H57.5V55H60V50Z" fill="#330482"/>
<path d="M62.5 50H60V55H62.5V50Z" fill="#21005A"/>
<path d="M65 50H62.5V55H65V50Z" fill="#1B0836"/>
<path d="M67.5 50H65V80H67.5V50Z" fill="#0B031B"/>
<path d="M25 52.5H22.5V55H25V52.5Z" fill="#FFC4F7"/>
<path d="M27.5 52.5H25V55H27.5V52.5Z" fill="#CAAAFF"/>
<path d="M30 52.5H27.5V55H30V52.5Z" fill="#4A00C3"/>
<path d="M35 52.5H32.5V55H35V52.5Z" fill="#21005A"/>
<path d="M47.5 52.5H45V55H47.5V52.5Z" fill="#0B031B"/>
<path d="M52.5 52.5H47.5V55H52.5V52.5Z" fill="#1B0836"/>
<path d="M55 52.5H52.5V55H55V52.5Z" fill="#21005A"/>
<path d="M25 55H22.5V57.5H25V55Z" fill="#CAAAFF"/>
<path d="M27.5 55H25V57.5H27.5V55Z" fill="#FFC4F7"/>
<path d="M30 55H27.5V57.5H30V55Z" fill="#9560EC"/>
<path d="M35 55H30V57.5H35V55Z" fill="#4A00C3"/>
<path d="M47.5 55H35V57.5H47.5V55Z" fill="#1B0836"/>
<path d="M52.5 55H47.5V57.5H52.5V55Z" fill="#21005A"/>
<path d="M57.5 55H52.5V57.5H57.5V55Z" fill="#330482"/>
<path d="M60 55H57.5V57.5H60V55Z" fill="#21005A"/>
<path d="M62.5 55H60V57.5H62.5V55Z" fill="#1B0836"/>
<path d="M65 55H62.5V80H65V55Z" fill="#0B031B"/>
<path d="M20 57.5H17.5V60H20V57.5Z" fill="#4A00C3"/>
<path d="M22.5 57.5H20V60H22.5V57.5Z" fill="#CAAAFF"/>
<path d="M30 57.5H22.5V60H30V57.5Z" fill="#4A00C3"/>
<path d="M35 57.5H30V60H35V57.5Z" fill="#CAAAFF"/>
<path d="M42.5 57.5H35V60H42.5V57.5Z" fill="#330482"/>
<path d="M47.5 57.5H42.5V60H47.5V57.5Z" fill="#21005A"/>
<path d="M52.5 57.5H47.5V60H52.5V57.5Z" fill="#330482"/>
<path d="M57.5 57.5H52.5V60H57.5V57.5Z" fill="#21005A"/>
<path d="M60 57.5H57.5V60H60V57.5Z" fill="#1B0836"/>
<path d="M62.5 57.5H60V80H62.5V57.5Z" fill="#0B031B"/>
<path d="M17.5 60H15V62.5H17.5V60Z" fill="#1B0836"/>
<path d="M20 60H17.5V62.5H20V60Z" fill="#9560EC"/>
<path d="M22.5 60H20V62.5H22.5V60Z" fill="#4A00C3"/>
<path d="M30 60H22.5V62.5H30V60Z" fill="#21005A"/>
<path d="M35 60H30V62.5H35V60Z" fill="#4A00C3"/>
<path d="M42.5 60H35V62.5H42.5V60Z" fill="#7446C0"/>
<path d="M47.5 60H42.5V62.5H47.5V60Z" fill="#5320A8"/>
<path d="M52.5 60H47.5V62.5H52.5V60Z" fill="#21005A"/>
<path d="M57.5 60H52.5V62.5H57.5V60Z" fill="#1B0836"/>
<path d="M60 60H57.5V80H60V60Z" fill="#0B031B"/>
<path d="M12.5 62.5H0V65H12.5V62.5Z" fill="#0B031B"/>
<path d="M15 62.5H12.5V65H15V62.5Z" fill="#1B0836"/>
<path d="M17.5 62.5H15V65H17.5V62.5Z" fill="#9560EC"/>
<path d="M20 62.5H17.5V65H20V62.5Z" fill="#1B0836"/>
<path d="M30 62.5H20V80H30V62.5Z" fill="#0B031B"/>
<path d="M35 62.5H30V65H35V62.5Z" fill="#21005A"/>
<path d="M42.5 62.5H35V65H42.5V62.5Z" fill="#4A00C3"/>
<path d="M52.5 62.5H42.5V65H52.5V62.5Z" fill="#1B0836"/>
<path d="M57.5 62.5H52.5V80H57.5V62.5Z" fill="#0B031B"/>
<path d="M10 65H0V67.5H10V65Z" fill="#0B031B"/>
<path d="M12.5 65H10V67.5H12.5V65Z" fill="#1B0836"/>
<path d="M15 65H12.5V67.5H15V65Z" fill="#5320A8"/>
<path d="M17.5 65H15V67.5H17.5V65Z" fill="#1B0836"/>
<path d="M20 65H17.5V80H20V65Z" fill="#0B031B"/>
<path d="M52.5 65H30V80H52.5V65Z" fill="#0B031B"/>
<path d="M7.5 67.5H0V70H7.5V67.5Z" fill="#0B031B"/>
<path d="M10 67.5H7.5V70H10V67.5Z" fill="#1B0836"/>
<path d="M12.5 67.5H10V70H12.5V67.5Z" fill="#5320A8"/>
<path d="M15 67.5H12.5V70H15V67.5Z" fill="#1B0836"/>
<path d="M17.5 67.5H15V80H17.5V67.5Z" fill="#0B031B"/>
<path d="M5 70H0V72.5H5V70Z" fill="#0B031B"/>
<path d="M7.5 70H5V72.5H7.5V70Z" fill="#1B0836"/>
<path d="M10 70H7.5V72.5H10V70Z" fill="#5320A8"/>
<path d="M12.5 70H10V72.5H12.5V70Z" fill="#1B0836"/>
<path d="M15 70H12.5V80H15V70Z" fill="#0B031B"/>
<path d="M2.5 72.5H0V75H2.5V72.5Z" fill="#0B031B"/>
<path d="M5 72.5H2.5V75H5V72.5Z" fill="#1B0836"/>
<path d="M7.5 72.5H5V75H7.5V72.5Z" fill="#330482"/>
<path d="M10 72.5H7.5V75H10V72.5Z" fill="#1B0836"/>
<path d="M12.5 72.5H10V80H12.5V72.5Z" fill="#0B031B"/>
<path d="M2.5 75H0V77.5H2.5V75Z" fill="#1B0836"/>
<path d="M5 75H2.5V77.5H5V75Z" fill="#330482"/>
<path d="M7.5 75H5V77.5H7.5V75Z" fill="#1B0836"/>
<path d="M10 75H7.5V80H10V75Z" fill="#0B031B"/>
<path d="M2.5 77.5H0V80H2.5V77.5Z" fill="#330482"/>
<path d="M5 77.5H2.5V80H5V77.5Z" fill="#1B0836"/>
<path d="M7.5 77.5H5V80H7.5V77.5Z" fill="#0B031B"/>
</svg>
