<svg width="355" height="60" viewBox="0 0 355 60" fill="none" xmlns="http://www.w3.org/2000/svg">
<rect x="10" width="5" height="5" fill="#464444"/>
<rect x="15" width="325" height="5" fill="#464444"/>
<rect x="15" y="55" width="325" height="5" fill="#464444"/>
<rect x="10" y="50" width="336" height="5" fill="#787878"/>
<rect x="5" y="45" width="345" height="5" fill="#787878"/>
<rect x="15" y="40" width="325" height="5" fill="#B3B3B3"/>
<rect x="15" y="10" width="325" height="5" fill="#B3B3B3"/>
<rect x="10" y="15" width="330" height="25" fill="#B3B3B3"/>
<rect width="5" height="5" transform="matrix(1 0 0 -1 10 60)" fill="#464444"/>
<rect width="5" height="5" transform="matrix(-1 0 0 1 345 0)" fill="#464444"/>
<rect x="345" y="60" width="5" height="5" transform="rotate(180 345 60)" fill="#464444"/>
<rect x="5" y="5" width="5" height="5" fill="#464444"/>
<rect width="5" height="5" transform="matrix(1 0 0 -1 5 55)" fill="#464444"/>
<rect width="5" height="35" transform="matrix(1 0 0 -1 5 45)" fill="#787878"/>
<rect width="5" height="5" transform="matrix(1 0 0 -1 10 45)" fill="#787878"/>
<rect width="5" height="5" transform="matrix(1 0 0 -1 10 10)" fill="#787878"/>
<rect width="5" height="5" transform="matrix(1 0 0 -1 10 15)" fill="#D0CECE"/>
<rect width="5" height="5" transform="matrix(1 0 0 -1 15 10)" fill="#D0CECE"/>
<rect width="5" height="5" transform="matrix(1 0 0 -1 20 10)" fill="#D0CECE"/>
<rect width="5" height="5" transform="matrix(1 0 0 -1 25 10)" fill="#D0CECE"/>
<rect width="5" height="5" transform="matrix(1 0 0 -1 30 10)" fill="#D0CECE"/>
<rect width="5" height="5" transform="matrix(1 0 0 -1 35 10)" fill="#D0CECE"/>
<rect width="5" height="5" transform="matrix(1 0 0 -1 40 10)" fill="#D0CECE"/>
<rect width="5" height="5" transform="matrix(1 0 0 -1 45 10)" fill="white"/>
<rect width="5" height="5" transform="matrix(1 0 0 -1 50 10)" fill="white"/>
<rect width="5" height="5" transform="matrix(1 0 0 -1 55 10)" fill="white"/>
<rect width="5" height="5" transform="matrix(1 0 0 -1 60 10)" fill="white"/>
<rect width="5" height="5" transform="matrix(1 0 0 -1 65 10)" fill="#D0CECE"/>
<rect width="5" height="5" transform="matrix(1 0 0 -1 70 10)" fill="#D0CECE"/>
<rect width="5" height="5" transform="matrix(1 0 0 -1 75 10)" fill="white"/>
<rect width="5" height="5" transform="matrix(1 0 0 -1 80 10)" fill="#D0CECE"/>
<rect width="5" height="5" transform="matrix(1 0 0 -1 85 10)" fill="#D0CECE"/>
<rect width="5" height="5" transform="matrix(1 0 0 -1 90 10)" fill="#D0CECE"/>
<rect width="5" height="5" transform="matrix(1 0 0 -1 95 10)" fill="#D0CECE"/>
<rect width="5" height="5" transform="matrix(1 0 0 -1 100 10)" fill="#D0CECE"/>
<rect width="5" height="5" transform="matrix(1 0 0 -1 105 10)" fill="#D0CECE"/>
<rect width="5" height="5" transform="matrix(1 0 0 -1 110 10)" fill="#D0CECE"/>
<rect width="5" height="5" transform="matrix(1 0 0 -1 115 10)" fill="#D0CECE"/>
<rect width="5" height="5" transform="matrix(1 0 0 -1 120 10)" fill="#D0CECE"/>
<rect width="5" height="5" transform="matrix(1 0 0 -1 125 10)" fill="#D0CECE"/>
<rect width="5" height="5" transform="matrix(1 0 0 -1 130 10)" fill="#D0CECE"/>
<rect width="5" height="5" transform="matrix(1 0 0 -1 135 10)" fill="#D0CECE"/>
<rect width="5" height="5" transform="matrix(1 0 0 -1 140 10)" fill="#D0CECE"/>
<rect width="5" height="5" transform="matrix(1 0 0 -1 145 10)" fill="#D0CECE"/>
<rect width="5" height="5" transform="matrix(1 0 0 -1 150 10)" fill="#D0CECE"/>
<rect width="5" height="5" transform="matrix(1 0 0 -1 155 10)" fill="#D0CECE"/>
<rect width="5" height="5" transform="matrix(1 0 0 -1 160 10)" fill="#D0CECE"/>
<rect width="5" height="5" transform="matrix(1 0 0 -1 165 10)" fill="#D0CECE"/>
<rect width="5" height="5" transform="matrix(1 0 0 -1 170 10)" fill="#D0CECE"/>
<rect width="5" height="5" transform="matrix(1 0 0 -1 175 10)" fill="#D0CECE"/>
<rect width="5" height="5" transform="matrix(1 0 0 -1 180 10)" fill="#D0CECE"/>
<rect width="5" height="5" transform="matrix(1 0 0 -1 185 10)" fill="#D0CECE"/>
<rect width="5" height="5" transform="matrix(1 0 0 -1 190 10)" fill="#D0CECE"/>
<rect width="5" height="5" transform="matrix(1 0 0 -1 195 10)" fill="#D0CECE"/>
<rect width="5" height="5" transform="matrix(1 0 0 -1 200 10)" fill="#D0CECE"/>
<rect width="5" height="5" transform="matrix(1 0 0 -1 205 10)" fill="#D0CECE"/>
<rect width="5" height="5" transform="matrix(1 0 0 -1 210 10)" fill="#D0CECE"/>
<rect width="5" height="5" transform="matrix(1 0 0 -1 215 10)" fill="#D0CECE"/>
<rect width="5" height="5" transform="matrix(1 0 0 -1 220 10)" fill="#D0CECE"/>
<rect width="5" height="5" transform="matrix(1 0 0 -1 225 10)" fill="#D0CECE"/>
<rect width="5" height="5" transform="matrix(1 0 0 -1 230 10)" fill="#D0CECE"/>
<rect width="5" height="5" transform="matrix(1 0 0 -1 235 10)" fill="#D0CECE"/>
<rect width="5" height="5" transform="matrix(1 0 0 -1 240 10)" fill="#D0CECE"/>
<rect width="5" height="5" transform="matrix(1 0 0 -1 245 10)" fill="#D0CECE"/>
<rect width="5" height="5" transform="matrix(1 0 0 -1 250 10)" fill="#D0CECE"/>
<rect width="5" height="5" transform="matrix(1 0 0 -1 255 10)" fill="white"/>
<rect width="5" height="5" transform="matrix(1 0 0 -1 260 10)" fill="white"/>
<rect width="5" height="5" transform="matrix(1 0 0 -1 265 10)" fill="#D0CECE"/>
<rect width="5" height="5" transform="matrix(1 0 0 -1 270 10)" fill="#D0CECE"/>
<rect width="5" height="5" transform="matrix(1 0 0 -1 275 10)" fill="white"/>
<rect width="5" height="5" transform="matrix(1 0 0 -1 280 10)" fill="white"/>
<rect width="5" height="5" transform="matrix(1 0 0 -1 285 10)" fill="white"/>
<rect width="5" height="5" transform="matrix(1 0 0 -1 290 10)" fill="white"/>
<rect width="5" height="5" transform="matrix(1 0 0 -1 295 10)" fill="#D0CECE"/>
<rect width="5" height="5" transform="matrix(1 0 0 -1 300 10)" fill="#D0CECE"/>
<rect width="5" height="5" transform="matrix(1 0 0 -1 305 10)" fill="#D0CECE"/>
<rect width="5" height="5" transform="matrix(1 0 0 -1 310 10)" fill="#D0CECE"/>
<rect width="5" height="5" transform="matrix(1 0 0 -1 315 10)" fill="#D0CECE"/>
<rect width="5" height="5" transform="matrix(1 0 0 -1 320 10)" fill="#D0CECE"/>
<rect width="5" height="5" transform="matrix(1 0 0 -1 325 10)" fill="#D0CECE"/>
<rect width="5" height="5" transform="matrix(1 0 0 -1 330 10)" fill="#D0CECE"/>
<rect width="5" height="5" transform="matrix(1 0 0 -1 340 10)" fill="#787878"/>
<rect width="5" height="35" transform="matrix(1 0 0 -1 340 45)" fill="#787878"/>
<rect width="5" height="35" transform="matrix(1 0 0 -1 345 45)" fill="#787878"/>
<rect width="5" height="5" transform="matrix(1 0 0 -1 335 10)" fill="#787878"/>
<rect width="5" height="5" transform="matrix(1 0 0 -1 335 45)" fill="#787878"/>
<rect width="5" height="5" transform="matrix(-1 0 0 1 350 5)" fill="#464444"/>
<rect x="350" y="55" width="5" height="5" transform="rotate(180 350 55)" fill="#464444"/>
<rect y="10" width="5" height="35" fill="#464444"/>
<rect width="5" height="5" transform="matrix(1 0 0 -1 0 50)" fill="#464444"/>
<rect width="5" height="35" transform="matrix(-1 0 0 1 355 10)" fill="#464444"/>
<rect x="355" y="50" width="5" height="5" transform="rotate(180 355 50)" fill="#464444"/>
</svg>
